G04*
G04 #@! TF.GenerationSoftware,Altium Limited,Altium Designer,24.10.1 (45)*
G04*
G04 Layer_Color=16711935*
%FSLAX44Y44*%
%MOMM*%
G71*
G04*
G04 #@! TF.SameCoordinates,0EDCD7A5-6BC7-414E-B131-C269EAA69737*
G04*
G04*
G04 #@! TF.FilePolarity,Negative*
G04*
G01*
G75*
%ADD74C,1.3716*%
%ADD75C,1.8542*%
G04:AMPARAMS|DCode=76|XSize=1.8542mm|YSize=1.8542mm|CornerRadius=0.5143mm|HoleSize=0mm|Usage=FLASHONLY|Rotation=90.000|XOffset=0mm|YOffset=0mm|HoleType=Round|Shape=RoundedRectangle|*
%AMROUNDEDRECTD76*
21,1,1.8542,0.8255,0,0,90.0*
21,1,0.8255,1.8542,0,0,90.0*
1,1,1.0287,0.4128,0.4128*
1,1,1.0287,0.4128,-0.4128*
1,1,1.0287,-0.4128,-0.4128*
1,1,1.0287,-0.4128,0.4128*
%
%ADD76ROUNDEDRECTD76*%
%ADD77C,1.7524*%
%ADD78C,2.7432*%
%ADD79R,2.6032X2.6032*%
%ADD80C,2.6032*%
%ADD81C,1.7272*%
%ADD82C,1.7112*%
%ADD83R,1.7112X1.7112*%
G04:AMPARAMS|DCode=84|XSize=1.7032mm|YSize=3.7032mm|CornerRadius=0.4766mm|HoleSize=0mm|Usage=FLASHONLY|Rotation=0.000|XOffset=0mm|YOffset=0mm|HoleType=Round|Shape=RoundedRectangle|*
%AMROUNDEDRECTD84*
21,1,1.7032,2.7500,0,0,0.0*
21,1,0.7500,3.7032,0,0,0.0*
1,1,0.9532,0.3750,-1.3750*
1,1,0.9532,-0.3750,-1.3750*
1,1,0.9532,-0.3750,1.3750*
1,1,0.9532,0.3750,1.3750*
%
%ADD84ROUNDEDRECTD84*%
G04:AMPARAMS|DCode=85|XSize=1.7032mm|YSize=3.7032mm|CornerRadius=0.4766mm|HoleSize=0mm|Usage=FLASHONLY|Rotation=270.000|XOffset=0mm|YOffset=0mm|HoleType=Round|Shape=RoundedRectangle|*
%AMROUNDEDRECTD85*
21,1,1.7032,2.7500,0,0,270.0*
21,1,0.7500,3.7032,0,0,270.0*
1,1,0.9532,-1.3750,-0.3750*
1,1,0.9532,-1.3750,0.3750*
1,1,0.9532,1.3750,0.3750*
1,1,0.9532,1.3750,-0.3750*
%
%ADD85ROUNDEDRECTD85*%
G04:AMPARAMS|DCode=86|XSize=1.7032mm|YSize=4.2032mm|CornerRadius=0.4766mm|HoleSize=0mm|Usage=FLASHONLY|Rotation=90.000|XOffset=0mm|YOffset=0mm|HoleType=Round|Shape=RoundedRectangle|*
%AMROUNDEDRECTD86*
21,1,1.7032,3.2500,0,0,90.0*
21,1,0.7500,4.2032,0,0,90.0*
1,1,0.9532,1.6250,0.3750*
1,1,0.9532,1.6250,-0.3750*
1,1,0.9532,-1.6250,-0.3750*
1,1,0.9532,-1.6250,0.3750*
%
%ADD86ROUNDEDRECTD86*%
%ADD87C,0.7414*%
%ADD88O,2.3032X1.2532*%
%ADD89O,2.2032X1.2032*%
%ADD90R,1.7112X1.7112*%
%ADD91C,0.6604*%
%ADD92C,0.5588*%
G36*
X51685Y855990D02*
X51794D01*
X51903Y855985D01*
X52012Y855983D01*
X52121Y855976D01*
X52230Y855971D01*
X52340Y855962D01*
X52448Y855954D01*
X52556Y855943D01*
X52665Y855933D01*
X52773Y855919D01*
X52882Y855907D01*
X52990Y855890D01*
X53098Y855876D01*
X53205Y855857D01*
X53313Y855841D01*
X53420Y855819D01*
X53527Y855800D01*
X56618Y855185D01*
X56725Y855162D01*
X56832Y855141D01*
X56939Y855115D01*
X57045Y855091D01*
X57149Y855063D01*
X57256Y855037D01*
X57362Y855006D01*
X57466Y854978D01*
X57570Y854945D01*
X57675Y854915D01*
X57778Y854880D01*
X57882Y854847D01*
X57985Y854810D01*
X58088Y854774D01*
X58191Y854734D01*
X58292Y854697D01*
X58392Y854656D01*
X58495Y854616D01*
X61407Y853410D01*
X61507Y853366D01*
X61607Y853324D01*
X61706Y853278D01*
X61806Y853234D01*
X61903Y853186D01*
X62003Y853140D01*
X62100Y853089D01*
X62197Y853041D01*
X62293Y852989D01*
X62390Y852939D01*
X62484Y852884D01*
X62580Y852831D01*
X62674Y852775D01*
X62768Y852720D01*
X62860Y852662D01*
X62953Y852605D01*
X63043Y852545D01*
X63136Y852486D01*
X65757Y850735D01*
X65846Y850672D01*
X65937Y850612D01*
X66025Y850547D01*
X66114Y850484D01*
X66200Y850418D01*
X66289Y850354D01*
X66374Y850285D01*
X66460Y850219D01*
X66543Y850149D01*
X66629Y850080D01*
X66711Y850008D01*
X66795Y849938D01*
X66875Y849865D01*
X66957Y849793D01*
X67036Y849717D01*
X67116Y849643D01*
X67193Y849567D01*
X67272Y849491D01*
X69501Y847262D01*
X69577Y847183D01*
X69654Y847106D01*
X69727Y847026D01*
X69803Y846947D01*
X69875Y846865D01*
X69948Y846785D01*
X70019Y846701D01*
X70090Y846619D01*
X70159Y846533D01*
X70229Y846450D01*
X70295Y846364D01*
X70364Y846279D01*
X70428Y846190D01*
X70494Y846104D01*
X70557Y846015D01*
X70622Y845927D01*
X70682Y845836D01*
X70745Y845747D01*
X72496Y843126D01*
X72555Y843034D01*
X72615Y842943D01*
X72672Y842850D01*
X72730Y842758D01*
X72784Y842664D01*
X72841Y842570D01*
X72895Y842473D01*
X72948Y842380D01*
X72998Y842284D01*
X73051Y842188D01*
X73100Y842090D01*
X73150Y841993D01*
X73196Y841894D01*
X73244Y841796D01*
X73289Y841696D01*
X73334Y841597D01*
X73376Y841498D01*
X73420Y841397D01*
X74626Y838485D01*
X74666Y838382D01*
X74707Y838282D01*
X74745Y838180D01*
X74784Y838078D01*
X74819Y837976D01*
X74857Y837872D01*
X74890Y837768D01*
X74925Y837665D01*
X74955Y837560D01*
X74988Y837456D01*
X75016Y837351D01*
X75047Y837246D01*
X75073Y837140D01*
X75101Y837035D01*
X75125Y836928D01*
X75150Y836822D01*
X75172Y836715D01*
X75195Y836609D01*
X75810Y833517D01*
X75829Y833410D01*
X75851Y833303D01*
X75867Y833195D01*
X75886Y833088D01*
X75900Y832980D01*
X75917Y832872D01*
X75929Y832763D01*
X75943Y832655D01*
X75953Y832546D01*
X75964Y832438D01*
X75971Y832329D01*
X75981Y832220D01*
X75986Y832111D01*
X75993Y832002D01*
X75995Y831893D01*
X76000Y831784D01*
Y831675D01*
X76002Y831566D01*
Y829990D01*
Y828414D01*
X76000Y828305D01*
Y828196D01*
X75995Y828087D01*
X75993Y827978D01*
X75986Y827869D01*
X75981Y827760D01*
X75971Y827651D01*
X75964Y827542D01*
X75953Y827434D01*
X75943Y827325D01*
X75929Y827217D01*
X75917Y827109D01*
X75900Y827000D01*
X75886Y826893D01*
X75867Y826785D01*
X75851Y826677D01*
X75829Y826571D01*
X75810Y826463D01*
X75195Y823372D01*
X75172Y823265D01*
X75150Y823158D01*
X75125Y823052D01*
X75101Y822946D01*
X75073Y822841D01*
X75047Y822734D01*
X75016Y822628D01*
X74988Y822524D01*
X74955Y822421D01*
X74925Y822315D01*
X74890Y822212D01*
X74857Y822108D01*
X74820Y822006D01*
X74784Y821902D01*
X74745Y821799D01*
X74707Y821698D01*
X74666Y821598D01*
X74626Y821495D01*
X73420Y818584D01*
X73376Y818483D01*
X73334Y818383D01*
X73288Y818284D01*
X73244Y818184D01*
X73196Y818087D01*
X73150Y817987D01*
X73099Y817890D01*
X73051Y817793D01*
X72999Y817697D01*
X72948Y817600D01*
X72894Y817506D01*
X72841Y817410D01*
X72785Y817317D01*
X72730Y817222D01*
X72671Y817130D01*
X72615Y817037D01*
X72555Y816947D01*
X72496Y816854D01*
X70745Y814234D01*
X70682Y814144D01*
X70622Y814054D01*
X70557Y813966D01*
X70494Y813876D01*
X70428Y813790D01*
X70364Y813702D01*
X70295Y813616D01*
X70229Y813530D01*
X70159Y813447D01*
X70090Y813361D01*
X70019Y813279D01*
X69948Y813196D01*
X69875Y813115D01*
X69803Y813033D01*
X69727Y812954D01*
X69654Y812874D01*
X69577Y812797D01*
X69501Y812718D01*
X67272Y810489D01*
X67193Y810414D01*
X67116Y810337D01*
X67036Y810263D01*
X66957Y810188D01*
X66875Y810116D01*
X66795Y810042D01*
X66711Y809972D01*
X66629Y809900D01*
X66543Y809831D01*
X66460Y809761D01*
X66374Y809696D01*
X66289Y809627D01*
X66200Y809562D01*
X66114Y809496D01*
X66025Y809433D01*
X65937Y809369D01*
X65846Y809308D01*
X65757Y809245D01*
X63136Y807494D01*
X63044Y807436D01*
X62953Y807375D01*
X62860Y807318D01*
X62768Y807260D01*
X62674Y807206D01*
X62580Y807149D01*
X62483Y807096D01*
X62390Y807042D01*
X62294Y806992D01*
X62198Y806939D01*
X62100Y806891D01*
X62003Y806840D01*
X61904Y806794D01*
X61806Y806746D01*
X61706Y806702D01*
X61607Y806656D01*
X61508Y806615D01*
X61407Y806570D01*
X58495Y805364D01*
X58393Y805324D01*
X58292Y805283D01*
X58190Y805245D01*
X58088Y805206D01*
X57986Y805171D01*
X57882Y805133D01*
X57778Y805100D01*
X57675Y805066D01*
X57570Y805035D01*
X57466Y805002D01*
X57361Y804974D01*
X57256Y804943D01*
X57150Y804918D01*
X57045Y804889D01*
X56938Y804866D01*
X56832Y804840D01*
X56726Y804818D01*
X56618Y804795D01*
X53527Y804180D01*
X53419Y804161D01*
X53313Y804140D01*
X53205Y804123D01*
X53098Y804104D01*
X52990Y804090D01*
X52882Y804073D01*
X52773Y804061D01*
X52665Y804047D01*
X52556Y804038D01*
X52448Y804026D01*
X52339Y804019D01*
X52230Y804009D01*
X52121Y804004D01*
X52012Y803997D01*
X51903Y803995D01*
X51794Y803990D01*
X51685D01*
X51576Y803988D01*
X48424D01*
X48315Y803990D01*
X48206D01*
X48097Y803995D01*
X47988Y803997D01*
X47879Y804004D01*
X47770Y804009D01*
X47661Y804019D01*
X47552Y804026D01*
X47444Y804038D01*
X47335Y804047D01*
X47228Y804061D01*
X47119Y804073D01*
X47011Y804090D01*
X46903Y804104D01*
X46795Y804123D01*
X46687Y804140D01*
X46581Y804161D01*
X46473Y804180D01*
X43382Y804795D01*
X43275Y804818D01*
X43168Y804840D01*
X43062Y804866D01*
X42956Y804889D01*
X42851Y804917D01*
X42744Y804943D01*
X42639Y804974D01*
X42534Y805002D01*
X42430Y805035D01*
X42325Y805066D01*
X42222Y805100D01*
X42118Y805133D01*
X42016Y805171D01*
X41912Y805206D01*
X41810Y805246D01*
X41708Y805283D01*
X41608Y805324D01*
X41505Y805364D01*
X38593Y806570D01*
X38493Y806614D01*
X38393Y806656D01*
X38294Y806702D01*
X38194Y806746D01*
X38097Y806794D01*
X37997Y806840D01*
X37900Y806891D01*
X37803Y806939D01*
X37707Y806992D01*
X37610Y807042D01*
X37516Y807096D01*
X37420Y807149D01*
X37327Y807206D01*
X37232Y807260D01*
X37140Y807319D01*
X37047Y807375D01*
X36957Y807436D01*
X36864Y807494D01*
X34244Y809245D01*
X34154Y809308D01*
X34064Y809369D01*
X33976Y809433D01*
X33886Y809496D01*
X33800Y809562D01*
X33712Y809627D01*
X33626Y809696D01*
X33540Y809761D01*
X33457Y809831D01*
X33371Y809900D01*
X33289Y809972D01*
X33206Y810042D01*
X33125Y810116D01*
X33043Y810188D01*
X32964Y810263D01*
X32884Y810337D01*
X32807Y810414D01*
X32728Y810489D01*
X30499Y812718D01*
X30424Y812797D01*
X30347Y812874D01*
X30273Y812954D01*
X30198Y813033D01*
X30126Y813115D01*
X30052Y813196D01*
X29982Y813279D01*
X29910Y813361D01*
X29841Y813447D01*
X29771Y813530D01*
X29706Y813616D01*
X29637Y813702D01*
X29572Y813790D01*
X29506Y813876D01*
X29443Y813966D01*
X29379Y814054D01*
X29318Y814144D01*
X29255Y814234D01*
X27504Y816854D01*
X27446Y816946D01*
X27385Y817037D01*
X27328Y817131D01*
X27270Y817222D01*
X27216Y817316D01*
X27159Y817410D01*
X27106Y817507D01*
X27052Y817600D01*
X27002Y817696D01*
X26949Y817793D01*
X26901Y817890D01*
X26850Y817987D01*
X26804Y818086D01*
X26756Y818184D01*
X26712Y818285D01*
X26666Y818383D01*
X26625Y818483D01*
X26580Y818584D01*
X25374Y821495D01*
X25334Y821598D01*
X25293Y821698D01*
X25255Y821801D01*
X25216Y821902D01*
X25181Y822005D01*
X25143Y822108D01*
X25110Y822213D01*
X25076Y822315D01*
X25045Y822420D01*
X25012Y822524D01*
X24984Y822629D01*
X24953Y822734D01*
X24927Y822840D01*
X24899Y822946D01*
X24876Y823052D01*
X24850Y823158D01*
X24829Y823265D01*
X24805Y823372D01*
X24190Y826463D01*
X24171Y826571D01*
X24150Y826677D01*
X24133Y826785D01*
X24114Y826893D01*
X24100Y827001D01*
X24083Y827109D01*
X24071Y827217D01*
X24057Y827325D01*
X24048Y827434D01*
X24036Y827542D01*
X24029Y827651D01*
X24019Y827760D01*
X24014Y827869D01*
X24007Y827978D01*
X24005Y828087D01*
X24000Y828196D01*
Y828305D01*
X23998Y828414D01*
Y829990D01*
Y831566D01*
X24000Y831675D01*
Y831784D01*
X24005Y831893D01*
X24007Y832002D01*
X24014Y832111D01*
X24019Y832220D01*
X24029Y832329D01*
X24036Y832438D01*
X24048Y832546D01*
X24057Y832655D01*
X24071Y832763D01*
X24083Y832872D01*
X24100Y832980D01*
X24114Y833087D01*
X24133Y833195D01*
X24150Y833303D01*
X24171Y833409D01*
X24190Y833517D01*
X24805Y836609D01*
X24829Y836715D01*
X24850Y836822D01*
X24876Y836928D01*
X24899Y837035D01*
X24927Y837139D01*
X24953Y837246D01*
X24984Y837351D01*
X25012Y837456D01*
X25045Y837560D01*
X25076Y837665D01*
X25110Y837768D01*
X25143Y837872D01*
X25181Y837975D01*
X25216Y838078D01*
X25256Y838181D01*
X25293Y838282D01*
X25334Y838382D01*
X25374Y838485D01*
X26580Y841397D01*
X26624Y841497D01*
X26666Y841597D01*
X26712Y841696D01*
X26756Y841796D01*
X26804Y841893D01*
X26850Y841993D01*
X26901Y842090D01*
X26949Y842188D01*
X27002Y842283D01*
X27052Y842380D01*
X27106Y842474D01*
X27159Y842570D01*
X27215Y842664D01*
X27270Y842758D01*
X27329Y842850D01*
X27385Y842943D01*
X27445Y843034D01*
X27504Y843126D01*
X29255Y845747D01*
X29318Y845836D01*
X29379Y845927D01*
X29443Y846015D01*
X29506Y846104D01*
X29572Y846190D01*
X29637Y846279D01*
X29706Y846364D01*
X29771Y846450D01*
X29841Y846533D01*
X29910Y846619D01*
X29982Y846701D01*
X30052Y846785D01*
X30126Y846865D01*
X30198Y846947D01*
X30273Y847026D01*
X30347Y847106D01*
X30424Y847183D01*
X30499Y847262D01*
X32728Y849491D01*
X32807Y849566D01*
X32884Y849643D01*
X32964Y849717D01*
X33043Y849793D01*
X33125Y849865D01*
X33206Y849938D01*
X33289Y850008D01*
X33371Y850080D01*
X33457Y850149D01*
X33540Y850219D01*
X33626Y850285D01*
X33712Y850354D01*
X33800Y850418D01*
X33886Y850484D01*
X33976Y850547D01*
X34064Y850612D01*
X34154Y850672D01*
X34244Y850735D01*
X36864Y852486D01*
X36957Y852545D01*
X37047Y852605D01*
X37141Y852662D01*
X37232Y852720D01*
X37326Y852774D01*
X37420Y852831D01*
X37517Y852885D01*
X37610Y852939D01*
X37706Y852989D01*
X37803Y853041D01*
X37901Y853090D01*
X37997Y853140D01*
X38096Y853186D01*
X38194Y853234D01*
X38294Y853279D01*
X38393Y853324D01*
X38493Y853366D01*
X38593Y853410D01*
X41505Y854616D01*
X41608Y854656D01*
X41708Y854697D01*
X41810Y854735D01*
X41912Y854774D01*
X42015Y854809D01*
X42118Y854847D01*
X42222Y854880D01*
X42325Y854915D01*
X42430Y854945D01*
X42534Y854978D01*
X42639Y855006D01*
X42744Y855037D01*
X42850Y855063D01*
X42956Y855091D01*
X43062Y855115D01*
X43168Y855141D01*
X43275Y855162D01*
X43382Y855185D01*
X46473Y855800D01*
X46581Y855819D01*
X46687Y855841D01*
X46795Y855857D01*
X46903Y855876D01*
X47010Y855890D01*
X47119Y855907D01*
X47227Y855919D01*
X47335Y855933D01*
X47444Y855943D01*
X47552Y855954D01*
X47661Y855962D01*
X47770Y855971D01*
X47880Y855976D01*
X47988Y855983D01*
X48097Y855985D01*
X48206Y855990D01*
X48315D01*
X48424Y855993D01*
X51576D01*
X51685Y855990D01*
D02*
G37*
G36*
X851685Y106000D02*
X851794D01*
X851903Y105995D01*
X852012Y105993D01*
X852121Y105986D01*
X852230Y105981D01*
X852339Y105971D01*
X852448Y105964D01*
X852556Y105953D01*
X852665Y105943D01*
X852773Y105929D01*
X852882Y105917D01*
X852990Y105900D01*
X853098Y105886D01*
X853205Y105867D01*
X853313Y105850D01*
X853420Y105829D01*
X853527Y105810D01*
X856619Y105195D01*
X856725Y105172D01*
X856832Y105150D01*
X856938Y105124D01*
X857045Y105101D01*
X857150Y105073D01*
X857256Y105047D01*
X857361Y105016D01*
X857466Y104988D01*
X857570Y104955D01*
X857675Y104924D01*
X857778Y104890D01*
X857882Y104857D01*
X857986Y104819D01*
X858088Y104784D01*
X858190Y104745D01*
X858292Y104707D01*
X858392Y104666D01*
X858495Y104626D01*
X861407Y103420D01*
X861507Y103376D01*
X861607Y103334D01*
X861706Y103288D01*
X861806Y103244D01*
X861904Y103196D01*
X862003Y103150D01*
X862100Y103099D01*
X862198Y103051D01*
X862294Y102998D01*
X862390Y102948D01*
X862483Y102894D01*
X862580Y102841D01*
X862674Y102784D01*
X862768Y102730D01*
X862860Y102672D01*
X862953Y102615D01*
X863044Y102555D01*
X863136Y102496D01*
X865757Y100745D01*
X865846Y100682D01*
X865937Y100622D01*
X866025Y100557D01*
X866114Y100494D01*
X866200Y100428D01*
X866289Y100363D01*
X866374Y100295D01*
X866460Y100229D01*
X866543Y100159D01*
X866629Y100090D01*
X866711Y100018D01*
X866795Y99948D01*
X866875Y99874D01*
X866957Y99803D01*
X867036Y99727D01*
X867116Y99653D01*
X867193Y99576D01*
X867272Y99501D01*
X869501Y97272D01*
X869577Y97193D01*
X869653Y97116D01*
X869727Y97036D01*
X869803Y96957D01*
X869874Y96875D01*
X869948Y96794D01*
X870018Y96711D01*
X870090Y96629D01*
X870159Y96543D01*
X870229Y96460D01*
X870295Y96374D01*
X870364Y96288D01*
X870428Y96200D01*
X870495Y96114D01*
X870557Y96025D01*
X870622Y95936D01*
X870682Y95846D01*
X870745Y95756D01*
X872496Y93136D01*
X872555Y93043D01*
X872615Y92953D01*
X872672Y92860D01*
X872730Y92768D01*
X872785Y92673D01*
X872841Y92580D01*
X872894Y92484D01*
X872949Y92390D01*
X872999Y92293D01*
X873051Y92197D01*
X873099Y92100D01*
X873150Y92003D01*
X873196Y91903D01*
X873244Y91806D01*
X873288Y91706D01*
X873334Y91607D01*
X873376Y91507D01*
X873420Y91407D01*
X874626Y88495D01*
X874666Y88392D01*
X874707Y88292D01*
X874744Y88191D01*
X874784Y88088D01*
X874820Y87985D01*
X874857Y87882D01*
X874890Y87778D01*
X874925Y87675D01*
X874955Y87570D01*
X874988Y87466D01*
X875016Y87362D01*
X875047Y87256D01*
X875073Y87149D01*
X875101Y87044D01*
X875125Y86938D01*
X875151Y86832D01*
X875172Y86725D01*
X875195Y86618D01*
X875810Y83527D01*
X875829Y83420D01*
X875851Y83313D01*
X875867Y83205D01*
X875886Y83097D01*
X875900Y82990D01*
X875917Y82881D01*
X875929Y82773D01*
X875943Y82665D01*
X875953Y82556D01*
X875964Y82448D01*
X875972Y82339D01*
X875981Y82230D01*
X875986Y82121D01*
X875993Y82012D01*
X875995Y81903D01*
X876000Y81794D01*
Y81685D01*
X876003Y81576D01*
Y80000D01*
Y78424D01*
X876000Y78315D01*
Y78206D01*
X875995Y78097D01*
X875993Y77988D01*
X875986Y77879D01*
X875981Y77770D01*
X875972Y77661D01*
X875964Y77552D01*
X875953Y77444D01*
X875943Y77335D01*
X875929Y77227D01*
X875917Y77119D01*
X875900Y77010D01*
X875886Y76902D01*
X875867Y76795D01*
X875851Y76687D01*
X875829Y76580D01*
X875810Y76473D01*
X875195Y73382D01*
X875172Y73275D01*
X875151Y73168D01*
X875125Y73062D01*
X875101Y72955D01*
X875073Y72850D01*
X875047Y72744D01*
X875016Y72639D01*
X874988Y72534D01*
X874955Y72430D01*
X874925Y72325D01*
X874890Y72222D01*
X874857Y72118D01*
X874819Y72014D01*
X874784Y71912D01*
X874745Y71810D01*
X874707Y71708D01*
X874666Y71608D01*
X874626Y71505D01*
X873420Y68593D01*
X873376Y68492D01*
X873334Y68393D01*
X873289Y68294D01*
X873244Y68194D01*
X873196Y68096D01*
X873150Y67997D01*
X873100Y67900D01*
X873051Y67803D01*
X872999Y67706D01*
X872949Y67610D01*
X872895Y67517D01*
X872841Y67420D01*
X872784Y67326D01*
X872730Y67232D01*
X872672Y67140D01*
X872615Y67047D01*
X872555Y66956D01*
X872496Y66864D01*
X870745Y64244D01*
X870682Y64154D01*
X870622Y64063D01*
X870557Y63975D01*
X870495Y63886D01*
X870428Y63800D01*
X870364Y63712D01*
X870295Y63626D01*
X870229Y63540D01*
X870159Y63457D01*
X870090Y63371D01*
X870018Y63289D01*
X869948Y63205D01*
X869874Y63125D01*
X869803Y63043D01*
X869727Y62964D01*
X869653Y62884D01*
X869576Y62807D01*
X869501Y62728D01*
X867272Y60499D01*
X867193Y60423D01*
X867116Y60347D01*
X867036Y60273D01*
X866957Y60197D01*
X866875Y60126D01*
X866795Y60052D01*
X866711Y59982D01*
X866629Y59910D01*
X866543Y59841D01*
X866460Y59771D01*
X866374Y59705D01*
X866289Y59637D01*
X866200Y59572D01*
X866114Y59506D01*
X866025Y59443D01*
X865937Y59378D01*
X865846Y59318D01*
X865757Y59255D01*
X863136Y57504D01*
X863044Y57445D01*
X862953Y57385D01*
X862860Y57329D01*
X862768Y57270D01*
X862674Y57215D01*
X862580Y57159D01*
X862484Y57106D01*
X862390Y57052D01*
X862293Y57001D01*
X862197Y56949D01*
X862100Y56901D01*
X862003Y56850D01*
X861903Y56804D01*
X861806Y56756D01*
X861706Y56712D01*
X861607Y56666D01*
X861507Y56624D01*
X861407Y56580D01*
X858495Y55374D01*
X858392Y55334D01*
X858292Y55293D01*
X858191Y55256D01*
X858088Y55216D01*
X857985Y55181D01*
X857882Y55143D01*
X857778Y55110D01*
X857675Y55075D01*
X857570Y55045D01*
X857466Y55012D01*
X857402Y54995D01*
X857466Y54978D01*
X857570Y54945D01*
X857675Y54915D01*
X857778Y54880D01*
X857882Y54847D01*
X857986Y54809D01*
X858088Y54774D01*
X858190Y54735D01*
X858292Y54697D01*
X858392Y54656D01*
X858495Y54616D01*
X861407Y53410D01*
X861507Y53366D01*
X861607Y53324D01*
X861706Y53279D01*
X861806Y53234D01*
X861904Y53186D01*
X862003Y53140D01*
X862100Y53090D01*
X862197Y53041D01*
X862294Y52989D01*
X862390Y52938D01*
X862483Y52885D01*
X862580Y52831D01*
X862674Y52774D01*
X862768Y52720D01*
X862860Y52662D01*
X862953Y52605D01*
X863044Y52545D01*
X863136Y52486D01*
X865756Y50735D01*
X865846Y50672D01*
X865937Y50612D01*
X866025Y50547D01*
X866114Y50484D01*
X866200Y50418D01*
X866289Y50354D01*
X866374Y50285D01*
X866460Y50219D01*
X866543Y50149D01*
X866629Y50080D01*
X866711Y50009D01*
X866794Y49938D01*
X866875Y49865D01*
X866957Y49793D01*
X867036Y49717D01*
X867116Y49644D01*
X867193Y49566D01*
X867272Y49491D01*
X869501Y47262D01*
X869576Y47183D01*
X869653Y47106D01*
X869727Y47026D01*
X869802Y46947D01*
X869874Y46865D01*
X869948Y46785D01*
X870018Y46701D01*
X870090Y46619D01*
X870159Y46533D01*
X870229Y46450D01*
X870295Y46364D01*
X870363Y46279D01*
X870428Y46190D01*
X870494Y46104D01*
X870557Y46015D01*
X870621Y45927D01*
X870682Y45836D01*
X870745Y45746D01*
X872496Y43126D01*
X872555Y43033D01*
X872615Y42943D01*
X872671Y42850D01*
X872730Y42758D01*
X872785Y42664D01*
X872841Y42570D01*
X872894Y42474D01*
X872948Y42380D01*
X872999Y42283D01*
X873051Y42188D01*
X873099Y42090D01*
X873150Y41993D01*
X873196Y41893D01*
X873244Y41796D01*
X873288Y41696D01*
X873334Y41597D01*
X873376Y41497D01*
X873420Y41397D01*
X874626Y38485D01*
X874666Y38382D01*
X874707Y38282D01*
X874744Y38181D01*
X874784Y38078D01*
X874819Y37975D01*
X874857Y37872D01*
X874890Y37768D01*
X874924Y37665D01*
X874955Y37560D01*
X874988Y37456D01*
X875016Y37352D01*
X875047Y37246D01*
X875073Y37139D01*
X875101Y37035D01*
X875124Y36929D01*
X875150Y36822D01*
X875172Y36715D01*
X875195Y36609D01*
X875810Y33517D01*
X875829Y33410D01*
X875850Y33303D01*
X875867Y33195D01*
X875886Y33088D01*
X875900Y32980D01*
X875917Y32872D01*
X875929Y32763D01*
X875943Y32655D01*
X875953Y32546D01*
X875964Y32438D01*
X875971Y32329D01*
X875981Y32220D01*
X875986Y32111D01*
X875993Y32002D01*
X875995Y31893D01*
X876000Y31784D01*
Y31675D01*
X876002Y31566D01*
Y29990D01*
Y28414D01*
X876000Y28305D01*
Y28196D01*
X875995Y28087D01*
X875993Y27978D01*
X875986Y27870D01*
X875981Y27760D01*
X875971Y27651D01*
X875964Y27543D01*
X875953Y27434D01*
X875943Y27325D01*
X875929Y27217D01*
X875917Y27109D01*
X875900Y27000D01*
X875886Y26893D01*
X875867Y26785D01*
X875850Y26677D01*
X875829Y26570D01*
X875810Y26463D01*
X875195Y23372D01*
X875172Y23265D01*
X875150Y23158D01*
X875124Y23052D01*
X875101Y22946D01*
X875073Y22840D01*
X875047Y22734D01*
X875016Y22629D01*
X874988Y22524D01*
X874955Y22420D01*
X874924Y22315D01*
X874890Y22213D01*
X874857Y22108D01*
X874819Y22005D01*
X874784Y21902D01*
X874745Y21800D01*
X874707Y21698D01*
X874666Y21598D01*
X874626Y21495D01*
X873420Y18584D01*
X873376Y18483D01*
X873334Y18383D01*
X873288Y18284D01*
X873244Y18184D01*
X873196Y18086D01*
X873150Y17987D01*
X873099Y17890D01*
X873051Y17793D01*
X872998Y17696D01*
X872948Y17600D01*
X872894Y17507D01*
X872841Y17410D01*
X872784Y17316D01*
X872730Y17222D01*
X872672Y17131D01*
X872615Y17037D01*
X872554Y16947D01*
X872496Y16854D01*
X870745Y14234D01*
X870682Y14144D01*
X870621Y14054D01*
X870557Y13966D01*
X870494Y13876D01*
X870428Y13790D01*
X870363Y13702D01*
X870295Y13616D01*
X870229Y13530D01*
X870159Y13447D01*
X870090Y13361D01*
X870018Y13279D01*
X869948Y13196D01*
X869874Y13115D01*
X869802Y13033D01*
X869727Y12954D01*
X869653Y12874D01*
X869576Y12797D01*
X869501Y12718D01*
X867272Y10489D01*
X867193Y10414D01*
X867116Y10337D01*
X867036Y10263D01*
X866957Y10188D01*
X866875Y10116D01*
X866794Y10042D01*
X866711Y9972D01*
X866629Y9900D01*
X866543Y9831D01*
X866460Y9761D01*
X866374Y9696D01*
X866289Y9627D01*
X866200Y9562D01*
X866114Y9496D01*
X866025Y9433D01*
X865937Y9369D01*
X865846Y9308D01*
X865756Y9245D01*
X863136Y7494D01*
X863043Y7436D01*
X862953Y7375D01*
X862860Y7319D01*
X862768Y7260D01*
X862673Y7206D01*
X862580Y7149D01*
X862484Y7096D01*
X862390Y7042D01*
X862293Y6992D01*
X862197Y6939D01*
X862100Y6891D01*
X862003Y6840D01*
X861903Y6794D01*
X861806Y6746D01*
X861706Y6702D01*
X861607Y6656D01*
X861507Y6614D01*
X861407Y6570D01*
X858495Y5364D01*
X858392Y5324D01*
X858292Y5283D01*
X858191Y5246D01*
X858088Y5206D01*
X857985Y5171D01*
X857882Y5133D01*
X857778Y5100D01*
X857675Y5066D01*
X857570Y5035D01*
X857466Y5002D01*
X857361Y4974D01*
X857256Y4943D01*
X857149Y4917D01*
X857044Y4889D01*
X856938Y4866D01*
X856832Y4840D01*
X856725Y4818D01*
X856618Y4795D01*
X853527Y4180D01*
X853419Y4161D01*
X853313Y4140D01*
X853205Y4123D01*
X853097Y4104D01*
X852989Y4090D01*
X852881Y4073D01*
X852773Y4061D01*
X852665Y4047D01*
X852556Y4038D01*
X852448Y4026D01*
X852339Y4019D01*
X852230Y4009D01*
X852121Y4004D01*
X852012Y3997D01*
X851903Y3995D01*
X851794Y3990D01*
X851685D01*
X851576Y3988D01*
X848424D01*
X848315Y3990D01*
X848206D01*
X848097Y3995D01*
X847988Y3997D01*
X847879Y4004D01*
X847770Y4009D01*
X847661Y4019D01*
X847552Y4026D01*
X847444Y4038D01*
X847335Y4047D01*
X847227Y4061D01*
X847119Y4073D01*
X847011Y4090D01*
X846903Y4104D01*
X846795Y4123D01*
X846687Y4140D01*
X846581Y4161D01*
X846473Y4180D01*
X843382Y4795D01*
X843275Y4818D01*
X843168Y4840D01*
X843062Y4866D01*
X842956Y4889D01*
X842850Y4918D01*
X842744Y4943D01*
X842639Y4974D01*
X842534Y5002D01*
X842430Y5035D01*
X842325Y5066D01*
X842223Y5100D01*
X842118Y5133D01*
X842014Y5171D01*
X841912Y5206D01*
X841810Y5245D01*
X841708Y5283D01*
X841608Y5324D01*
X841505Y5364D01*
X838593Y6570D01*
X838493Y6615D01*
X838393Y6656D01*
X838294Y6702D01*
X838194Y6746D01*
X838096Y6794D01*
X837997Y6840D01*
X837900Y6891D01*
X837803Y6939D01*
X837706Y6992D01*
X837610Y7042D01*
X837517Y7096D01*
X837420Y7149D01*
X837326Y7206D01*
X837232Y7260D01*
X837140Y7319D01*
X837047Y7375D01*
X836956Y7436D01*
X836864Y7494D01*
X834244Y9245D01*
X834154Y9308D01*
X834063Y9369D01*
X833975Y9433D01*
X833886Y9496D01*
X833800Y9562D01*
X833711Y9627D01*
X833626Y9696D01*
X833540Y9761D01*
X833457Y9831D01*
X833371Y9900D01*
X833289Y9972D01*
X833205Y10042D01*
X833125Y10116D01*
X833043Y10188D01*
X832964Y10263D01*
X832884Y10337D01*
X832807Y10414D01*
X832728Y10489D01*
X830499Y12718D01*
X830424Y12797D01*
X830347Y12874D01*
X830273Y12954D01*
X830198Y13033D01*
X830126Y13115D01*
X830052Y13196D01*
X829982Y13279D01*
X829910Y13361D01*
X829841Y13447D01*
X829771Y13530D01*
X829705Y13616D01*
X829637Y13702D01*
X829572Y13790D01*
X829506Y13876D01*
X829443Y13966D01*
X829379Y14054D01*
X829318Y14144D01*
X829255Y14234D01*
X827504Y16854D01*
X827445Y16947D01*
X827385Y17037D01*
X827329Y17130D01*
X827270Y17222D01*
X827215Y17317D01*
X827159Y17410D01*
X827106Y17506D01*
X827052Y17600D01*
X827001Y17697D01*
X826949Y17793D01*
X826901Y17890D01*
X826850Y17987D01*
X826804Y18087D01*
X826756Y18184D01*
X826712Y18284D01*
X826666Y18383D01*
X826624Y18483D01*
X826580Y18584D01*
X825374Y21495D01*
X825334Y21598D01*
X825293Y21698D01*
X825256Y21799D01*
X825216Y21902D01*
X825181Y22006D01*
X825143Y22108D01*
X825110Y22212D01*
X825075Y22315D01*
X825045Y22420D01*
X825012Y22524D01*
X824984Y22629D01*
X824953Y22734D01*
X824927Y22841D01*
X824899Y22946D01*
X824875Y23052D01*
X824850Y23158D01*
X824828Y23265D01*
X824805Y23372D01*
X824190Y26463D01*
X824171Y26571D01*
X824150Y26677D01*
X824133Y26785D01*
X824114Y26893D01*
X824100Y27001D01*
X824083Y27109D01*
X824071Y27218D01*
X824057Y27325D01*
X824048Y27434D01*
X824036Y27543D01*
X824029Y27651D01*
X824019Y27760D01*
X824014Y27869D01*
X824007Y27978D01*
X824005Y28087D01*
X824000Y28196D01*
Y28305D01*
X823998Y28414D01*
Y29990D01*
Y31566D01*
X824000Y31675D01*
Y31784D01*
X824005Y31893D01*
X824007Y32002D01*
X824014Y32111D01*
X824019Y32220D01*
X824029Y32329D01*
X824036Y32438D01*
X824048Y32546D01*
X824057Y32655D01*
X824071Y32763D01*
X824083Y32872D01*
X824100Y32980D01*
X824114Y33087D01*
X824133Y33195D01*
X824150Y33303D01*
X824171Y33409D01*
X824190Y33517D01*
X824805Y36609D01*
X824828Y36716D01*
X824850Y36822D01*
X824875Y36928D01*
X824899Y37034D01*
X824927Y37140D01*
X824953Y37246D01*
X824984Y37351D01*
X825012Y37456D01*
X825045Y37560D01*
X825075Y37665D01*
X825110Y37768D01*
X825143Y37872D01*
X825181Y37976D01*
X825216Y38078D01*
X825255Y38180D01*
X825293Y38282D01*
X825334Y38382D01*
X825374Y38485D01*
X826580Y41397D01*
X826624Y41498D01*
X826666Y41597D01*
X826712Y41696D01*
X826756Y41796D01*
X826804Y41894D01*
X826850Y41993D01*
X826900Y42090D01*
X826949Y42188D01*
X827002Y42284D01*
X827052Y42380D01*
X827105Y42473D01*
X827159Y42570D01*
X827216Y42664D01*
X827270Y42758D01*
X827328Y42850D01*
X827385Y42943D01*
X827446Y43034D01*
X827504Y43126D01*
X829255Y45746D01*
X829318Y45836D01*
X829379Y45927D01*
X829443Y46015D01*
X829506Y46104D01*
X829572Y46190D01*
X829637Y46279D01*
X829705Y46364D01*
X829771Y46450D01*
X829841Y46533D01*
X829910Y46619D01*
X829982Y46701D01*
X830052Y46785D01*
X830126Y46865D01*
X830198Y46947D01*
X830273Y47026D01*
X830347Y47106D01*
X830424Y47183D01*
X830499Y47262D01*
X832728Y49491D01*
X832807Y49567D01*
X832884Y49644D01*
X832964Y49717D01*
X833043Y49793D01*
X833125Y49865D01*
X833205Y49938D01*
X833289Y50009D01*
X833371Y50080D01*
X833457Y50149D01*
X833540Y50219D01*
X833626Y50285D01*
X833711Y50354D01*
X833800Y50418D01*
X833886Y50484D01*
X833975Y50547D01*
X834063Y50612D01*
X834154Y50672D01*
X834244Y50735D01*
X836864Y52486D01*
X836957Y52545D01*
X837047Y52605D01*
X837140Y52661D01*
X837232Y52720D01*
X837327Y52775D01*
X837420Y52831D01*
X837516Y52884D01*
X837610Y52938D01*
X837707Y52989D01*
X837803Y53041D01*
X837900Y53089D01*
X837997Y53140D01*
X838097Y53186D01*
X838194Y53234D01*
X838294Y53278D01*
X838393Y53324D01*
X838493Y53366D01*
X838593Y53410D01*
X841505Y54616D01*
X841608Y54656D01*
X841708Y54697D01*
X841809Y54735D01*
X841912Y54774D01*
X842016Y54810D01*
X842118Y54847D01*
X842222Y54880D01*
X842325Y54915D01*
X842430Y54945D01*
X842534Y54978D01*
X842598Y54995D01*
X842534Y55012D01*
X842430Y55045D01*
X842325Y55075D01*
X842223Y55110D01*
X842118Y55143D01*
X842015Y55181D01*
X841912Y55216D01*
X841811Y55255D01*
X841708Y55293D01*
X841608Y55334D01*
X841505Y55374D01*
X838594Y56580D01*
X838493Y56624D01*
X838393Y56666D01*
X838295Y56712D01*
X838194Y56756D01*
X838096Y56804D01*
X837997Y56850D01*
X837900Y56901D01*
X837803Y56949D01*
X837706Y57002D01*
X837610Y57052D01*
X837517Y57105D01*
X837420Y57159D01*
X837326Y57216D01*
X837232Y57270D01*
X837141Y57328D01*
X837047Y57385D01*
X836956Y57446D01*
X836864Y57504D01*
X834244Y59255D01*
X834154Y59318D01*
X834064Y59378D01*
X833976Y59443D01*
X833886Y59506D01*
X833800Y59572D01*
X833712Y59637D01*
X833626Y59705D01*
X833540Y59771D01*
X833457Y59841D01*
X833371Y59910D01*
X833289Y59982D01*
X833206Y60052D01*
X833125Y60126D01*
X833043Y60197D01*
X832964Y60273D01*
X832884Y60347D01*
X832807Y60424D01*
X832728Y60499D01*
X830499Y62728D01*
X830424Y62807D01*
X830347Y62884D01*
X830273Y62964D01*
X830198Y63043D01*
X830126Y63125D01*
X830052Y63205D01*
X829982Y63289D01*
X829910Y63371D01*
X829841Y63457D01*
X829771Y63540D01*
X829706Y63626D01*
X829637Y63712D01*
X829572Y63800D01*
X829506Y63886D01*
X829443Y63975D01*
X829379Y64063D01*
X829318Y64154D01*
X829255Y64244D01*
X827504Y66864D01*
X827446Y66957D01*
X827385Y67047D01*
X827329Y67140D01*
X827270Y67232D01*
X827215Y67326D01*
X827159Y67420D01*
X827106Y67516D01*
X827052Y67610D01*
X827001Y67707D01*
X826949Y67803D01*
X826901Y67900D01*
X826850Y67997D01*
X826804Y68097D01*
X826756Y68194D01*
X826712Y68294D01*
X826666Y68393D01*
X826624Y68493D01*
X826580Y68593D01*
X825374Y71505D01*
X825334Y71608D01*
X825293Y71708D01*
X825256Y71809D01*
X825216Y71912D01*
X825181Y72015D01*
X825143Y72118D01*
X825110Y72222D01*
X825076Y72325D01*
X825045Y72430D01*
X825012Y72534D01*
X824984Y72639D01*
X824953Y72744D01*
X824927Y72851D01*
X824899Y72956D01*
X824876Y73062D01*
X824850Y73168D01*
X824828Y73275D01*
X824805Y73382D01*
X824190Y76473D01*
X824171Y76581D01*
X824150Y76687D01*
X824133Y76795D01*
X824114Y76903D01*
X824100Y77011D01*
X824083Y77119D01*
X824071Y77227D01*
X824057Y77335D01*
X824048Y77444D01*
X824036Y77552D01*
X824029Y77661D01*
X824019Y77770D01*
X824014Y77879D01*
X824007Y77988D01*
X824005Y78097D01*
X824000Y78206D01*
Y78315D01*
X823998Y78424D01*
Y80000D01*
Y81576D01*
X824000Y81685D01*
Y81794D01*
X824005Y81903D01*
X824007Y82012D01*
X824014Y82121D01*
X824019Y82230D01*
X824029Y82339D01*
X824036Y82448D01*
X824048Y82556D01*
X824057Y82665D01*
X824071Y82773D01*
X824083Y82881D01*
X824100Y82989D01*
X824114Y83097D01*
X824133Y83205D01*
X824150Y83313D01*
X824171Y83419D01*
X824190Y83527D01*
X824805Y86618D01*
X824828Y86725D01*
X824850Y86832D01*
X824876Y86938D01*
X824899Y87044D01*
X824928Y87150D01*
X824953Y87256D01*
X824984Y87361D01*
X825012Y87466D01*
X825045Y87570D01*
X825076Y87675D01*
X825110Y87778D01*
X825143Y87882D01*
X825181Y87985D01*
X825216Y88088D01*
X825255Y88189D01*
X825293Y88292D01*
X825334Y88392D01*
X825374Y88495D01*
X826580Y91407D01*
X826625Y91507D01*
X826666Y91607D01*
X826712Y91706D01*
X826756Y91806D01*
X826804Y91904D01*
X826850Y92003D01*
X826901Y92100D01*
X826949Y92197D01*
X827002Y92294D01*
X827052Y92390D01*
X827106Y92483D01*
X827159Y92580D01*
X827216Y92674D01*
X827270Y92768D01*
X827328Y92860D01*
X827385Y92953D01*
X827446Y93044D01*
X827504Y93136D01*
X829255Y95756D01*
X829318Y95846D01*
X829379Y95936D01*
X829443Y96025D01*
X829506Y96114D01*
X829572Y96200D01*
X829637Y96288D01*
X829706Y96374D01*
X829771Y96460D01*
X829841Y96543D01*
X829910Y96629D01*
X829982Y96711D01*
X830052Y96794D01*
X830126Y96875D01*
X830198Y96957D01*
X830273Y97036D01*
X830347Y97116D01*
X830424Y97193D01*
X830499Y97272D01*
X832728Y99501D01*
X832807Y99577D01*
X832884Y99653D01*
X832964Y99727D01*
X833043Y99803D01*
X833125Y99874D01*
X833206Y99948D01*
X833289Y100018D01*
X833371Y100090D01*
X833457Y100159D01*
X833540Y100229D01*
X833626Y100295D01*
X833712Y100363D01*
X833800Y100428D01*
X833886Y100494D01*
X833976Y100557D01*
X834064Y100622D01*
X834154Y100682D01*
X834244Y100745D01*
X836864Y102496D01*
X836957Y102555D01*
X837047Y102615D01*
X837140Y102671D01*
X837232Y102730D01*
X837327Y102785D01*
X837420Y102841D01*
X837516Y102894D01*
X837610Y102948D01*
X837707Y102999D01*
X837803Y103051D01*
X837900Y103099D01*
X837997Y103150D01*
X838097Y103196D01*
X838194Y103244D01*
X838294Y103288D01*
X838393Y103334D01*
X838493Y103376D01*
X838594Y103420D01*
X841505Y104626D01*
X841608Y104666D01*
X841708Y104707D01*
X841809Y104744D01*
X841912Y104784D01*
X842016Y104819D01*
X842118Y104857D01*
X842222Y104889D01*
X842325Y104924D01*
X842430Y104955D01*
X842534Y104988D01*
X842638Y105016D01*
X842744Y105047D01*
X842851Y105073D01*
X842956Y105101D01*
X843062Y105124D01*
X843168Y105150D01*
X843275Y105172D01*
X843382Y105195D01*
X846473Y105810D01*
X846581Y105829D01*
X846687Y105850D01*
X846795Y105867D01*
X846903Y105886D01*
X847010Y105900D01*
X847119Y105917D01*
X847227Y105929D01*
X847335Y105943D01*
X847444Y105953D01*
X847552Y105964D01*
X847661Y105971D01*
X847770Y105981D01*
X847879Y105986D01*
X847988Y105993D01*
X848097Y105995D01*
X848206Y106000D01*
X848315D01*
X848424Y106002D01*
X851576D01*
X851685Y106000D01*
D02*
G37*
G36*
X51685Y105990D02*
X51794D01*
X51903Y105985D01*
X52012Y105983D01*
X52121Y105976D01*
X52230Y105971D01*
X52340Y105962D01*
X52448Y105954D01*
X52556Y105943D01*
X52665Y105933D01*
X52773Y105919D01*
X52882Y105907D01*
X52990Y105890D01*
X53098Y105876D01*
X53205Y105857D01*
X53313Y105841D01*
X53420Y105819D01*
X53527Y105800D01*
X56618Y105185D01*
X56725Y105162D01*
X56832Y105140D01*
X56939Y105114D01*
X57045Y105091D01*
X57149Y105063D01*
X57256Y105037D01*
X57362Y105006D01*
X57466Y104978D01*
X57570Y104945D01*
X57675Y104915D01*
X57778Y104880D01*
X57882Y104847D01*
X57985Y104810D01*
X58088Y104774D01*
X58191Y104734D01*
X58292Y104698D01*
X58392Y104656D01*
X58495Y104616D01*
X61407Y103410D01*
X61507Y103366D01*
X61607Y103324D01*
X61706Y103278D01*
X61806Y103234D01*
X61903Y103186D01*
X62003Y103140D01*
X62100Y103089D01*
X62197Y103041D01*
X62293Y102989D01*
X62390Y102938D01*
X62484Y102884D01*
X62580Y102831D01*
X62674Y102775D01*
X62768Y102720D01*
X62860Y102662D01*
X62953Y102605D01*
X63043Y102545D01*
X63136Y102486D01*
X65757Y100735D01*
X65846Y100672D01*
X65937Y100612D01*
X66025Y100547D01*
X66114Y100485D01*
X66200Y100418D01*
X66289Y100354D01*
X66374Y100285D01*
X66460Y100219D01*
X66543Y100149D01*
X66629Y100080D01*
X66711Y100008D01*
X66795Y99938D01*
X66875Y99865D01*
X66957Y99793D01*
X67036Y99717D01*
X67116Y99643D01*
X67193Y99567D01*
X67272Y99491D01*
X69501Y97262D01*
X69577Y97183D01*
X69654Y97106D01*
X69727Y97026D01*
X69803Y96947D01*
X69875Y96865D01*
X69948Y96785D01*
X70019Y96701D01*
X70090Y96619D01*
X70159Y96533D01*
X70229Y96450D01*
X70295Y96364D01*
X70364Y96279D01*
X70428Y96190D01*
X70494Y96104D01*
X70557Y96015D01*
X70622Y95927D01*
X70682Y95836D01*
X70745Y95746D01*
X72496Y93126D01*
X72555Y93034D01*
X72615Y92943D01*
X72672Y92850D01*
X72730Y92758D01*
X72784Y92664D01*
X72841Y92570D01*
X72895Y92473D01*
X72948Y92380D01*
X72998Y92284D01*
X73051Y92188D01*
X73100Y92090D01*
X73150Y91993D01*
X73196Y91894D01*
X73244Y91796D01*
X73289Y91696D01*
X73334Y91597D01*
X73376Y91498D01*
X73420Y91397D01*
X74626Y88485D01*
X74666Y88383D01*
X74707Y88282D01*
X74745Y88180D01*
X74784Y88078D01*
X74819Y87976D01*
X74857Y87872D01*
X74890Y87768D01*
X74925Y87665D01*
X74955Y87560D01*
X74988Y87456D01*
X75016Y87351D01*
X75047Y87246D01*
X75073Y87140D01*
X75101Y87035D01*
X75125Y86928D01*
X75150Y86822D01*
X75172Y86715D01*
X75195Y86609D01*
X75810Y83517D01*
X75829Y83410D01*
X75851Y83303D01*
X75867Y83195D01*
X75886Y83088D01*
X75900Y82980D01*
X75917Y82872D01*
X75929Y82763D01*
X75943Y82655D01*
X75953Y82546D01*
X75964Y82438D01*
X75971Y82330D01*
X75981Y82220D01*
X75986Y82111D01*
X75993Y82002D01*
X75995Y81893D01*
X76000Y81784D01*
Y81675D01*
X76002Y81566D01*
Y79990D01*
Y78414D01*
X76000Y78305D01*
Y78196D01*
X75995Y78087D01*
X75993Y77978D01*
X75986Y77870D01*
X75981Y77760D01*
X75971Y77651D01*
X75964Y77543D01*
X75953Y77434D01*
X75943Y77325D01*
X75929Y77217D01*
X75917Y77109D01*
X75900Y77000D01*
X75886Y76893D01*
X75867Y76785D01*
X75851Y76677D01*
X75829Y76571D01*
X75810Y76463D01*
X75195Y73372D01*
X75172Y73265D01*
X75150Y73158D01*
X75125Y73052D01*
X75101Y72946D01*
X75073Y72841D01*
X75047Y72734D01*
X75016Y72628D01*
X74988Y72524D01*
X74955Y72421D01*
X74925Y72315D01*
X74890Y72212D01*
X74857Y72108D01*
X74820Y72006D01*
X74784Y71902D01*
X74745Y71800D01*
X74707Y71698D01*
X74666Y71598D01*
X74626Y71495D01*
X73420Y68583D01*
X73376Y68483D01*
X73334Y68383D01*
X73288Y68284D01*
X73244Y68184D01*
X73196Y68087D01*
X73150Y67987D01*
X73099Y67890D01*
X73051Y67793D01*
X72999Y67697D01*
X72948Y67600D01*
X72894Y67506D01*
X72841Y67410D01*
X72785Y67317D01*
X72730Y67222D01*
X72671Y67130D01*
X72615Y67037D01*
X72555Y66947D01*
X72496Y66854D01*
X70745Y64234D01*
X70682Y64144D01*
X70622Y64054D01*
X70557Y63966D01*
X70494Y63876D01*
X70428Y63790D01*
X70364Y63702D01*
X70295Y63616D01*
X70229Y63530D01*
X70159Y63447D01*
X70090Y63361D01*
X70019Y63279D01*
X69948Y63196D01*
X69875Y63115D01*
X69803Y63033D01*
X69727Y62954D01*
X69654Y62874D01*
X69577Y62797D01*
X69501Y62718D01*
X67272Y60489D01*
X67193Y60414D01*
X67116Y60337D01*
X67036Y60263D01*
X66957Y60188D01*
X66875Y60116D01*
X66795Y60042D01*
X66711Y59972D01*
X66629Y59900D01*
X66543Y59831D01*
X66460Y59761D01*
X66374Y59696D01*
X66289Y59627D01*
X66200Y59562D01*
X66114Y59496D01*
X66025Y59433D01*
X65937Y59369D01*
X65846Y59308D01*
X65757Y59245D01*
X63136Y57494D01*
X63044Y57436D01*
X62953Y57375D01*
X62860Y57319D01*
X62768Y57260D01*
X62674Y57206D01*
X62580Y57149D01*
X62483Y57096D01*
X62390Y57042D01*
X62294Y56992D01*
X62198Y56939D01*
X62100Y56891D01*
X62003Y56840D01*
X61904Y56794D01*
X61806Y56746D01*
X61706Y56702D01*
X61607Y56656D01*
X61508Y56614D01*
X61407Y56570D01*
X58495Y55364D01*
X58393Y55324D01*
X58292Y55283D01*
X58190Y55245D01*
X58088Y55206D01*
X57986Y55171D01*
X57882Y55133D01*
X57778Y55100D01*
X57675Y55066D01*
X57570Y55035D01*
X57466Y55002D01*
X57421Y54990D01*
X57466Y54978D01*
X57570Y54945D01*
X57675Y54915D01*
X57778Y54880D01*
X57882Y54847D01*
X57985Y54810D01*
X58088Y54774D01*
X58191Y54735D01*
X58292Y54697D01*
X58392Y54656D01*
X58495Y54616D01*
X61407Y53410D01*
X61507Y53366D01*
X61607Y53324D01*
X61706Y53278D01*
X61806Y53234D01*
X61903Y53186D01*
X62003Y53140D01*
X62100Y53089D01*
X62197Y53041D01*
X62293Y52989D01*
X62390Y52938D01*
X62484Y52884D01*
X62580Y52831D01*
X62674Y52775D01*
X62768Y52720D01*
X62860Y52661D01*
X62953Y52605D01*
X63043Y52545D01*
X63136Y52486D01*
X65757Y50735D01*
X65846Y50672D01*
X65937Y50612D01*
X66025Y50547D01*
X66114Y50484D01*
X66200Y50418D01*
X66289Y50354D01*
X66374Y50285D01*
X66460Y50219D01*
X66543Y50149D01*
X66629Y50080D01*
X66711Y50009D01*
X66795Y49938D01*
X66875Y49865D01*
X66957Y49793D01*
X67036Y49717D01*
X67116Y49644D01*
X67193Y49567D01*
X67272Y49491D01*
X69501Y47262D01*
X69577Y47183D01*
X69654Y47106D01*
X69727Y47026D01*
X69803Y46947D01*
X69875Y46865D01*
X69948Y46785D01*
X70019Y46701D01*
X70090Y46619D01*
X70159Y46533D01*
X70229Y46450D01*
X70295Y46364D01*
X70364Y46279D01*
X70428Y46190D01*
X70494Y46104D01*
X70557Y46015D01*
X70622Y45927D01*
X70682Y45836D01*
X70745Y45746D01*
X72496Y43126D01*
X72555Y43034D01*
X72615Y42943D01*
X72672Y42850D01*
X72730Y42758D01*
X72784Y42664D01*
X72841Y42570D01*
X72895Y42473D01*
X72948Y42380D01*
X72998Y42284D01*
X73051Y42188D01*
X73100Y42090D01*
X73150Y41993D01*
X73196Y41894D01*
X73244Y41796D01*
X73289Y41696D01*
X73334Y41597D01*
X73376Y41498D01*
X73420Y41397D01*
X74626Y38485D01*
X74666Y38382D01*
X74707Y38282D01*
X74745Y38180D01*
X74784Y38078D01*
X74819Y37976D01*
X74857Y37872D01*
X74890Y37768D01*
X74925Y37665D01*
X74955Y37560D01*
X74988Y37456D01*
X75016Y37351D01*
X75047Y37246D01*
X75073Y37140D01*
X75101Y37035D01*
X75125Y36928D01*
X75150Y36822D01*
X75172Y36715D01*
X75195Y36609D01*
X75810Y33517D01*
X75829Y33410D01*
X75851Y33303D01*
X75867Y33195D01*
X75886Y33088D01*
X75900Y32980D01*
X75917Y32872D01*
X75929Y32763D01*
X75943Y32655D01*
X75953Y32546D01*
X75964Y32438D01*
X75971Y32329D01*
X75981Y32220D01*
X75986Y32111D01*
X75993Y32002D01*
X75995Y31893D01*
X76000Y31784D01*
Y31675D01*
X76002Y31566D01*
Y29990D01*
Y28414D01*
X76000Y28305D01*
Y28196D01*
X75995Y28087D01*
X75993Y27978D01*
X75986Y27870D01*
X75981Y27760D01*
X75971Y27651D01*
X75964Y27543D01*
X75953Y27434D01*
X75943Y27325D01*
X75929Y27217D01*
X75917Y27109D01*
X75900Y27000D01*
X75886Y26893D01*
X75867Y26785D01*
X75851Y26677D01*
X75829Y26570D01*
X75810Y26463D01*
X75195Y23372D01*
X75172Y23265D01*
X75150Y23158D01*
X75125Y23052D01*
X75101Y22946D01*
X75073Y22841D01*
X75047Y22734D01*
X75016Y22629D01*
X74988Y22524D01*
X74955Y22420D01*
X74925Y22315D01*
X74890Y22212D01*
X74857Y22108D01*
X74820Y22006D01*
X74784Y21902D01*
X74745Y21799D01*
X74707Y21698D01*
X74666Y21598D01*
X74626Y21495D01*
X73420Y18584D01*
X73376Y18483D01*
X73334Y18383D01*
X73288Y18284D01*
X73244Y18184D01*
X73196Y18087D01*
X73150Y17987D01*
X73099Y17890D01*
X73051Y17793D01*
X72999Y17697D01*
X72948Y17600D01*
X72894Y17506D01*
X72841Y17410D01*
X72785Y17317D01*
X72730Y17222D01*
X72671Y17130D01*
X72615Y17037D01*
X72555Y16947D01*
X72496Y16854D01*
X70745Y14234D01*
X70682Y14144D01*
X70622Y14054D01*
X70557Y13966D01*
X70494Y13876D01*
X70428Y13790D01*
X70364Y13702D01*
X70295Y13616D01*
X70229Y13530D01*
X70159Y13447D01*
X70090Y13361D01*
X70019Y13279D01*
X69948Y13196D01*
X69875Y13115D01*
X69803Y13033D01*
X69727Y12954D01*
X69654Y12874D01*
X69577Y12797D01*
X69501Y12718D01*
X67272Y10489D01*
X67193Y10414D01*
X67116Y10337D01*
X67036Y10263D01*
X66957Y10188D01*
X66875Y10116D01*
X66795Y10042D01*
X66711Y9972D01*
X66629Y9900D01*
X66543Y9831D01*
X66460Y9761D01*
X66374Y9696D01*
X66289Y9627D01*
X66200Y9562D01*
X66114Y9496D01*
X66025Y9433D01*
X65937Y9369D01*
X65846Y9308D01*
X65757Y9245D01*
X63136Y7494D01*
X63044Y7436D01*
X62953Y7375D01*
X62860Y7319D01*
X62768Y7260D01*
X62674Y7206D01*
X62580Y7149D01*
X62483Y7096D01*
X62390Y7042D01*
X62294Y6992D01*
X62198Y6939D01*
X62100Y6891D01*
X62003Y6840D01*
X61904Y6794D01*
X61806Y6746D01*
X61706Y6702D01*
X61607Y6656D01*
X61508Y6615D01*
X61407Y6570D01*
X58495Y5364D01*
X58393Y5324D01*
X58292Y5283D01*
X58190Y5245D01*
X58088Y5206D01*
X57986Y5171D01*
X57882Y5133D01*
X57778Y5100D01*
X57675Y5066D01*
X57570Y5035D01*
X57466Y5002D01*
X57361Y4974D01*
X57256Y4943D01*
X57150Y4918D01*
X57045Y4889D01*
X56938Y4866D01*
X56832Y4840D01*
X56726Y4818D01*
X56618Y4795D01*
X53527Y4180D01*
X53419Y4161D01*
X53313Y4140D01*
X53205Y4123D01*
X53098Y4104D01*
X52990Y4090D01*
X52882Y4073D01*
X52773Y4061D01*
X52665Y4047D01*
X52556Y4038D01*
X52448Y4026D01*
X52339Y4019D01*
X52230Y4009D01*
X52121Y4004D01*
X52012Y3997D01*
X51903Y3995D01*
X51794Y3990D01*
X51685D01*
X51576Y3988D01*
X48424D01*
X48315Y3990D01*
X48206D01*
X48097Y3995D01*
X47988Y3997D01*
X47879Y4004D01*
X47770Y4009D01*
X47661Y4019D01*
X47552Y4026D01*
X47444Y4038D01*
X47335Y4047D01*
X47228Y4061D01*
X47119Y4073D01*
X47011Y4090D01*
X46903Y4104D01*
X46795Y4123D01*
X46687Y4140D01*
X46581Y4161D01*
X46473Y4180D01*
X43382Y4795D01*
X43275Y4818D01*
X43168Y4840D01*
X43062Y4866D01*
X42956Y4889D01*
X42851Y4917D01*
X42744Y4943D01*
X42639Y4974D01*
X42534Y5002D01*
X42430Y5035D01*
X42325Y5066D01*
X42222Y5100D01*
X42118Y5133D01*
X42016Y5171D01*
X41912Y5206D01*
X41810Y5246D01*
X41708Y5283D01*
X41608Y5324D01*
X41505Y5364D01*
X38593Y6570D01*
X38493Y6614D01*
X38393Y6656D01*
X38294Y6702D01*
X38194Y6746D01*
X38097Y6794D01*
X37997Y6840D01*
X37900Y6891D01*
X37803Y6939D01*
X37707Y6992D01*
X37610Y7042D01*
X37516Y7096D01*
X37420Y7149D01*
X37327Y7206D01*
X37232Y7260D01*
X37140Y7319D01*
X37047Y7375D01*
X36957Y7436D01*
X36864Y7494D01*
X34244Y9245D01*
X34154Y9308D01*
X34064Y9369D01*
X33976Y9433D01*
X33886Y9496D01*
X33800Y9562D01*
X33712Y9627D01*
X33626Y9696D01*
X33540Y9761D01*
X33457Y9831D01*
X33371Y9900D01*
X33289Y9972D01*
X33206Y10042D01*
X33125Y10116D01*
X33043Y10188D01*
X32964Y10263D01*
X32884Y10337D01*
X32807Y10414D01*
X32728Y10489D01*
X30499Y12718D01*
X30424Y12797D01*
X30347Y12874D01*
X30273Y12954D01*
X30198Y13033D01*
X30126Y13115D01*
X30052Y13196D01*
X29982Y13279D01*
X29910Y13361D01*
X29841Y13447D01*
X29771Y13530D01*
X29706Y13616D01*
X29637Y13702D01*
X29572Y13790D01*
X29506Y13876D01*
X29443Y13966D01*
X29379Y14054D01*
X29318Y14144D01*
X29255Y14234D01*
X27504Y16854D01*
X27446Y16947D01*
X27385Y17037D01*
X27328Y17131D01*
X27270Y17222D01*
X27216Y17316D01*
X27159Y17410D01*
X27106Y17507D01*
X27052Y17600D01*
X27002Y17696D01*
X26949Y17793D01*
X26901Y17890D01*
X26850Y17987D01*
X26804Y18086D01*
X26756Y18184D01*
X26712Y18284D01*
X26666Y18383D01*
X26625Y18483D01*
X26580Y18584D01*
X25374Y21495D01*
X25334Y21598D01*
X25293Y21698D01*
X25255Y21801D01*
X25216Y21902D01*
X25181Y22005D01*
X25143Y22108D01*
X25110Y22213D01*
X25076Y22315D01*
X25045Y22420D01*
X25012Y22524D01*
X24984Y22629D01*
X24953Y22734D01*
X24927Y22840D01*
X24899Y22946D01*
X24876Y23052D01*
X24850Y23158D01*
X24829Y23265D01*
X24805Y23372D01*
X24190Y26463D01*
X24171Y26571D01*
X24150Y26677D01*
X24133Y26785D01*
X24114Y26893D01*
X24100Y27001D01*
X24083Y27109D01*
X24071Y27218D01*
X24057Y27325D01*
X24048Y27434D01*
X24036Y27543D01*
X24029Y27651D01*
X24019Y27760D01*
X24014Y27869D01*
X24007Y27978D01*
X24005Y28087D01*
X24000Y28196D01*
Y28305D01*
X23998Y28414D01*
Y29990D01*
Y31566D01*
X24000Y31675D01*
Y31784D01*
X24005Y31893D01*
X24007Y32002D01*
X24014Y32111D01*
X24019Y32220D01*
X24029Y32329D01*
X24036Y32438D01*
X24048Y32546D01*
X24057Y32655D01*
X24071Y32763D01*
X24083Y32872D01*
X24100Y32980D01*
X24114Y33087D01*
X24133Y33195D01*
X24150Y33303D01*
X24171Y33409D01*
X24190Y33517D01*
X24805Y36609D01*
X24829Y36716D01*
X24850Y36822D01*
X24876Y36928D01*
X24899Y37034D01*
X24927Y37139D01*
X24953Y37246D01*
X24984Y37351D01*
X25012Y37456D01*
X25045Y37560D01*
X25076Y37665D01*
X25110Y37768D01*
X25143Y37872D01*
X25181Y37975D01*
X25216Y38078D01*
X25256Y38181D01*
X25293Y38282D01*
X25334Y38382D01*
X25374Y38485D01*
X26580Y41397D01*
X26624Y41497D01*
X26666Y41597D01*
X26712Y41696D01*
X26756Y41796D01*
X26804Y41893D01*
X26850Y41993D01*
X26901Y42090D01*
X26949Y42188D01*
X27002Y42283D01*
X27052Y42380D01*
X27106Y42474D01*
X27159Y42570D01*
X27215Y42664D01*
X27270Y42758D01*
X27329Y42850D01*
X27385Y42943D01*
X27445Y43033D01*
X27504Y43126D01*
X29255Y45746D01*
X29318Y45836D01*
X29379Y45927D01*
X29443Y46015D01*
X29506Y46104D01*
X29572Y46190D01*
X29637Y46279D01*
X29706Y46364D01*
X29771Y46450D01*
X29841Y46533D01*
X29910Y46619D01*
X29982Y46701D01*
X30052Y46785D01*
X30126Y46865D01*
X30198Y46947D01*
X30273Y47026D01*
X30347Y47106D01*
X30424Y47183D01*
X30499Y47262D01*
X32728Y49491D01*
X32807Y49566D01*
X32884Y49644D01*
X32964Y49717D01*
X33043Y49793D01*
X33125Y49865D01*
X33206Y49938D01*
X33289Y50009D01*
X33371Y50080D01*
X33457Y50149D01*
X33540Y50219D01*
X33626Y50285D01*
X33712Y50354D01*
X33800Y50418D01*
X33886Y50484D01*
X33976Y50547D01*
X34064Y50612D01*
X34154Y50672D01*
X34244Y50735D01*
X36864Y52486D01*
X36957Y52545D01*
X37047Y52605D01*
X37141Y52662D01*
X37232Y52720D01*
X37326Y52774D01*
X37420Y52831D01*
X37517Y52885D01*
X37610Y52938D01*
X37706Y52989D01*
X37803Y53041D01*
X37901Y53090D01*
X37997Y53140D01*
X38096Y53186D01*
X38194Y53234D01*
X38294Y53279D01*
X38393Y53324D01*
X38493Y53366D01*
X38593Y53410D01*
X41505Y54616D01*
X41608Y54656D01*
X41708Y54697D01*
X41810Y54735D01*
X41912Y54774D01*
X42015Y54809D01*
X42118Y54847D01*
X42222Y54880D01*
X42325Y54915D01*
X42430Y54945D01*
X42534Y54978D01*
X42579Y54990D01*
X42534Y55002D01*
X42430Y55035D01*
X42325Y55066D01*
X42222Y55100D01*
X42118Y55133D01*
X42016Y55171D01*
X41912Y55206D01*
X41810Y55246D01*
X41708Y55283D01*
X41608Y55324D01*
X41505Y55364D01*
X38593Y56570D01*
X38493Y56614D01*
X38393Y56656D01*
X38294Y56702D01*
X38194Y56746D01*
X38097Y56794D01*
X37997Y56840D01*
X37900Y56891D01*
X37803Y56939D01*
X37707Y56992D01*
X37610Y57042D01*
X37516Y57096D01*
X37420Y57149D01*
X37327Y57206D01*
X37232Y57260D01*
X37140Y57319D01*
X37047Y57375D01*
X36957Y57435D01*
X36864Y57494D01*
X34244Y59245D01*
X34154Y59308D01*
X34064Y59369D01*
X33976Y59433D01*
X33886Y59496D01*
X33800Y59562D01*
X33712Y59627D01*
X33626Y59696D01*
X33540Y59761D01*
X33457Y59831D01*
X33371Y59900D01*
X33289Y59972D01*
X33206Y60042D01*
X33125Y60116D01*
X33043Y60188D01*
X32964Y60263D01*
X32884Y60337D01*
X32807Y60414D01*
X32728Y60489D01*
X30499Y62718D01*
X30424Y62797D01*
X30347Y62874D01*
X30273Y62954D01*
X30198Y63033D01*
X30126Y63115D01*
X30052Y63196D01*
X29982Y63279D01*
X29910Y63361D01*
X29841Y63447D01*
X29771Y63530D01*
X29706Y63616D01*
X29637Y63702D01*
X29572Y63790D01*
X29506Y63876D01*
X29443Y63966D01*
X29379Y64054D01*
X29318Y64144D01*
X29255Y64234D01*
X27504Y66854D01*
X27446Y66947D01*
X27385Y67037D01*
X27328Y67130D01*
X27270Y67222D01*
X27216Y67316D01*
X27159Y67410D01*
X27106Y67507D01*
X27052Y67600D01*
X27002Y67696D01*
X26949Y67793D01*
X26901Y67891D01*
X26850Y67987D01*
X26804Y68086D01*
X26756Y68184D01*
X26712Y68285D01*
X26666Y68383D01*
X26625Y68483D01*
X26580Y68583D01*
X25374Y71495D01*
X25334Y71598D01*
X25293Y71698D01*
X25255Y71801D01*
X25216Y71902D01*
X25181Y72005D01*
X25143Y72108D01*
X25110Y72213D01*
X25076Y72315D01*
X25045Y72420D01*
X25012Y72524D01*
X24984Y72629D01*
X24953Y72734D01*
X24927Y72840D01*
X24899Y72946D01*
X24876Y73052D01*
X24850Y73158D01*
X24829Y73265D01*
X24805Y73372D01*
X24190Y76463D01*
X24171Y76571D01*
X24150Y76677D01*
X24133Y76785D01*
X24114Y76893D01*
X24100Y77001D01*
X24083Y77109D01*
X24071Y77217D01*
X24057Y77325D01*
X24048Y77434D01*
X24036Y77543D01*
X24029Y77651D01*
X24019Y77760D01*
X24014Y77869D01*
X24007Y77978D01*
X24005Y78087D01*
X24000Y78196D01*
Y78305D01*
X23998Y78414D01*
Y79990D01*
Y81566D01*
X24000Y81675D01*
Y81784D01*
X24005Y81893D01*
X24007Y82002D01*
X24014Y82111D01*
X24019Y82220D01*
X24029Y82329D01*
X24036Y82438D01*
X24048Y82546D01*
X24057Y82655D01*
X24071Y82763D01*
X24083Y82872D01*
X24100Y82979D01*
X24114Y83088D01*
X24133Y83195D01*
X24150Y83303D01*
X24171Y83409D01*
X24190Y83517D01*
X24805Y86608D01*
X24829Y86715D01*
X24850Y86822D01*
X24876Y86928D01*
X24899Y87035D01*
X24927Y87139D01*
X24953Y87246D01*
X24984Y87351D01*
X25012Y87456D01*
X25045Y87560D01*
X25076Y87665D01*
X25110Y87768D01*
X25143Y87872D01*
X25181Y87975D01*
X25216Y88078D01*
X25256Y88181D01*
X25293Y88282D01*
X25334Y88382D01*
X25374Y88485D01*
X26580Y91397D01*
X26624Y91497D01*
X26666Y91597D01*
X26712Y91696D01*
X26756Y91796D01*
X26804Y91893D01*
X26850Y91993D01*
X26901Y92090D01*
X26949Y92188D01*
X27002Y92283D01*
X27052Y92380D01*
X27106Y92474D01*
X27159Y92570D01*
X27215Y92664D01*
X27270Y92758D01*
X27329Y92850D01*
X27385Y92943D01*
X27445Y93034D01*
X27504Y93126D01*
X29255Y95746D01*
X29318Y95836D01*
X29379Y95927D01*
X29443Y96015D01*
X29506Y96104D01*
X29572Y96190D01*
X29637Y96279D01*
X29706Y96364D01*
X29771Y96450D01*
X29841Y96533D01*
X29910Y96619D01*
X29982Y96701D01*
X30052Y96785D01*
X30126Y96865D01*
X30198Y96947D01*
X30273Y97026D01*
X30347Y97106D01*
X30424Y97183D01*
X30499Y97262D01*
X32728Y99491D01*
X32807Y99566D01*
X32884Y99643D01*
X32964Y99717D01*
X33043Y99793D01*
X33125Y99865D01*
X33206Y99938D01*
X33289Y100008D01*
X33371Y100080D01*
X33457Y100149D01*
X33540Y100219D01*
X33626Y100285D01*
X33712Y100354D01*
X33800Y100418D01*
X33886Y100485D01*
X33976Y100547D01*
X34064Y100612D01*
X34154Y100672D01*
X34244Y100735D01*
X36864Y102486D01*
X36957Y102545D01*
X37047Y102605D01*
X37141Y102662D01*
X37232Y102720D01*
X37326Y102774D01*
X37420Y102831D01*
X37517Y102885D01*
X37610Y102938D01*
X37706Y102989D01*
X37803Y103041D01*
X37901Y103090D01*
X37997Y103140D01*
X38096Y103186D01*
X38194Y103234D01*
X38294Y103279D01*
X38393Y103324D01*
X38493Y103366D01*
X38593Y103410D01*
X41505Y104616D01*
X41608Y104656D01*
X41708Y104698D01*
X41810Y104735D01*
X41912Y104774D01*
X42015Y104809D01*
X42118Y104847D01*
X42222Y104880D01*
X42325Y104915D01*
X42430Y104945D01*
X42534Y104978D01*
X42639Y105006D01*
X42744Y105037D01*
X42850Y105063D01*
X42956Y105091D01*
X43062Y105115D01*
X43168Y105140D01*
X43275Y105162D01*
X43382Y105185D01*
X46473Y105800D01*
X46581Y105819D01*
X46687Y105841D01*
X46795Y105857D01*
X46903Y105876D01*
X47010Y105890D01*
X47119Y105907D01*
X47227Y105919D01*
X47335Y105933D01*
X47444Y105943D01*
X47552Y105954D01*
X47661Y105962D01*
X47770Y105971D01*
X47880Y105976D01*
X47988Y105983D01*
X48097Y105985D01*
X48206Y105990D01*
X48315D01*
X48424Y105992D01*
X51576D01*
X51685Y105990D01*
D02*
G37*
D74*
X820218Y487680D02*
D03*
X855218D02*
D03*
X461518D02*
D03*
X426518D02*
D03*
X658730Y488042D02*
D03*
X623730D02*
D03*
D75*
X757178Y641350D02*
D03*
X782578D02*
D03*
X807978Y640715D02*
D03*
X560328Y641350D02*
D03*
X585728D02*
D03*
X611128Y640715D02*
D03*
X363478Y641350D02*
D03*
X388878D02*
D03*
X414278Y640715D02*
D03*
D76*
X757178Y615950D02*
D03*
X782578D02*
D03*
X807978Y615315D02*
D03*
X560328Y615950D02*
D03*
X585728D02*
D03*
X611128Y615315D02*
D03*
X363478Y615950D02*
D03*
X388878D02*
D03*
X414278Y615315D02*
D03*
D77*
X719078Y774700D02*
D03*
Y749300D02*
D03*
Y723900D02*
D03*
Y698500D02*
D03*
Y673100D02*
D03*
Y647700D02*
D03*
Y622300D02*
D03*
Y596900D02*
D03*
X846078Y774700D02*
D03*
Y749300D02*
D03*
Y723900D02*
D03*
Y698500D02*
D03*
Y673100D02*
D03*
Y647700D02*
D03*
Y622300D02*
D03*
Y596900D02*
D03*
X522228Y774700D02*
D03*
Y749300D02*
D03*
Y723900D02*
D03*
Y698500D02*
D03*
Y673100D02*
D03*
Y647700D02*
D03*
Y622300D02*
D03*
Y596900D02*
D03*
X649228Y774700D02*
D03*
Y749300D02*
D03*
Y723900D02*
D03*
Y698500D02*
D03*
Y673100D02*
D03*
Y647700D02*
D03*
Y622300D02*
D03*
Y596900D02*
D03*
X325378Y774700D02*
D03*
Y749300D02*
D03*
Y723900D02*
D03*
Y698500D02*
D03*
Y673100D02*
D03*
Y647700D02*
D03*
Y622300D02*
D03*
Y596900D02*
D03*
X452378Y774700D02*
D03*
Y749300D02*
D03*
Y723900D02*
D03*
Y698500D02*
D03*
Y673100D02*
D03*
Y647700D02*
D03*
Y622300D02*
D03*
Y596900D02*
D03*
D78*
X938530Y182880D02*
D03*
Y302880D02*
D03*
X816530Y182880D02*
D03*
Y302880D02*
D03*
X796530Y242880D02*
D03*
D79*
X937260Y53740D02*
D03*
Y374584D02*
D03*
D80*
Y103740D02*
D03*
Y424584D02*
D03*
D81*
X64370Y665480D02*
D03*
X65400Y745480D02*
D03*
D82*
X496049Y49932D02*
D03*
Y74932D02*
D03*
X568519D02*
D03*
Y49932D02*
D03*
X640989Y75232D02*
D03*
Y50232D02*
D03*
X278640Y49932D02*
D03*
Y74932D02*
D03*
X351110Y49932D02*
D03*
Y74932D02*
D03*
X423579Y49932D02*
D03*
Y74932D02*
D03*
X398580Y829140D02*
D03*
X348580D02*
D03*
X373580D02*
D03*
X570430D02*
D03*
X545430D02*
D03*
X595430D02*
D03*
X792280D02*
D03*
X742280D02*
D03*
X767280D02*
D03*
D83*
X496049Y99932D02*
D03*
X568519D02*
D03*
X640989Y100232D02*
D03*
X278640Y99932D02*
D03*
X351110D02*
D03*
X423579D02*
D03*
D84*
X805404Y106165D02*
D03*
D85*
X758404Y76165D02*
D03*
D86*
Y136165D02*
D03*
D87*
X57475Y223210D02*
D03*
Y165410D02*
D03*
D88*
X62475Y151110D02*
D03*
Y237510D02*
D03*
D89*
X20675Y151110D02*
D03*
Y237510D02*
D03*
D90*
X423580Y829140D02*
D03*
X620430D02*
D03*
X817280D02*
D03*
D91*
X181705Y132236D02*
D03*
X755142Y30226D02*
D03*
X149098Y43434D02*
D03*
X96774Y81788D02*
D03*
X156718Y542036D02*
D03*
X129540Y538046D02*
D03*
X255270Y698500D02*
D03*
X853440Y542290D02*
D03*
X215900Y296672D02*
D03*
X372110Y312420D02*
D03*
X467360Y317500D02*
D03*
X242570Y344170D02*
D03*
X368300Y341630D02*
D03*
X873760Y412750D02*
D03*
X302260Y848360D02*
D03*
X885190Y838200D02*
D03*
X689610Y791210D02*
D03*
X690880Y849630D02*
D03*
X488950Y781050D02*
D03*
X485140Y843280D02*
D03*
X458470Y543560D02*
D03*
X544830Y589280D02*
D03*
X198120Y372110D02*
D03*
X210820Y373380D02*
D03*
X209550Y384810D02*
D03*
X229870Y379730D02*
D03*
X217424Y285942D02*
D03*
X242570Y381508D02*
D03*
X601980Y372110D02*
D03*
Y363220D02*
D03*
X544830Y520700D02*
D03*
X349250D02*
D03*
X130810Y563880D02*
D03*
X81280Y562610D02*
D03*
X118110Y326390D02*
D03*
X62230Y337820D02*
D03*
X196850Y189230D02*
D03*
X99205Y186109D02*
D03*
X121920Y572770D02*
D03*
X111944Y585470D02*
D03*
X86360D02*
D03*
X114300Y295910D02*
D03*
X83820D02*
D03*
X83781Y326351D02*
D03*
X904240Y509270D02*
D03*
X970280Y566420D02*
D03*
X922020Y631190D02*
D03*
X908050Y702310D02*
D03*
X976630Y648970D02*
D03*
X924560Y783590D02*
D03*
X960120Y833120D02*
D03*
X796290Y492760D02*
D03*
X654050Y539750D02*
D03*
X600710Y473710D02*
D03*
X429260Y407670D02*
D03*
X387350Y420370D02*
D03*
X836168Y118110D02*
D03*
X820000Y20000D02*
D03*
X382270Y22860D02*
D03*
X308610Y16510D02*
D03*
X457200Y15240D02*
D03*
X523240Y17780D02*
D03*
X598170Y15240D02*
D03*
X675640Y19050D02*
D03*
X688340Y80010D02*
D03*
X679450Y142240D02*
D03*
X642620Y167640D02*
D03*
X566420Y149860D02*
D03*
X521970Y140970D02*
D03*
X505460Y175260D02*
D03*
X452120Y229870D02*
D03*
X417830Y276860D02*
D03*
X405130Y228600D02*
D03*
X373380Y255270D02*
D03*
X353060Y224790D02*
D03*
X316230Y243840D02*
D03*
X130810Y255270D02*
D03*
X78740Y254000D02*
D03*
X40640Y264160D02*
D03*
X7620Y275590D02*
D03*
X218440Y82550D02*
D03*
X204470Y22860D02*
D03*
X158496Y94234D02*
D03*
X97282Y28448D02*
D03*
X20000Y30000D02*
D03*
Y90000D02*
D03*
X223520Y624840D02*
D03*
X280670Y640080D02*
D03*
X293370Y758190D02*
D03*
X224790Y787400D02*
D03*
X217170Y850900D02*
D03*
X128270Y840740D02*
D03*
X50800Y852170D02*
D03*
X538480Y227330D02*
D03*
X392430Y538480D02*
D03*
X384810Y580390D02*
D03*
X782320Y538480D02*
D03*
X778510Y580390D02*
D03*
X866140Y336550D02*
D03*
Y351790D02*
D03*
X867410Y367030D02*
D03*
X499110Y222250D02*
D03*
X487680Y264160D02*
D03*
X608330Y279400D02*
D03*
X621030Y294640D02*
D03*
X386080Y325120D02*
D03*
X369570Y285750D02*
D03*
X355600Y271780D02*
D03*
X335280Y265430D02*
D03*
X430530Y143510D02*
D03*
X444500Y132080D02*
D03*
X396240D02*
D03*
X383540Y143510D02*
D03*
X345440Y129540D02*
D03*
X331470Y142240D02*
D03*
X297180Y132080D02*
D03*
X284480Y142240D02*
D03*
X188214Y158242D02*
D03*
X118872Y139954D02*
D03*
X96520Y120650D02*
D03*
X62230Y118110D02*
D03*
X20320D02*
D03*
X11430Y299720D02*
D03*
X48260Y285750D02*
D03*
X11430Y339090D02*
D03*
X10160Y542290D02*
D03*
X209550Y695960D02*
D03*
X208280Y717550D02*
D03*
X189230Y728980D02*
D03*
X725170Y356870D02*
D03*
X706628Y453390D02*
D03*
X509578Y451812D02*
D03*
X470317Y379313D02*
D03*
X617220Y440690D02*
D03*
X105537Y628650D02*
D03*
X111852Y636178D02*
D03*
X100330Y621030D02*
D03*
X716280Y334010D02*
D03*
X152400Y278130D02*
D03*
X194310Y273050D02*
D03*
X368300Y384810D02*
D03*
X494030Y440690D02*
D03*
X462280Y378460D02*
D03*
X463488Y386968D02*
D03*
X391160Y440690D02*
D03*
X498802Y451812D02*
D03*
X504190Y457200D02*
D03*
X690880Y440690D02*
D03*
X695960Y466090D02*
D03*
X701548Y459486D02*
D03*
X593058Y372912D02*
D03*
X601980Y351790D02*
D03*
X599440Y541020D02*
D03*
Y557530D02*
D03*
X574040Y332740D02*
D03*
X743420Y582891D02*
D03*
Y521581D02*
D03*
X796290Y557530D02*
D03*
Y541020D02*
D03*
X349720Y582891D02*
D03*
X187960Y582930D02*
D03*
X106091Y579755D02*
D03*
X402590Y541020D02*
D03*
Y557530D02*
D03*
X100330Y574040D02*
D03*
X187960Y608330D02*
D03*
X99060Y289560D02*
D03*
X86360Y312420D02*
D03*
X82550Y695960D02*
D03*
X132080D02*
D03*
X153670Y162560D02*
D03*
D92*
X165100Y240030D02*
D03*
X170240Y233680D02*
D03*
X190500Y240030D02*
D03*
X193040Y231140D02*
D03*
M02*
