M48
;Layer_Color=9474304
;FILE_FORMAT=4:4
METRIC
;TYPE=PLATED
T01F00S00C0.3048
T03F00S00C0.8636
T04F00S00C0.8890
T05F00S00C1.0000
T07F00S00C1.2500
T08F00S00C1.3970
T09F00S00C1.4000
;TYPE=NON_PLATED
T10F00S00C0.6500
%
T01
X00457200Y00015240
X00523240Y00017780
X00598170Y00015240
X00675640Y00019050
X00820000Y00020000
X00382270Y00022860
X00308610Y00016510
X00204470Y00022860
X00020000Y00030000
Y00090000
X00020320Y00118110
X00007620Y00275590
X00011430Y00299720
Y00339090
X00062230Y00337820
X00083781Y00326351
X00086360Y00312420
X00083820Y00295910
X00099060Y00289560
X00114300Y00295910
X00118110Y00326390
X00152400Y00278130
X00130810Y00255270
X00165100Y00240030
X00170240Y00233680
X00193040Y00231140
X00190500Y00240030
X00194310Y00273050
X00217424Y00285942
X00215900Y00296672
X00242570Y00344170
Y00381508
X00229870Y00379730
X00210820Y00373380
X00209550Y00384810
X00198120Y00372110
X00368300Y00384810
Y00341630
X00372110Y00312420
X00386080Y00325120
X00369570Y00285750
X00355600Y00271780
X00335280Y00265430
X00316230Y00243840
X00353060Y00224790
X00373380Y00255270
X00405130Y00228600
X00417830Y00276860
X00396240Y00132080
X00383540Y00143510
X00345440Y00129540
X00331470Y00142240
X00297180Y00132080
X00284480Y00142240
X00188214Y00158242
X00181705Y00132236
X00153670Y00162560
X00118872Y00139954
X00096520Y00120650
X00062230Y00118110
X00096774Y00081788
X00097282Y00028448
X00149098Y00043434
X00158496Y00094234
X00218440Y00082550
X00196850Y00189230
X00099205Y00186109
X00078740Y00254000
X00040640Y00264160
X00048260Y00285750
X00387350Y00420370
X00429260Y00407670
X00463488Y00386968
X00462280Y00378460
X00470317Y00379313
X00467360Y00317500
X00487680Y00264160
X00499110Y00222250
X00538480Y00227330
X00505460Y00175260
X00521970Y00140970
X00566420Y00149860
X00642620Y00167640
X00679450Y00142240
X00688340Y00080010
X00755142Y00030226
X00716280Y00334010
X00725170Y00356870
X00601980Y00351790
Y00363220
Y00372110
X00593058Y00372912
X00574040Y00332740
X00621030Y00294640
X00608330Y00279400
X00452120Y00229870
X00444500Y00132080
X00430530Y00143510
X00836168Y00118110
X00866140Y00336550
Y00351790
X00867410Y00367030
X00873760Y00412750
X00904240Y00509270
X00853440Y00542290
X00970280Y00566420
X00976630Y00648970
X00922020Y00631190
X00908050Y00702310
X00924560Y00783590
X00689610Y00791210
X00488950Y00781050
X00544830Y00589280
Y00520700
X00599440Y00541020
Y00557530
X00654050Y00539750
X00743420Y00521581
X00782320Y00538480
X00796290Y00541020
Y00557530
X00778510Y00580390
X00743420Y00582891
X00796290Y00492760
X00695960Y00466090
X00701548Y00459486
X00706628Y00453390
X00690880Y00440690
X00617220
X00600710Y00473710
X00504190Y00457200
X00509578Y00451812
X00498802
X00494030Y00440690
X00458470Y00543560
X00402590Y00541020
X00392430Y00538480
X00402590Y00557530
X00384810Y00580390
X00349720Y00582891
X00349250Y00520700
X00391160Y00440690
X00280670Y00640080
X00223520Y00624840
X00187960Y00608330
Y00582930
X00156718Y00542036
X00129540Y00538046
X00130810Y00563880
X00121920Y00572770
X00111944Y00585470
X00106091Y00579755
X00100330Y00574040
X00086360Y00585470
X00081280Y00562610
X00100330Y00621030
X00105537Y00628650
X00111852Y00636178
X00132080Y00695960
X00082550
X00209550
X00208280Y00717550
X00189230Y00728980
X00224790Y00787400
X00293370Y00758190
X00255270Y00698500
X00010160Y00542290
X00050800Y00852170
X00128270Y00840740
X00217170Y00850900
X00302260Y00848360
X00485140Y00843280
X00690880Y00849630
X00885190Y00838200
X00960120Y00833120
T03
X00855218Y00487680
X00820218
X00658730Y00488042
X00623730
X00461518Y00487680
X00426518
T04
X00560328Y00615950
Y00641350
X00585728
Y00615950
X00611128Y00615315
Y00640715
X00757178Y00641350
Y00615950
X00782578
Y00641350
X00807978Y00640715
Y00615315
X00414278
Y00640715
X00388878Y00641350
X00363478
Y00615950
X00388878
T05
X00278640Y00049932
Y00074932
Y00099932
X00351110
Y00074932
Y00049932
X00423579
Y00074932
Y00099932
X00496049
Y00074932
Y00049932
X00568519
Y00074932
Y00099932
X00640989Y00100232
Y00075232
Y00050232
X00064370Y00665480
X00065400Y00745480
X00348580Y00829140
X00373580
X00398580
X00423580
X00545430
X00570430
X00595430
X00620430
X00742280
X00767280
X00792280
X00817280
T07
X00846078Y00596900
Y00622300
Y00647700
Y00673100
Y00698500
Y00723900
Y00749300
Y00774700
X00719078
Y00749300
Y00723900
Y00698500
Y00673100
Y00647700
Y00622300
Y00596900
X00649228
Y00622300
Y00647700
Y00673100
Y00698500
Y00723900
Y00749300
Y00774700
X00522228
Y00749300
Y00723900
Y00698500
Y00673100
Y00647700
Y00622300
Y00596900
X00452378
Y00622300
Y00647700
Y00673100
Y00698500
Y00723900
Y00749300
Y00774700
X00325378
Y00749300
Y00723900
Y00698500
Y00673100
Y00647700
Y00622300
Y00596900
T08
X00816530Y00182880
X00796530Y00242880
X00816530Y00302880
X00938530
Y00182880
T09
X00937260Y00053740
Y00103740
Y00374584
Y00424584
T10
X00057475Y00165410
Y00223210
M30
