G04*
G04 #@! TF.GenerationSoftware,Altium Limited,Altium Designer,24.10.1 (45)*
G04*
G04 Layer_Color=65535*
%FSLAX44Y44*%
%MOMM*%
G71*
G04*
G04 #@! TF.SameCoordinates,0EDCD7A5-6BC7-414E-B131-C269EAA69737*
G04*
G04*
G04 #@! TF.FilePolarity,Positive*
G04*
G01*
G75*
%ADD10C,0.1524*%
%ADD11C,0.2032*%
%ADD12C,0.1270*%
%ADD13C,0.2000*%
%ADD14C,0.1000*%
%ADD15C,0.2540*%
%ADD16C,0.3810*%
G36*
X666904Y340538D02*
Y340300D01*
Y340062D01*
Y339824D01*
Y339585D01*
Y339347D01*
Y339109D01*
Y338871D01*
Y338633D01*
Y338394D01*
Y338156D01*
Y337918D01*
Y337680D01*
Y337441D01*
Y337203D01*
Y336965D01*
Y336727D01*
Y336488D01*
Y336250D01*
Y336012D01*
Y335774D01*
Y335535D01*
Y335297D01*
Y335059D01*
Y334821D01*
Y334582D01*
Y334344D01*
Y334106D01*
Y333868D01*
Y333629D01*
Y333391D01*
Y333153D01*
Y332915D01*
Y332676D01*
Y332438D01*
Y332200D01*
Y331962D01*
Y331724D01*
Y331485D01*
Y331247D01*
Y331009D01*
Y330770D01*
Y330532D01*
Y330294D01*
X667142D01*
Y330056D01*
Y329818D01*
X667380D01*
Y329579D01*
X667142D01*
Y329341D01*
Y329103D01*
Y328865D01*
Y328626D01*
Y328388D01*
Y328150D01*
Y327912D01*
Y327673D01*
Y327435D01*
Y327197D01*
Y326959D01*
Y326720D01*
X667380D01*
Y326482D01*
Y326244D01*
Y326006D01*
Y325767D01*
Y325529D01*
Y325291D01*
Y325053D01*
Y324814D01*
Y324576D01*
Y324338D01*
X667619D01*
Y324100D01*
Y323862D01*
Y323623D01*
Y323385D01*
Y323147D01*
Y322909D01*
X668095D01*
Y322670D01*
X667857D01*
Y322432D01*
Y322194D01*
Y321955D01*
Y321717D01*
X668095D01*
Y321479D01*
Y321241D01*
Y321003D01*
Y320764D01*
Y320526D01*
X668333D01*
Y320288D01*
Y320050D01*
Y319811D01*
Y319573D01*
Y319335D01*
X668572D01*
Y319097D01*
Y318858D01*
Y318620D01*
Y318382D01*
X669048D01*
Y318144D01*
X668810D01*
Y317905D01*
Y317667D01*
Y317429D01*
X669048D01*
Y317191D01*
Y316952D01*
Y316714D01*
X669286D01*
Y316476D01*
Y316238D01*
Y315999D01*
X669525D01*
Y315761D01*
Y315523D01*
Y315285D01*
X669763D01*
Y315047D01*
Y314808D01*
Y314570D01*
X670001D01*
Y314332D01*
Y314093D01*
Y313855D01*
X670239D01*
Y313617D01*
Y313379D01*
X670478D01*
Y313141D01*
Y312902D01*
Y312664D01*
X670716D01*
Y312426D01*
Y312188D01*
X670954D01*
Y311949D01*
Y311711D01*
Y311473D01*
X671192D01*
Y311235D01*
Y310996D01*
X671431D01*
Y310758D01*
Y310520D01*
X671669D01*
Y310282D01*
Y310043D01*
X671907D01*
Y309805D01*
Y309567D01*
X672145D01*
Y309329D01*
Y309090D01*
X672383D01*
Y308852D01*
Y308614D01*
X672860D01*
Y308376D01*
X672622D01*
Y308137D01*
X672860D01*
Y307899D01*
Y307661D01*
X673098D01*
Y307423D01*
Y307185D01*
X673336D01*
Y306946D01*
Y306708D01*
X673575D01*
Y306470D01*
X673813D01*
Y306231D01*
Y305993D01*
X674051D01*
Y305755D01*
Y305517D01*
X674289D01*
Y305278D01*
X674528D01*
Y305040D01*
Y304802D01*
X674766D01*
Y304564D01*
Y304326D01*
X675004D01*
Y304087D01*
X675242D01*
Y303849D01*
Y303611D01*
X675481D01*
Y303372D01*
Y303134D01*
X675719D01*
Y302896D01*
X675957D01*
Y302658D01*
Y302420D01*
X676195D01*
Y302181D01*
X676434D01*
Y301943D01*
Y301705D01*
X676672D01*
Y301467D01*
X676910D01*
Y301228D01*
Y300990D01*
X677148D01*
Y300752D01*
X677387D01*
Y300514D01*
Y300275D01*
X677625D01*
Y300037D01*
X677863D01*
Y299799D01*
Y299561D01*
X678101D01*
Y299322D01*
X678340D01*
Y299084D01*
Y298846D01*
X678578D01*
Y298608D01*
X678816D01*
Y298369D01*
Y298131D01*
X679054D01*
Y297893D01*
X679293D01*
Y297655D01*
Y297416D01*
X679531D01*
Y297178D01*
X679769D01*
Y296940D01*
Y296702D01*
X680007D01*
Y296464D01*
X680246D01*
Y296225D01*
Y295987D01*
X680484D01*
Y295749D01*
X680722D01*
Y295511D01*
Y295272D01*
X680960D01*
Y295034D01*
X681199D01*
Y294796D01*
X681437D01*
Y294557D01*
Y294319D01*
X681675D01*
Y294081D01*
X681913D01*
Y293843D01*
Y293605D01*
X682151D01*
Y293366D01*
X682390D01*
Y293128D01*
X682628D01*
Y292890D01*
Y292652D01*
X682866D01*
Y292413D01*
Y292175D01*
X683104D01*
Y291937D01*
Y291699D01*
X683343D01*
Y291460D01*
X683581D01*
Y291222D01*
Y290984D01*
X683819D01*
Y290746D01*
Y290507D01*
X684057D01*
Y290269D01*
Y290031D01*
X684296D01*
Y289793D01*
Y289554D01*
X684534D01*
Y289316D01*
Y289078D01*
X684772D01*
Y288840D01*
Y288601D01*
X685010D01*
Y288363D01*
Y288125D01*
X685249D01*
Y287887D01*
Y287649D01*
X685487D01*
Y287410D01*
Y287172D01*
X685725D01*
Y286934D01*
Y286695D01*
X685963D01*
Y286457D01*
Y286219D01*
Y285981D01*
X686202D01*
Y285742D01*
Y285504D01*
X686440D01*
Y285266D01*
Y285028D01*
Y284790D01*
X686678D01*
Y284551D01*
Y284313D01*
Y284075D01*
X686916D01*
Y283837D01*
Y283598D01*
X687155D01*
Y283360D01*
Y283122D01*
Y282884D01*
Y282645D01*
X687393D01*
Y282407D01*
Y282169D01*
Y281931D01*
X687631D01*
Y281692D01*
Y281454D01*
Y281216D01*
X687869D01*
Y280978D01*
Y280739D01*
Y280501D01*
Y280263D01*
X688108D01*
Y280025D01*
Y279786D01*
Y279548D01*
Y279310D01*
X688584D01*
Y279072D01*
X688346D01*
Y278834D01*
Y278595D01*
Y278357D01*
X688584D01*
Y278119D01*
Y277880D01*
Y277642D01*
Y277404D01*
Y277166D01*
X688822D01*
Y276928D01*
Y276689D01*
Y276451D01*
Y276213D01*
Y275975D01*
Y275736D01*
Y275498D01*
X689061D01*
Y275260D01*
X689299D01*
Y275022D01*
X689061D01*
Y274783D01*
Y274545D01*
Y274307D01*
Y274069D01*
Y273830D01*
Y273592D01*
Y273354D01*
X689299D01*
Y273116D01*
Y272877D01*
Y272639D01*
Y272401D01*
Y272163D01*
Y271924D01*
Y271686D01*
Y271448D01*
Y271210D01*
Y270972D01*
Y270733D01*
Y270495D01*
Y270257D01*
Y270019D01*
Y269780D01*
Y269542D01*
Y269304D01*
Y269065D01*
Y268827D01*
Y268589D01*
Y268351D01*
Y268113D01*
Y267874D01*
Y267636D01*
Y267398D01*
Y267160D01*
Y266921D01*
Y266683D01*
Y266445D01*
Y266207D01*
Y265968D01*
X689537D01*
Y265730D01*
X689299D01*
Y265492D01*
Y265254D01*
Y265015D01*
X689061D01*
Y264777D01*
Y264539D01*
Y264301D01*
Y264062D01*
Y263824D01*
Y263586D01*
Y263348D01*
X688822D01*
Y263109D01*
Y262871D01*
Y262633D01*
Y262395D01*
Y262157D01*
Y261918D01*
Y261680D01*
X688584D01*
Y261442D01*
Y261203D01*
Y260965D01*
Y260727D01*
Y260489D01*
X688346D01*
Y260250D01*
Y260012D01*
Y259774D01*
X688584D01*
Y259536D01*
X688346D01*
Y259298D01*
X688108D01*
Y259059D01*
Y258821D01*
Y258583D01*
Y258345D01*
Y258106D01*
X687869D01*
Y257868D01*
Y257630D01*
X688108D01*
Y257392D01*
X687631D01*
Y257153D01*
Y256915D01*
Y256677D01*
X687393D01*
Y256439D01*
Y256200D01*
Y255962D01*
Y255724D01*
X687155D01*
Y255486D01*
Y255247D01*
Y255009D01*
X686916D01*
Y254771D01*
Y254533D01*
Y254294D01*
X686678D01*
Y254056D01*
Y253818D01*
X686440D01*
Y253580D01*
Y253342D01*
Y253103D01*
X686202D01*
Y252865D01*
Y252627D01*
X685963D01*
Y252388D01*
Y252150D01*
Y251912D01*
X685725D01*
Y251674D01*
Y251436D01*
X685487D01*
Y251197D01*
Y250959D01*
Y250721D01*
X685249D01*
Y250483D01*
Y250244D01*
X685010D01*
Y250006D01*
Y249768D01*
X684772D01*
Y249530D01*
Y249291D01*
X684534D01*
Y249053D01*
Y248815D01*
X684296D01*
Y248577D01*
Y248338D01*
X684057D01*
Y248100D01*
Y247862D01*
X683819D01*
Y247624D01*
X683581D01*
Y247385D01*
Y247147D01*
X683343D01*
Y246909D01*
Y246671D01*
X683104D01*
Y246432D01*
X682866D01*
Y246194D01*
Y245956D01*
X682628D01*
Y245718D01*
X682390D01*
Y245479D01*
Y245241D01*
X682151D01*
Y245003D01*
Y244765D01*
X681913D01*
Y244527D01*
X681675D01*
Y244288D01*
Y244050D01*
X681437D01*
Y243812D01*
X681199D01*
Y243573D01*
X681437D01*
Y243335D01*
X681199D01*
Y243573D01*
X680960D01*
Y243335D01*
Y243097D01*
X680722D01*
Y242859D01*
X680484D01*
Y242621D01*
Y242382D01*
X680246D01*
Y242144D01*
X680007D01*
Y242382D01*
Y242621D01*
Y242859D01*
Y243097D01*
Y243335D01*
Y243573D01*
Y243812D01*
Y244050D01*
Y244288D01*
Y244527D01*
Y244765D01*
Y245003D01*
Y245241D01*
Y245479D01*
Y245718D01*
Y245956D01*
Y246194D01*
Y246432D01*
Y246671D01*
Y246909D01*
Y247147D01*
Y247385D01*
Y247624D01*
Y247862D01*
Y248100D01*
Y248338D01*
Y248577D01*
Y248815D01*
Y249053D01*
Y249291D01*
Y249530D01*
Y249768D01*
Y250006D01*
Y250244D01*
Y250483D01*
Y250721D01*
Y250959D01*
Y251197D01*
Y251436D01*
Y251674D01*
X679769D01*
Y251912D01*
Y252150D01*
Y252388D01*
X679531D01*
Y252627D01*
X679769D01*
Y252865D01*
X679531D01*
Y253103D01*
X679769D01*
Y253342D01*
Y253580D01*
Y253818D01*
Y254056D01*
Y254294D01*
Y254533D01*
Y254771D01*
Y255009D01*
X679531D01*
Y255247D01*
Y255486D01*
Y255724D01*
Y255962D01*
Y256200D01*
Y256439D01*
Y256677D01*
Y256915D01*
Y257153D01*
X679293D01*
Y257392D01*
Y257630D01*
Y257868D01*
Y258106D01*
Y258345D01*
Y258583D01*
X679054D01*
Y258821D01*
X678816D01*
Y259059D01*
X679054D01*
Y259298D01*
Y259536D01*
Y259774D01*
Y260012D01*
X678816D01*
Y260250D01*
Y260489D01*
Y260727D01*
Y260965D01*
Y261203D01*
X678578D01*
Y261442D01*
Y261680D01*
Y261918D01*
Y262157D01*
X678340D01*
Y262395D01*
Y262633D01*
Y262871D01*
Y263109D01*
X678101D01*
Y263348D01*
Y263586D01*
Y263824D01*
Y264062D01*
X677863D01*
Y264301D01*
Y264539D01*
Y264777D01*
X677625D01*
Y265015D01*
Y265254D01*
Y265492D01*
X677387D01*
Y265730D01*
Y265968D01*
Y266207D01*
X677148D01*
Y266445D01*
Y266683D01*
X676672D01*
Y266921D01*
X676910D01*
Y267160D01*
Y267398D01*
X676434D01*
Y267636D01*
X676672D01*
Y267874D01*
Y268113D01*
X676434D01*
Y268351D01*
Y268589D01*
X676195D01*
Y268827D01*
Y269065D01*
X675957D01*
Y269304D01*
Y269542D01*
X675719D01*
Y269780D01*
Y270019D01*
Y270257D01*
X675481D01*
Y270495D01*
Y270733D01*
X675242D01*
Y270972D01*
Y271210D01*
X675004D01*
Y271448D01*
Y271686D01*
X674766D01*
Y271924D01*
Y272163D01*
X674528D01*
Y272401D01*
Y272639D01*
X674289D01*
Y272877D01*
X674051D01*
Y273116D01*
Y273354D01*
X673575D01*
Y273592D01*
X673813D01*
Y273830D01*
X673575D01*
Y274069D01*
Y274307D01*
X673336D01*
Y274545D01*
Y274783D01*
X673098D01*
Y275022D01*
Y275260D01*
X672860D01*
Y275498D01*
X672622D01*
Y275736D01*
Y275975D01*
X672383D01*
Y276213D01*
Y276451D01*
X672145D01*
Y276689D01*
X671669D01*
Y276928D01*
X671907D01*
Y277166D01*
X671669D01*
Y277404D01*
Y277642D01*
X671431D01*
Y277880D01*
X671192D01*
Y278119D01*
Y278357D01*
X670954D01*
Y278595D01*
Y278834D01*
X670716D01*
Y279072D01*
X670478D01*
Y279310D01*
Y279548D01*
X670239D01*
Y279786D01*
Y280025D01*
X670001D01*
Y280263D01*
X669763D01*
Y280501D01*
Y280739D01*
X669525D01*
Y280978D01*
Y281216D01*
X669286D01*
Y281454D01*
X669048D01*
Y281692D01*
Y281931D01*
X668810D01*
Y282169D01*
Y282407D01*
X668572D01*
Y282645D01*
X668333D01*
Y282884D01*
Y283122D01*
X668095D01*
Y283360D01*
Y283598D01*
X667857D01*
Y283837D01*
X667619D01*
Y284075D01*
Y284313D01*
X667380D01*
Y284551D01*
Y284790D01*
X667142D01*
Y285028D01*
X666904D01*
Y285266D01*
Y285504D01*
X666666D01*
Y285742D01*
X666427D01*
Y285981D01*
Y286219D01*
X666189D01*
Y286457D01*
X665951D01*
Y286695D01*
Y286934D01*
X665713D01*
Y287172D01*
X665474D01*
Y287410D01*
Y287649D01*
X665236D01*
Y287887D01*
X664998D01*
Y288125D01*
Y288363D01*
X664760D01*
Y288601D01*
X664521D01*
Y288840D01*
Y289078D01*
X664283D01*
Y289316D01*
X664045D01*
Y289554D01*
Y289793D01*
X663807D01*
Y290031D01*
Y290269D01*
X663568D01*
Y290507D01*
X663330D01*
Y290746D01*
Y290984D01*
X663092D01*
Y291222D01*
Y291460D01*
X662854D01*
Y291699D01*
Y291937D01*
X662616D01*
Y292175D01*
Y292413D01*
X662377D01*
Y292652D01*
Y292890D01*
X662139D01*
Y293128D01*
Y293366D01*
X661901D01*
Y293605D01*
Y293843D01*
X661663D01*
Y294081D01*
Y294319D01*
X661424D01*
Y294557D01*
Y294796D01*
X661186D01*
Y295034D01*
Y295272D01*
Y295511D01*
X660948D01*
Y295749D01*
Y295987D01*
X660710D01*
Y296225D01*
Y296464D01*
X660471D01*
Y296702D01*
Y296940D01*
X660233D01*
Y297178D01*
Y297416D01*
Y297655D01*
X659995D01*
Y297893D01*
Y298131D01*
X659757D01*
Y298369D01*
Y298608D01*
Y298846D01*
X659518D01*
Y299084D01*
Y299322D01*
X659042D01*
Y299561D01*
X659280D01*
Y299799D01*
Y300037D01*
X659042D01*
Y300275D01*
Y300514D01*
Y300752D01*
X658804D01*
Y300990D01*
Y301228D01*
Y301467D01*
X658565D01*
Y301705D01*
Y301943D01*
Y302181D01*
X658327D01*
Y302420D01*
Y302658D01*
Y302896D01*
X658089D01*
Y303134D01*
Y303372D01*
Y303611D01*
X657851D01*
Y303849D01*
Y304087D01*
Y304326D01*
Y304564D01*
X657612D01*
Y304802D01*
Y305040D01*
Y305278D01*
Y305517D01*
X657374D01*
Y305755D01*
Y305993D01*
Y306231D01*
Y306470D01*
Y306708D01*
X656898D01*
Y306946D01*
X657136D01*
Y307185D01*
Y307423D01*
Y307661D01*
X656898D01*
Y307899D01*
Y308137D01*
Y308376D01*
Y308614D01*
Y308852D01*
Y309090D01*
X656659D01*
Y309329D01*
Y309567D01*
Y309805D01*
Y310043D01*
Y310282D01*
Y310520D01*
X656421D01*
Y310758D01*
Y310996D01*
Y311235D01*
Y311473D01*
Y311711D01*
Y311949D01*
Y312188D01*
X656183D01*
Y312426D01*
Y312664D01*
X655945D01*
Y312902D01*
X656183D01*
Y313141D01*
X655945D01*
Y313379D01*
X656183D01*
Y313617D01*
Y313855D01*
Y314093D01*
Y314332D01*
Y314570D01*
Y314808D01*
Y315047D01*
Y315285D01*
Y315523D01*
Y315761D01*
Y315999D01*
Y316238D01*
Y316476D01*
Y316714D01*
Y316952D01*
Y317191D01*
Y317429D01*
Y317667D01*
Y317905D01*
Y318144D01*
Y318382D01*
Y318620D01*
Y318858D01*
Y319097D01*
Y319335D01*
Y319573D01*
X655945D01*
Y319811D01*
X656183D01*
Y320050D01*
X655945D01*
Y320288D01*
X656183D01*
Y320526D01*
X656421D01*
Y320764D01*
Y321003D01*
Y321241D01*
Y321479D01*
Y321717D01*
Y321955D01*
Y322194D01*
Y322432D01*
X656659D01*
Y322670D01*
Y322909D01*
Y323147D01*
Y323385D01*
X656421D01*
Y323623D01*
X656659D01*
Y323862D01*
X656898D01*
Y324100D01*
Y324338D01*
Y324576D01*
Y324814D01*
X657136D01*
Y325053D01*
Y325291D01*
Y325529D01*
Y325767D01*
X657374D01*
Y326006D01*
Y326244D01*
Y326482D01*
X657612D01*
Y326720D01*
Y326959D01*
Y327197D01*
X657851D01*
Y327435D01*
Y327673D01*
Y327912D01*
X658089D01*
Y328150D01*
Y328388D01*
Y328626D01*
X658327D01*
Y328865D01*
Y329103D01*
X658565D01*
Y329341D01*
Y329579D01*
Y329818D01*
X658804D01*
Y330056D01*
Y330294D01*
X659042D01*
Y330532D01*
Y330770D01*
X659280D01*
Y331009D01*
Y331247D01*
X659042D01*
Y331485D01*
X659280D01*
Y331247D01*
X659518D01*
Y331485D01*
Y331724D01*
X659757D01*
Y331962D01*
Y332200D01*
X659995D01*
Y332438D01*
Y332676D01*
X660233D01*
Y332915D01*
Y333153D01*
X660471D01*
Y333391D01*
X660233D01*
Y333629D01*
X660471D01*
Y333391D01*
X660710D01*
Y333629D01*
Y333868D01*
X660948D01*
Y334106D01*
Y334344D01*
X661186D01*
Y334582D01*
X661424D01*
Y334821D01*
X661186D01*
Y335059D01*
X661663D01*
Y335297D01*
X661901D01*
Y335535D01*
X661663D01*
Y335774D01*
X661901D01*
Y335535D01*
X662139D01*
Y335774D01*
Y336012D01*
X662377D01*
Y336250D01*
X662616D01*
Y336488D01*
X662854D01*
Y336727D01*
Y336965D01*
X663092D01*
Y337203D01*
X663330D01*
Y337441D01*
X663568D01*
Y337680D01*
X663807D01*
Y337918D01*
Y338156D01*
X664045D01*
Y338394D01*
X664283D01*
Y338633D01*
X664521D01*
Y338871D01*
X664760D01*
Y339109D01*
Y339347D01*
X665236D01*
Y339585D01*
X665474D01*
Y339824D01*
Y340062D01*
X665713D01*
Y339824D01*
X665951D01*
Y340062D01*
X666189D01*
Y340300D01*
X666427D01*
Y340538D01*
X666666D01*
Y340777D01*
X666904D01*
Y340538D01*
D02*
G37*
G36*
X683819Y353880D02*
Y353642D01*
Y353404D01*
Y353165D01*
Y352927D01*
X684057D01*
Y352689D01*
Y352451D01*
Y352212D01*
Y351974D01*
Y351736D01*
Y351498D01*
Y351259D01*
X684296D01*
Y351021D01*
Y350783D01*
Y350545D01*
Y350307D01*
Y350068D01*
Y349830D01*
X684534D01*
Y349592D01*
Y349353D01*
Y349115D01*
Y348877D01*
Y348639D01*
X685010D01*
Y348400D01*
X684772D01*
Y348162D01*
Y347924D01*
Y347686D01*
X685010D01*
Y347448D01*
Y347209D01*
Y346971D01*
Y346733D01*
X685249D01*
Y346495D01*
X685487D01*
Y346256D01*
X685249D01*
Y346018D01*
X685487D01*
Y345780D01*
Y345542D01*
Y345303D01*
Y345065D01*
X685725D01*
Y344827D01*
Y344589D01*
Y344350D01*
X685963D01*
Y344112D01*
Y343874D01*
X686440D01*
Y343636D01*
X686202D01*
Y343397D01*
Y343159D01*
X686678D01*
Y342921D01*
X686440D01*
Y342683D01*
Y342444D01*
X686678D01*
Y342206D01*
Y341968D01*
X687155D01*
Y341730D01*
X686916D01*
Y341492D01*
Y341253D01*
X687155D01*
Y341015D01*
Y340777D01*
Y340538D01*
X687631D01*
Y340300D01*
X687393D01*
Y340062D01*
X687631D01*
Y339824D01*
Y339585D01*
X688108D01*
Y339347D01*
X687869D01*
Y339109D01*
X688108D01*
Y338871D01*
Y338633D01*
Y338394D01*
X688584D01*
Y338156D01*
X688346D01*
Y337918D01*
X688584D01*
Y337680D01*
Y337441D01*
X688822D01*
Y337203D01*
Y336965D01*
X689299D01*
Y336727D01*
X689061D01*
Y336488D01*
X689299D01*
Y336250D01*
Y336012D01*
Y335774D01*
X689775D01*
Y335535D01*
X689537D01*
Y335297D01*
X690014D01*
Y335059D01*
X689775D01*
Y334821D01*
X690014D01*
Y334582D01*
Y334344D01*
X690252D01*
Y334106D01*
Y333868D01*
X690490D01*
Y333629D01*
Y333391D01*
X690728D01*
Y333153D01*
Y332915D01*
X690966D01*
Y332676D01*
Y332438D01*
X691205D01*
Y332200D01*
Y331962D01*
X691681D01*
Y331724D01*
X691443D01*
Y331485D01*
X691681D01*
Y331247D01*
Y331009D01*
X692158D01*
Y330770D01*
X691919D01*
Y330532D01*
X692158D01*
Y330294D01*
Y330056D01*
Y329818D01*
X692396D01*
Y329579D01*
Y329341D01*
X692634D01*
Y329103D01*
Y328865D01*
X693111D01*
Y328626D01*
X692872D01*
Y328388D01*
X693349D01*
Y328150D01*
X693111D01*
Y327912D01*
X693349D01*
Y327673D01*
Y327435D01*
X693587D01*
Y327197D01*
Y326959D01*
X693825D01*
Y326720D01*
Y326482D01*
X694302D01*
Y326244D01*
X694064D01*
Y326006D01*
Y325767D01*
X694302D01*
Y325529D01*
Y325291D01*
X694540D01*
Y325053D01*
Y324814D01*
X694778D01*
Y324576D01*
Y324338D01*
X695017D01*
Y324100D01*
Y323862D01*
Y323623D01*
X695255D01*
Y323385D01*
Y323147D01*
X695493D01*
Y322909D01*
Y322670D01*
X695731D01*
Y322432D01*
Y322194D01*
Y321955D01*
X695970D01*
Y321717D01*
Y321479D01*
Y321241D01*
X696208D01*
Y321003D01*
Y320764D01*
X696684D01*
Y320526D01*
X696446D01*
Y320288D01*
Y320050D01*
X696923D01*
Y319811D01*
X696684D01*
Y319573D01*
Y319335D01*
X696923D01*
Y319097D01*
X697161D01*
Y318858D01*
X696923D01*
Y318620D01*
X697161D01*
Y318382D01*
Y318144D01*
Y317905D01*
Y317667D01*
X697637D01*
Y317429D01*
Y317191D01*
X697399D01*
Y316952D01*
Y316714D01*
X697876D01*
Y316476D01*
X697637D01*
Y316238D01*
Y315999D01*
Y315761D01*
X697876D01*
Y315523D01*
X698114D01*
Y315285D01*
X697876D01*
Y315047D01*
Y314808D01*
Y314570D01*
X698114D01*
Y314332D01*
Y314093D01*
Y313855D01*
Y313617D01*
Y313379D01*
Y313141D01*
Y312902D01*
Y312664D01*
Y312426D01*
Y312188D01*
Y311949D01*
X698352D01*
Y311711D01*
X698114D01*
Y311473D01*
X698352D01*
Y311235D01*
X698114D01*
Y310996D01*
Y310758D01*
Y310520D01*
X697876D01*
Y310282D01*
Y310043D01*
Y309805D01*
Y309567D01*
X698114D01*
Y309329D01*
X697876D01*
Y309090D01*
X697637D01*
Y308852D01*
Y308614D01*
Y308376D01*
X697399D01*
Y308137D01*
Y307899D01*
X697161D01*
Y307661D01*
Y307423D01*
Y307185D01*
X696923D01*
Y306946D01*
X697161D01*
Y306708D01*
X696684D01*
Y306470D01*
X696923D01*
Y306231D01*
X696446D01*
Y305993D01*
X696684D01*
Y305755D01*
X696208D01*
Y305517D01*
X695970D01*
Y305278D01*
X696208D01*
Y305040D01*
X695731D01*
Y304802D01*
X695970D01*
Y304564D01*
X695493D01*
Y304326D01*
X695255D01*
Y304087D01*
X695017D01*
Y303849D01*
Y303611D01*
Y303372D01*
X694540D01*
Y303134D01*
X694302D01*
Y302896D01*
X694064D01*
Y302658D01*
X693825D01*
Y302420D01*
Y302181D01*
X693587D01*
Y301943D01*
X693349D01*
Y301705D01*
X693111D01*
Y301467D01*
X692872D01*
Y301228D01*
X692634D01*
Y300990D01*
X692396D01*
Y300752D01*
X692158D01*
Y300514D01*
X691681D01*
Y300275D01*
X691443D01*
Y300037D01*
Y299799D01*
X690966D01*
Y299561D01*
X690490D01*
Y299322D01*
X690252D01*
Y299084D01*
X690014D01*
Y298846D01*
X689775D01*
Y298608D01*
X689061D01*
Y298846D01*
X689299D01*
Y299084D01*
X689537D01*
Y299322D01*
Y299561D01*
Y299799D01*
Y300037D01*
Y300275D01*
Y300514D01*
Y300752D01*
Y300990D01*
X689299D01*
Y301228D01*
X689537D01*
Y301467D01*
Y301705D01*
Y301943D01*
Y302181D01*
Y302420D01*
Y302658D01*
Y302896D01*
Y303134D01*
Y303372D01*
Y303611D01*
Y303849D01*
X689299D01*
Y304087D01*
Y304326D01*
X689537D01*
Y304564D01*
Y304802D01*
Y305040D01*
Y305278D01*
Y305517D01*
Y305755D01*
Y305993D01*
X689299D01*
Y306231D01*
X689061D01*
Y306470D01*
Y306708D01*
X689299D01*
Y306946D01*
Y307185D01*
X689061D01*
Y307423D01*
X688822D01*
Y307661D01*
X689061D01*
Y307899D01*
Y308137D01*
Y308376D01*
X688822D01*
Y308614D01*
Y308852D01*
Y309090D01*
Y309329D01*
X688584D01*
Y309567D01*
X688346D01*
Y309805D01*
X688584D01*
Y310043D01*
Y310282D01*
X688346D01*
Y310520D01*
Y310758D01*
Y310996D01*
X688108D01*
Y311235D01*
Y311473D01*
Y311711D01*
X687869D01*
Y311949D01*
Y312188D01*
Y312426D01*
X687631D01*
Y312664D01*
Y312902D01*
X687393D01*
Y313141D01*
Y313379D01*
X687155D01*
Y313617D01*
Y313855D01*
Y314093D01*
X686916D01*
Y314332D01*
Y314570D01*
X686678D01*
Y314808D01*
Y315047D01*
X686202D01*
Y315285D01*
X686440D01*
Y315523D01*
X685963D01*
Y315761D01*
X686202D01*
Y315999D01*
Y316238D01*
X685963D01*
Y316476D01*
Y316714D01*
X685725D01*
Y316952D01*
Y317191D01*
X685487D01*
Y317429D01*
X685249D01*
Y317667D01*
Y317905D01*
X684772D01*
Y318144D01*
X685010D01*
Y318382D01*
X684772D01*
Y318620D01*
Y318858D01*
X684534D01*
Y319097D01*
Y319335D01*
X684057D01*
Y319573D01*
X684296D01*
Y319811D01*
X684057D01*
Y320050D01*
Y320288D01*
X683819D01*
Y320526D01*
X683581D01*
Y320764D01*
Y321003D01*
X683343D01*
Y321241D01*
Y321479D01*
X683104D01*
Y321717D01*
Y321955D01*
X682866D01*
Y322194D01*
Y322432D01*
X682628D01*
Y322670D01*
X682151D01*
Y322909D01*
X682390D01*
Y323147D01*
X682151D01*
Y323385D01*
Y323623D01*
X681675D01*
Y323862D01*
X681913D01*
Y324100D01*
X681675D01*
Y324338D01*
X681199D01*
Y324576D01*
X681437D01*
Y324814D01*
X680960D01*
Y325053D01*
X681199D01*
Y325291D01*
X680960D01*
Y325529D01*
Y325767D01*
X680722D01*
Y326006D01*
Y326244D01*
X680246D01*
Y326482D01*
X680484D01*
Y326720D01*
X680246D01*
Y326959D01*
X679769D01*
Y327197D01*
X680007D01*
Y327435D01*
X679531D01*
Y327673D01*
X679769D01*
Y327912D01*
X679531D01*
Y328150D01*
Y328388D01*
X679293D01*
Y328626D01*
Y328865D01*
X679054D01*
Y329103D01*
Y329341D01*
X678816D01*
Y329579D01*
Y329818D01*
X678578D01*
Y330056D01*
Y330294D01*
X678101D01*
Y330532D01*
X678340D01*
Y330770D01*
X677863D01*
Y331009D01*
X678101D01*
Y331247D01*
Y331485D01*
X677625D01*
Y331724D01*
X677863D01*
Y331962D01*
X677625D01*
Y332200D01*
Y332438D01*
X677148D01*
Y332676D01*
X677387D01*
Y332915D01*
Y333153D01*
X677148D01*
Y333391D01*
Y333629D01*
Y333868D01*
X676910D01*
Y334106D01*
Y334344D01*
Y334582D01*
Y334821D01*
X676672D01*
Y335059D01*
Y335297D01*
Y335535D01*
Y335774D01*
Y336012D01*
X676434D01*
Y336250D01*
Y336488D01*
Y336727D01*
X676195D01*
Y336965D01*
X676434D01*
Y337203D01*
Y337441D01*
Y337680D01*
Y337918D01*
Y338156D01*
X676195D01*
Y338394D01*
Y338633D01*
Y338871D01*
Y339109D01*
X675957D01*
Y339347D01*
X676195D01*
Y339585D01*
Y339824D01*
Y340062D01*
X676434D01*
Y340300D01*
Y340538D01*
Y340777D01*
Y341015D01*
Y341253D01*
Y341492D01*
X676195D01*
Y341730D01*
Y341968D01*
X676434D01*
Y342206D01*
X676672D01*
Y342444D01*
Y342683D01*
Y342921D01*
Y343159D01*
Y343397D01*
X676910D01*
Y343636D01*
Y343874D01*
Y344112D01*
X677148D01*
Y344350D01*
Y344589D01*
Y344827D01*
Y345065D01*
X677387D01*
Y345303D01*
X677148D01*
Y345542D01*
Y345780D01*
X677625D01*
Y346018D01*
Y346256D01*
X677863D01*
Y346495D01*
Y346733D01*
X678101D01*
Y346971D01*
X677863D01*
Y347209D01*
X678340D01*
Y347448D01*
Y347686D01*
X678578D01*
Y347924D01*
X678340D01*
Y348162D01*
X678816D01*
Y348400D01*
Y348639D01*
X679054D01*
Y348877D01*
X679293D01*
Y349115D01*
X679054D01*
Y349353D01*
X679531D01*
Y349592D01*
X679293D01*
Y349830D01*
X679531D01*
Y350068D01*
X680007D01*
Y350307D01*
X680246D01*
Y350545D01*
Y350783D01*
X680484D01*
Y351021D01*
X680722D01*
Y351259D01*
X680960D01*
Y351498D01*
X681199D01*
Y351736D01*
X681437D01*
Y351974D01*
Y352212D01*
X681675D01*
Y352451D01*
X681913D01*
Y352689D01*
X682151D01*
Y352927D01*
X682390D01*
Y353165D01*
X682866D01*
Y353404D01*
X683104D01*
Y353642D01*
X683343D01*
Y353880D01*
X683581D01*
Y354118D01*
X683819D01*
Y353880D01*
D02*
G37*
G36*
X654515Y288601D02*
Y288363D01*
Y288125D01*
Y287887D01*
X654753D01*
Y287649D01*
X654515D01*
Y287410D01*
Y287172D01*
X654753D01*
Y286934D01*
Y286695D01*
Y286457D01*
Y286219D01*
Y285981D01*
X654992D01*
Y285742D01*
Y285504D01*
Y285266D01*
Y285028D01*
X655230D01*
Y284790D01*
Y284551D01*
Y284313D01*
Y284075D01*
X655706D01*
Y283837D01*
X655468D01*
Y283598D01*
Y283360D01*
Y283122D01*
X655706D01*
Y282884D01*
Y282645D01*
Y282407D01*
X655945D01*
Y282169D01*
Y281931D01*
Y281692D01*
X656183D01*
Y281454D01*
X656421D01*
Y281216D01*
X656183D01*
Y280978D01*
X656421D01*
Y280739D01*
Y280501D01*
Y280263D01*
X656659D01*
Y280025D01*
Y279786D01*
Y279548D01*
X656898D01*
Y279310D01*
Y279072D01*
X657136D01*
Y278834D01*
Y278595D01*
X657612D01*
Y278357D01*
X657374D01*
Y278119D01*
Y277880D01*
X657851D01*
Y277642D01*
X657612D01*
Y277404D01*
X657851D01*
Y277166D01*
Y276928D01*
X658089D01*
Y276689D01*
Y276451D01*
X658327D01*
Y276213D01*
Y275975D01*
X658565D01*
Y275736D01*
Y275498D01*
X658804D01*
Y275260D01*
Y275022D01*
X659042D01*
Y274783D01*
Y274545D01*
X659280D01*
Y274307D01*
Y274069D01*
X659518D01*
Y273830D01*
Y273592D01*
X659757D01*
Y273354D01*
Y273116D01*
X659995D01*
Y272877D01*
Y272639D01*
X660471D01*
Y272401D01*
X660233D01*
Y272163D01*
X660471D01*
Y271924D01*
Y271686D01*
X660710D01*
Y271448D01*
Y271210D01*
X660948D01*
Y270972D01*
X661424D01*
Y270733D01*
X661186D01*
Y270495D01*
X661424D01*
Y270257D01*
Y270019D01*
X661663D01*
Y269780D01*
Y269542D01*
X662139D01*
Y269304D01*
X661901D01*
Y269065D01*
X662139D01*
Y268827D01*
X662616D01*
Y268589D01*
X662377D01*
Y268351D01*
X662616D01*
Y268113D01*
Y267874D01*
X662854D01*
Y267636D01*
Y267398D01*
X663330D01*
Y267160D01*
X663092D01*
Y266921D01*
X663330D01*
Y266683D01*
X663807D01*
Y266445D01*
X663568D01*
Y266207D01*
X663807D01*
Y265968D01*
Y265730D01*
X664045D01*
Y265492D01*
Y265254D01*
X664521D01*
Y265015D01*
X664283D01*
Y264777D01*
X664521D01*
Y264539D01*
X664998D01*
Y264301D01*
X664760D01*
Y264062D01*
X664998D01*
Y263824D01*
Y263586D01*
X665236D01*
Y263348D01*
Y263109D01*
X665713D01*
Y262871D01*
X665474D01*
Y262633D01*
X665713D01*
Y262395D01*
X665951D01*
Y262157D01*
Y261918D01*
X666189D01*
Y261680D01*
Y261442D01*
X666427D01*
Y261203D01*
Y260965D01*
X666666D01*
Y260727D01*
Y260489D01*
X666904D01*
Y260250D01*
Y260012D01*
X667142D01*
Y259774D01*
Y259536D01*
X667380D01*
Y259298D01*
Y259059D01*
X667619D01*
Y258821D01*
Y258583D01*
X667857D01*
Y258345D01*
Y258106D01*
X668095D01*
Y257868D01*
Y257630D01*
Y257392D01*
X668333D01*
Y257153D01*
Y256915D01*
X668810D01*
Y256677D01*
X668572D01*
Y256439D01*
Y256200D01*
X669048D01*
Y255962D01*
X668810D01*
Y255724D01*
X669048D01*
Y255486D01*
Y255247D01*
X669286D01*
Y255009D01*
Y254771D01*
Y254533D01*
X669525D01*
Y254294D01*
Y254056D01*
X669763D01*
Y253818D01*
X670001D01*
Y253580D01*
X669763D01*
Y253342D01*
X670239D01*
Y253103D01*
X670001D01*
Y252865D01*
Y252627D01*
X670239D01*
Y252388D01*
X670478D01*
Y252150D01*
X670239D01*
Y251912D01*
X670478D01*
Y251674D01*
Y251436D01*
Y251197D01*
Y250959D01*
X670716D01*
Y250721D01*
Y250483D01*
Y250244D01*
Y250006D01*
Y249768D01*
X670954D01*
Y249530D01*
Y249291D01*
Y249053D01*
Y248815D01*
Y248577D01*
X671192D01*
Y248338D01*
Y248100D01*
Y247862D01*
Y247624D01*
Y247385D01*
Y247147D01*
X670954D01*
Y246909D01*
Y246671D01*
Y246432D01*
X671192D01*
Y246194D01*
X670954D01*
Y245956D01*
Y245718D01*
X670716D01*
Y245479D01*
Y245241D01*
Y245003D01*
X670954D01*
Y244765D01*
X670716D01*
Y244527D01*
Y244288D01*
X670478D01*
Y244050D01*
Y243812D01*
Y243573D01*
X670239D01*
Y243335D01*
Y243097D01*
X670478D01*
Y242859D01*
X670001D01*
Y242621D01*
Y242382D01*
Y242144D01*
X669763D01*
Y241906D01*
Y241667D01*
X669525D01*
Y241429D01*
X669763D01*
Y241191D01*
X669286D01*
Y240953D01*
Y240715D01*
X669048D01*
Y240476D01*
X668810D01*
Y240238D01*
X669048D01*
Y240000D01*
X668572D01*
Y239762D01*
Y239523D01*
X668333D01*
Y239285D01*
X668095D01*
Y239047D01*
X668333D01*
Y238809D01*
X668095D01*
Y238570D01*
X667619D01*
Y238332D01*
X667380D01*
Y238094D01*
X667142D01*
Y237856D01*
X667380D01*
Y237617D01*
X666904D01*
Y237379D01*
Y237141D01*
X666427D01*
Y236903D01*
X666189D01*
Y236664D01*
X665951D01*
Y236426D01*
X665713D01*
Y236188D01*
X665474D01*
Y235950D01*
X665236D01*
Y235711D01*
X664998D01*
Y235473D01*
X664760D01*
Y235235D01*
X664521D01*
Y234997D01*
X664283D01*
Y234758D01*
Y234520D01*
X663568D01*
Y234282D01*
X663330D01*
Y234044D01*
X663092D01*
Y233806D01*
X662854D01*
Y233567D01*
X662616D01*
Y233806D01*
Y234044D01*
Y234282D01*
X662854D01*
Y234520D01*
Y234758D01*
Y234997D01*
Y235235D01*
Y235473D01*
Y235711D01*
Y235950D01*
Y236188D01*
Y236426D01*
Y236664D01*
Y236903D01*
Y237141D01*
Y237379D01*
Y237617D01*
Y237856D01*
Y238094D01*
Y238332D01*
X662616D01*
Y238570D01*
Y238809D01*
Y239047D01*
Y239285D01*
Y239523D01*
Y239762D01*
Y240000D01*
Y240238D01*
X662377D01*
Y240476D01*
X662139D01*
Y240715D01*
X662377D01*
Y240953D01*
Y241191D01*
Y241429D01*
X662139D01*
Y241667D01*
Y241906D01*
Y242144D01*
Y242382D01*
X661901D01*
Y242621D01*
Y242859D01*
Y243097D01*
Y243335D01*
X661424D01*
Y243573D01*
Y243812D01*
X661663D01*
Y244050D01*
Y244288D01*
X661424D01*
Y244527D01*
Y244765D01*
Y245003D01*
X660948D01*
Y245241D01*
X661186D01*
Y245479D01*
Y245718D01*
X660710D01*
Y245956D01*
X660948D01*
Y246194D01*
X660471D01*
Y246432D01*
X660710D01*
Y246671D01*
Y246909D01*
X660233D01*
Y247147D01*
X660471D01*
Y247385D01*
X660233D01*
Y247624D01*
Y247862D01*
X659995D01*
Y248100D01*
Y248338D01*
X659757D01*
Y248577D01*
Y248815D01*
X659518D01*
Y249053D01*
Y249291D01*
X659280D01*
Y249530D01*
Y249768D01*
X658804D01*
Y250006D01*
X659042D01*
Y250244D01*
X658565D01*
Y250483D01*
X658804D01*
Y250721D01*
X658565D01*
Y250959D01*
Y251197D01*
X658327D01*
Y251436D01*
X658089D01*
Y251674D01*
Y251912D01*
X657612D01*
Y252150D01*
X657851D01*
Y252388D01*
X657612D01*
Y252627D01*
X657374D01*
Y252865D01*
Y253103D01*
X656898D01*
Y253342D01*
X657136D01*
Y253580D01*
X656898D01*
Y253818D01*
X656659D01*
Y254056D01*
Y254294D01*
X656183D01*
Y254533D01*
X656421D01*
Y254771D01*
X656183D01*
Y255009D01*
X655945D01*
Y255247D01*
Y255486D01*
X655706D01*
Y255724D01*
X655468D01*
Y255962D01*
Y256200D01*
X654992D01*
Y256439D01*
X655230D01*
Y256677D01*
X654992D01*
Y256915D01*
X654753D01*
Y257153D01*
Y257392D01*
X654515D01*
Y257630D01*
X654277D01*
Y257868D01*
Y258106D01*
X654039D01*
Y258345D01*
X653562D01*
Y258583D01*
X653801D01*
Y258821D01*
X653324D01*
Y259059D01*
X653562D01*
Y259298D01*
X653324D01*
Y259536D01*
X653086D01*
Y259774D01*
Y260012D01*
X652848D01*
Y260250D01*
X652609D01*
Y260489D01*
Y260727D01*
X652371D01*
Y260965D01*
Y261203D01*
X652133D01*
Y261442D01*
X651656D01*
Y261680D01*
X651895D01*
Y261918D01*
X651656D01*
Y262157D01*
Y262395D01*
X651418D01*
Y262633D01*
X650942D01*
Y262871D01*
X651180D01*
Y263109D01*
X650942D01*
Y263348D01*
Y263586D01*
X650703D01*
Y263824D01*
Y264062D01*
X650465D01*
Y264301D01*
Y264539D01*
X650227D01*
Y264777D01*
X649750D01*
Y265015D01*
X649989D01*
Y265254D01*
X649750D01*
Y265492D01*
Y265730D01*
X649274D01*
Y265968D01*
X649512D01*
Y266207D01*
X649036D01*
Y266445D01*
X649274D01*
Y266683D01*
X649036D01*
Y266921D01*
Y267160D01*
Y267398D01*
X648559D01*
Y267636D01*
X648797D01*
Y267874D01*
Y268113D01*
X648559D01*
Y268351D01*
Y268589D01*
Y268827D01*
X648083D01*
Y269065D01*
Y269304D01*
X648321D01*
Y269542D01*
X648083D01*
Y269780D01*
Y270019D01*
Y270257D01*
Y270495D01*
X647844D01*
Y270733D01*
X647606D01*
Y270972D01*
X647844D01*
Y271210D01*
Y271448D01*
Y271686D01*
Y271924D01*
X647606D01*
Y272163D01*
Y272401D01*
X647368D01*
Y272639D01*
X647606D01*
Y272877D01*
Y273116D01*
Y273354D01*
Y273592D01*
Y273830D01*
Y274069D01*
Y274307D01*
Y274545D01*
Y274783D01*
Y275022D01*
Y275260D01*
Y275498D01*
X647368D01*
Y275736D01*
X647606D01*
Y275975D01*
Y276213D01*
Y276451D01*
Y276689D01*
Y276928D01*
X647844D01*
Y277166D01*
Y277404D01*
Y277642D01*
Y277880D01*
X647606D01*
Y278119D01*
X647844D01*
Y278357D01*
X648083D01*
Y278595D01*
Y278834D01*
Y279072D01*
Y279310D01*
X648321D01*
Y279548D01*
X648083D01*
Y279786D01*
X648321D01*
Y280025D01*
X648559D01*
Y280263D01*
Y280501D01*
X648321D01*
Y280739D01*
X648797D01*
Y280978D01*
X648559D01*
Y281216D01*
X649036D01*
Y281454D01*
Y281692D01*
Y281931D01*
X649274D01*
Y282169D01*
X649036D01*
Y282407D01*
X649274D01*
Y282645D01*
X649512D01*
Y282884D01*
X649750D01*
Y283122D01*
Y283360D01*
X649989D01*
Y283598D01*
Y283837D01*
X650227D01*
Y284075D01*
Y284313D01*
X650465D01*
Y284551D01*
X650703D01*
Y284790D01*
X650465D01*
Y285028D01*
X650703D01*
Y285266D01*
X651180D01*
Y285504D01*
X650942D01*
Y285742D01*
X651180D01*
Y285504D01*
X651418D01*
Y285742D01*
Y285981D01*
X651656D01*
Y286219D01*
X651895D01*
Y286457D01*
X652133D01*
Y286695D01*
X652371D01*
Y286934D01*
Y287172D01*
X652609D01*
Y287410D01*
X652848D01*
Y287649D01*
Y287887D01*
X653324D01*
Y288125D01*
X653562D01*
Y288363D01*
Y288601D01*
X653801D01*
Y288363D01*
X654039D01*
Y288601D01*
X654277D01*
Y288840D01*
X654515D01*
Y288601D01*
D02*
G37*
G36*
X977900Y763270D02*
X910324D01*
Y849630D01*
X977900D01*
Y763270D01*
D02*
G37*
G36*
Y675640D02*
X910324D01*
Y762000D01*
X977900D01*
Y675640D01*
D02*
G37*
G36*
Y588010D02*
X910211D01*
Y674370D01*
X977900D01*
Y588010D01*
D02*
G37*
G36*
X665646Y830841D02*
Y821108D01*
X660333D01*
Y830888D01*
X651259Y848753D01*
X656807D01*
X661086Y840291D01*
X662966Y836012D01*
X664800Y840197D01*
X668843Y848753D01*
X674626D01*
X665646Y830841D01*
D02*
G37*
G36*
X869337Y844663D02*
X856548Y825951D01*
X869525D01*
Y821249D01*
X850060D01*
Y825105D01*
X862708Y844193D01*
X850483D01*
Y848894D01*
X869337D01*
Y844663D01*
D02*
G37*
G36*
X469360Y835307D02*
X477823Y821108D01*
X471523D01*
X466304Y831264D01*
X460991Y821108D01*
X454362D01*
X463060Y835448D01*
X455209Y848753D01*
X461367D01*
X466163Y839162D01*
X471147Y848753D01*
X477259D01*
X469360Y835307D01*
D02*
G37*
G36*
X968841Y503479D02*
X965881Y502337D01*
Y498249D01*
X968841Y497192D01*
Y495825D01*
X959086Y499546D01*
Y500956D01*
X968841Y504945D01*
Y503479D01*
D02*
G37*
G36*
X964231Y495219D02*
X964415D01*
X964626Y495204D01*
X964837Y495176D01*
X965317Y495134D01*
X965824Y495063D01*
X966303Y494965D01*
X966543Y494894D01*
X966755Y494824D01*
X966769D01*
X966797Y494810D01*
X966853Y494781D01*
X966938Y494753D01*
X967022Y494711D01*
X967135Y494655D01*
X967375Y494514D01*
X967643Y494344D01*
X967925Y494147D01*
X968193Y493893D01*
X968432Y493611D01*
Y493597D01*
X968460Y493569D01*
X968488Y493527D01*
X968517Y493470D01*
X968559Y493386D01*
X968615Y493301D01*
X968672Y493189D01*
X968714Y493076D01*
X968827Y492808D01*
X968925Y492484D01*
X968982Y492131D01*
X969010Y491736D01*
Y491624D01*
X968996Y491553D01*
Y491455D01*
X968982Y491342D01*
X968925Y491074D01*
X968855Y490778D01*
X968742Y490468D01*
X968587Y490158D01*
X968488Y490003D01*
X968376Y489862D01*
X968362Y489847D01*
X968348Y489833D01*
X968305Y489791D01*
X968263Y489749D01*
X968193Y489692D01*
X968108Y489622D01*
X967911Y489481D01*
X967657Y489340D01*
X967347Y489199D01*
X966994Y489086D01*
X966585Y489002D01*
X966487Y490158D01*
X966501D01*
X966529Y490172D01*
X966557D01*
X966614Y490186D01*
X966769Y490228D01*
X966938Y490285D01*
X967135Y490355D01*
X967333Y490454D01*
X967516Y490566D01*
X967671Y490707D01*
X967685Y490722D01*
X967727Y490778D01*
X967784Y490877D01*
X967840Y490989D01*
X967911Y491144D01*
X967967Y491328D01*
X968009Y491539D01*
X968023Y491765D01*
Y491863D01*
X968009Y491962D01*
X967995Y492089D01*
X967967Y492244D01*
X967925Y492399D01*
X967868Y492568D01*
X967784Y492723D01*
X967770Y492737D01*
X967741Y492794D01*
X967685Y492878D01*
X967600Y492963D01*
X967502Y493076D01*
X967389Y493189D01*
X967262Y493301D01*
X967107Y493414D01*
X967093Y493428D01*
X967022Y493456D01*
X966924Y493513D01*
X966797Y493569D01*
X966628Y493640D01*
X966430Y493710D01*
X966205Y493781D01*
X965951Y493851D01*
X965937D01*
X965923Y493865D01*
X965881D01*
X965824Y493879D01*
X965683Y493907D01*
X965500Y493950D01*
X965274Y493978D01*
X965035Y494006D01*
X964767Y494020D01*
X964485Y494034D01*
X964471D01*
X964429D01*
X964358D01*
X964245D01*
X964274Y494020D01*
X964344Y493964D01*
X964443Y493879D01*
X964584Y493781D01*
X964725Y493640D01*
X964880Y493470D01*
X965035Y493273D01*
X965176Y493047D01*
X965190Y493019D01*
X965232Y492935D01*
X965288Y492808D01*
X965345Y492653D01*
X965415Y492441D01*
X965472Y492216D01*
X965514Y491962D01*
X965528Y491694D01*
Y491581D01*
X965514Y491497D01*
X965500Y491384D01*
X965486Y491271D01*
X965458Y491130D01*
X965415Y490989D01*
X965317Y490665D01*
X965246Y490496D01*
X965162Y490327D01*
X965063Y490144D01*
X964936Y489974D01*
X964809Y489805D01*
X964654Y489650D01*
X964640Y489636D01*
X964612Y489608D01*
X964570Y489580D01*
X964499Y489523D01*
X964400Y489453D01*
X964302Y489382D01*
X964175Y489312D01*
X964034Y489241D01*
X963879Y489157D01*
X963710Y489086D01*
X963512Y489016D01*
X963315Y488945D01*
X963089Y488889D01*
X962850Y488861D01*
X962610Y488833D01*
X962342Y488818D01*
X962328D01*
X962272D01*
X962201D01*
X962103Y488833D01*
X961976Y488847D01*
X961821Y488861D01*
X961666Y488889D01*
X961482Y488931D01*
X961116Y489030D01*
X960918Y489100D01*
X960707Y489185D01*
X960510Y489284D01*
X960326Y489411D01*
X960129Y489537D01*
X959960Y489692D01*
X959946Y489706D01*
X959918Y489735D01*
X959875Y489777D01*
X959819Y489847D01*
X959748Y489932D01*
X959664Y490045D01*
X959593Y490158D01*
X959495Y490299D01*
X959410Y490440D01*
X959340Y490609D01*
X959184Y490989D01*
X959128Y491187D01*
X959086Y491412D01*
X959058Y491638D01*
X959044Y491878D01*
Y491976D01*
X959058Y492047D01*
Y492117D01*
X959072Y492216D01*
X959114Y492455D01*
X959170Y492723D01*
X959269Y493019D01*
X959396Y493315D01*
X959565Y493611D01*
Y493625D01*
X959593Y493640D01*
X959622Y493682D01*
X959664Y493738D01*
X959777Y493879D01*
X959932Y494062D01*
X960143Y494246D01*
X960397Y494457D01*
X960693Y494641D01*
X961031Y494810D01*
X961045D01*
X961074Y494824D01*
X961130Y494852D01*
X961200Y494880D01*
X961299Y494908D01*
X961426Y494951D01*
X961567Y494979D01*
X961722Y495021D01*
X961905Y495063D01*
X962117Y495106D01*
X962342Y495134D01*
X962582Y495162D01*
X962850Y495190D01*
X963132Y495219D01*
X963442Y495233D01*
X963766D01*
X963780D01*
X963851D01*
X963949D01*
X964076D01*
X964231Y495219D01*
D02*
G37*
G36*
X968841Y482771D02*
X965373Y480304D01*
X965359Y480290D01*
X965317Y480261D01*
X965260Y480233D01*
X965190Y480177D01*
X964993Y480050D01*
X964781Y479909D01*
X964795Y479895D01*
X964852Y479853D01*
X964936Y479796D01*
X965049Y479726D01*
X965274Y479571D01*
X965373Y479500D01*
X965458Y479444D01*
X968841Y476977D01*
Y475426D01*
X963794Y479190D01*
X959086Y475863D01*
Y477400D01*
X961595Y479176D01*
X961609D01*
X961623Y479204D01*
X961666Y479232D01*
X961722Y479275D01*
X961863Y479359D01*
X962032Y479486D01*
X962230Y479613D01*
X962427Y479740D01*
X962610Y479853D01*
X962779Y479951D01*
X962751Y479966D01*
X962695Y480008D01*
X962582Y480078D01*
X962441Y480177D01*
X962286Y480290D01*
X962088Y480431D01*
X961891Y480572D01*
X961680Y480741D01*
X959086Y482686D01*
Y484096D01*
X963738Y480713D01*
X968841Y484364D01*
Y482771D01*
D02*
G37*
G36*
Y473918D02*
X965881Y472776D01*
Y468688D01*
X968841Y467631D01*
Y466263D01*
X959086Y469985D01*
Y471395D01*
X968841Y475384D01*
Y473918D01*
D02*
G37*
G36*
Y463994D02*
X960679D01*
X968841Y461146D01*
Y459990D01*
X960538Y457171D01*
X968841D01*
Y455930D01*
X959086D01*
Y457861D01*
X966008Y460173D01*
X966022D01*
X966050Y460187D01*
X966092Y460201D01*
X966162Y460230D01*
X966332Y460286D01*
X966543Y460357D01*
X966783Y460427D01*
X967022Y460512D01*
X967248Y460582D01*
X967445Y460639D01*
X967417Y460653D01*
X967347Y460667D01*
X967220Y460709D01*
X967051Y460765D01*
X966825Y460836D01*
X966557Y460935D01*
X966247Y461033D01*
X965881Y461160D01*
X959086Y463500D01*
Y465234D01*
X968841D01*
Y463994D01*
D02*
G37*
%LPC*%
G36*
X966204Y844550D02*
X915404D01*
Y843560D01*
X966204D01*
Y844550D01*
D02*
G37*
G36*
Y842571D02*
X915404D01*
Y840592D01*
X966204D01*
Y842571D01*
D02*
G37*
G36*
Y839602D02*
X915404D01*
Y837623D01*
X966204D01*
Y839602D01*
D02*
G37*
G36*
Y836633D02*
X915404D01*
Y835644D01*
X966204D01*
Y836633D01*
D02*
G37*
G36*
X972820Y837679D02*
X971053Y836560D01*
X970865Y836429D01*
X970696Y836307D01*
X970555Y836184D01*
X970424Y836081D01*
X970330Y835987D01*
X970255Y835912D01*
X970208Y835865D01*
X970189Y835846D01*
X970132Y835771D01*
X970067Y835686D01*
X969963Y835517D01*
X969926Y835442D01*
X969888Y835386D01*
X969869Y835348D01*
X969860Y835329D01*
X969832Y835498D01*
X969803Y835658D01*
X969756Y835799D01*
X969719Y835940D01*
X969672Y836062D01*
X969615Y836175D01*
X969568Y836278D01*
X969521Y836372D01*
X969465Y836448D01*
X969418Y836523D01*
X969380Y836579D01*
X969343Y836626D01*
X969315Y836664D01*
X969286Y836692D01*
X969277Y836701D01*
X969268Y836711D01*
X969174Y836786D01*
X969080Y836861D01*
X968882Y836974D01*
X968685Y837049D01*
X968497Y837105D01*
X968337Y837143D01*
X968271Y837152D01*
X968206D01*
X968159Y837162D01*
X968093D01*
X967896Y837152D01*
X967717Y837124D01*
X967548Y837077D01*
X967407Y837030D01*
X967285Y836974D01*
X967191Y836936D01*
X967134Y836899D01*
X967125Y836889D01*
X967115D01*
X966965Y836776D01*
X966834Y836664D01*
X966721Y836542D01*
X966636Y836429D01*
X966571Y836325D01*
X966533Y836241D01*
X966505Y836184D01*
X966495Y836175D01*
Y836166D01*
X966467Y836081D01*
X966439Y835978D01*
X966392Y835771D01*
X966364Y835545D01*
X966336Y835339D01*
X966326Y835141D01*
Y835057D01*
X966317Y834981D01*
Y831965D01*
X972820D01*
Y832829D01*
X969935D01*
Y833938D01*
X969944Y834042D01*
Y834117D01*
X969954Y834183D01*
X969963Y834230D01*
Y834267D01*
X969973Y834286D01*
Y834295D01*
X970020Y834446D01*
X970048Y834511D01*
X970076Y834568D01*
X970104Y834624D01*
X970123Y834662D01*
X970132Y834681D01*
X970142Y834690D01*
X970198Y834765D01*
X970264Y834840D01*
X970405Y834981D01*
X970471Y835047D01*
X970527Y835094D01*
X970565Y835122D01*
X970574Y835132D01*
X970706Y835226D01*
X970846Y835329D01*
X970997Y835433D01*
X971138Y835536D01*
X971270Y835620D01*
X971373Y835686D01*
X971410Y835714D01*
X971439Y835733D01*
X971457Y835752D01*
X971467D01*
X972820Y836607D01*
Y837679D01*
D02*
G37*
G36*
X966204Y833664D02*
X915404D01*
Y832675D01*
X966204D01*
Y833664D01*
D02*
G37*
G36*
Y831685D02*
X915404D01*
Y830695D01*
X966204D01*
Y831685D01*
D02*
G37*
G36*
Y828716D02*
X915404D01*
Y826737D01*
X966204D01*
Y828716D01*
D02*
G37*
G36*
Y825748D02*
X915404D01*
Y824758D01*
X966204D01*
Y825748D01*
D02*
G37*
G36*
Y823768D02*
X915404D01*
Y822779D01*
X966204D01*
Y823768D01*
D02*
G37*
G36*
Y821789D02*
X915404D01*
Y819810D01*
X966204D01*
Y821789D01*
D02*
G37*
G36*
Y818820D02*
X915404D01*
Y817831D01*
X966204D01*
Y818820D01*
D02*
G37*
G36*
Y815851D02*
X915404D01*
Y814862D01*
X966204D01*
Y815851D01*
D02*
G37*
G36*
Y813872D02*
X915404D01*
Y812883D01*
X966204D01*
Y813872D01*
D02*
G37*
G36*
X972820Y818572D02*
X966317D01*
Y817416D01*
X970846Y815856D01*
X971091Y815772D01*
X971298Y815706D01*
X971476Y815640D01*
X971627Y815593D01*
X971739Y815555D01*
X971824Y815527D01*
X971871Y815518D01*
X971890Y815508D01*
X971758Y815471D01*
X971608Y815424D01*
X971448Y815368D01*
X971288Y815321D01*
X971147Y815274D01*
X971034Y815236D01*
X970987Y815217D01*
X970959Y815208D01*
X970940Y815198D01*
X970931D01*
X966317Y813657D01*
Y812370D01*
X972820D01*
Y813197D01*
X967285D01*
X972820Y815076D01*
Y815847D01*
X967379Y817745D01*
X972820D01*
Y818572D01*
D02*
G37*
G36*
X966204Y811893D02*
X915404D01*
Y809914D01*
X966204D01*
Y811893D01*
D02*
G37*
G36*
Y808924D02*
X915404D01*
Y806945D01*
X966204D01*
Y808924D01*
D02*
G37*
G36*
Y805955D02*
X915404D01*
Y804966D01*
X966204D01*
Y805955D01*
D02*
G37*
G36*
Y803976D02*
X915404D01*
Y802987D01*
X966204D01*
Y803976D01*
D02*
G37*
G36*
Y801007D02*
X915404D01*
Y799028D01*
X966204D01*
Y801007D01*
D02*
G37*
G36*
Y798038D02*
X915404D01*
Y797049D01*
X966204D01*
Y798038D01*
D02*
G37*
G36*
X972820Y798972D02*
X972049D01*
Y794978D01*
X969841D01*
Y798578D01*
X969070D01*
Y794978D01*
X967087D01*
Y798822D01*
X966317D01*
Y794114D01*
X972820D01*
Y798972D01*
D02*
G37*
G36*
X966204Y796059D02*
X915404D01*
Y794080D01*
X966204D01*
Y796059D01*
D02*
G37*
G36*
Y793090D02*
X915404D01*
Y792101D01*
X966204D01*
Y793090D01*
D02*
G37*
G36*
Y791111D02*
X915404D01*
Y789132D01*
X966204D01*
Y791111D01*
D02*
G37*
G36*
Y787153D02*
X915404D01*
Y785173D01*
X966204D01*
Y787153D01*
D02*
G37*
G36*
Y784184D02*
X915404D01*
Y783194D01*
X966204D01*
Y784184D01*
D02*
G37*
G36*
Y782205D02*
X915404D01*
Y781215D01*
X966204D01*
Y782205D01*
D02*
G37*
G36*
Y780225D02*
X915404D01*
Y779236D01*
X966204D01*
Y780225D01*
D02*
G37*
G36*
Y778246D02*
X915404D01*
Y776267D01*
X966204D01*
Y778246D01*
D02*
G37*
G36*
X970884Y778950D02*
X966317D01*
Y778085D01*
X970997D01*
X971166Y778066D01*
X971307Y778057D01*
X971420Y778038D01*
X971504Y778019D01*
X971570Y778010D01*
X971608Y777991D01*
X971617D01*
X971711Y777954D01*
X971786Y777907D01*
X971852Y777850D01*
X971918Y777803D01*
X971955Y777747D01*
X971993Y777709D01*
X972012Y777681D01*
X972021Y777672D01*
X972068Y777578D01*
X972106Y777484D01*
X972125Y777390D01*
X972143Y777305D01*
X972153Y777221D01*
X972162Y777164D01*
Y777108D01*
X972153Y776957D01*
X972115Y776816D01*
X972078Y776704D01*
X972021Y776600D01*
X971974Y776525D01*
X971927Y776469D01*
X971899Y776431D01*
X971890Y776422D01*
X971833Y776375D01*
X971768Y776337D01*
X971617Y776281D01*
X971448Y776224D01*
X971279Y776196D01*
X971119Y776168D01*
X971053D01*
X970997Y776159D01*
X970940Y776149D01*
X970875D01*
X970987Y775369D01*
X971166D01*
X971326Y775378D01*
X971486Y775407D01*
X971627Y775425D01*
X971758Y775463D01*
X971871Y775501D01*
X971984Y775538D01*
X972078Y775576D01*
X972162Y775623D01*
X972237Y775660D01*
X972303Y775698D01*
X972350Y775736D01*
X972388Y775764D01*
X972425Y775783D01*
X972435Y775792D01*
X972444Y775801D01*
X972529Y775895D01*
X972604Y775989D01*
X972670Y776093D01*
X972726Y776206D01*
X972811Y776422D01*
X972867Y776628D01*
X972905Y776826D01*
X972914Y776901D01*
X972924Y776976D01*
X972933Y777033D01*
Y777117D01*
X972924Y777324D01*
X972895Y777512D01*
X972858Y777681D01*
X972811Y777831D01*
X972773Y777954D01*
X972736Y778038D01*
X972707Y778095D01*
X972698Y778113D01*
X972604Y778264D01*
X972491Y778395D01*
X972378Y778499D01*
X972275Y778593D01*
X972172Y778658D01*
X972096Y778705D01*
X972040Y778734D01*
X972031Y778743D01*
X972021D01*
X971833Y778809D01*
X971636Y778865D01*
X971420Y778903D01*
X971213Y778922D01*
X971034Y778940D01*
X970959D01*
X970884Y778950D01*
D02*
G37*
G36*
X966204Y775277D02*
X915404D01*
Y773298D01*
X966204D01*
Y775277D01*
D02*
G37*
G36*
Y772309D02*
X915404D01*
Y771319D01*
X966204D01*
Y772309D01*
D02*
G37*
G36*
Y769340D02*
X915404D01*
Y768350D01*
X966204D01*
Y769340D01*
D02*
G37*
%LPD*%
G36*
X968215Y836269D02*
X968328Y836250D01*
X968422Y836222D01*
X968506Y836194D01*
X968582Y836156D01*
X968638Y836128D01*
X968676Y836109D01*
X968685Y836100D01*
X968779Y836034D01*
X968864Y835949D01*
X968929Y835865D01*
X968986Y835780D01*
X969023Y835705D01*
X969052Y835649D01*
X969070Y835611D01*
X969080Y835592D01*
X969117Y835461D01*
X969146Y835310D01*
X969164Y835160D01*
X969174Y835010D01*
X969183Y834878D01*
X969193Y834765D01*
Y832829D01*
X967040D01*
Y834878D01*
X967050Y835132D01*
X967087Y835348D01*
X967134Y835536D01*
X967191Y835677D01*
X967247Y835799D01*
X967294Y835874D01*
X967332Y835921D01*
X967341Y835940D01*
X967463Y836053D01*
X967585Y836137D01*
X967717Y836194D01*
X967830Y836241D01*
X967943Y836260D01*
X968027Y836269D01*
X968083Y836278D01*
X968102D01*
X968215Y836269D01*
D02*
G37*
%LPC*%
G36*
X966204Y756920D02*
X915404D01*
Y755930D01*
X966204D01*
Y756920D01*
D02*
G37*
G36*
Y754941D02*
X915404D01*
Y752962D01*
X966204D01*
Y754941D01*
D02*
G37*
G36*
Y751972D02*
X915404D01*
Y749993D01*
X966204D01*
Y751972D01*
D02*
G37*
G36*
Y749003D02*
X915404D01*
Y748014D01*
X966204D01*
Y749003D01*
D02*
G37*
G36*
Y746034D02*
X915404D01*
Y745045D01*
X966204D01*
Y746034D01*
D02*
G37*
G36*
X966317Y749856D02*
Y748982D01*
X971044Y747215D01*
X971241Y747140D01*
X971429Y747074D01*
X971608Y747018D01*
X971768Y746971D01*
X971908Y746924D01*
X972012Y746896D01*
X972049Y746886D01*
X972078Y746877D01*
X972096Y746867D01*
X972106D01*
X971730Y746755D01*
X971551Y746698D01*
X971392Y746642D01*
X971251Y746595D01*
X971194Y746576D01*
X971138Y746567D01*
X971100Y746548D01*
X971072Y746538D01*
X971053Y746529D01*
X971044D01*
X966317Y744837D01*
Y743898D01*
X972820Y746416D01*
Y747309D01*
X966317Y749856D01*
D02*
G37*
G36*
X966204Y744055D02*
X915404D01*
Y742076D01*
X966204D01*
Y744055D01*
D02*
G37*
G36*
Y741086D02*
X915404D01*
Y740097D01*
X966204D01*
Y741086D01*
D02*
G37*
G36*
Y739107D02*
X915404D01*
Y738118D01*
X966204D01*
Y739107D01*
D02*
G37*
G36*
Y737128D02*
X915404D01*
Y735149D01*
X966204D01*
Y737128D01*
D02*
G37*
G36*
Y733169D02*
X915404D01*
Y732180D01*
X966204D01*
Y733169D01*
D02*
G37*
G36*
Y731190D02*
X915404D01*
Y730201D01*
X966204D01*
Y731190D01*
D02*
G37*
G36*
Y728221D02*
X915404D01*
Y727232D01*
X966204D01*
Y728221D01*
D02*
G37*
G36*
Y726242D02*
X915404D01*
Y725253D01*
X966204D01*
Y726242D01*
D02*
G37*
G36*
X972820Y730942D02*
X966317D01*
Y729786D01*
X970846Y728226D01*
X971091Y728142D01*
X971298Y728076D01*
X971476Y728010D01*
X971627Y727963D01*
X971739Y727925D01*
X971824Y727897D01*
X971871Y727888D01*
X971890Y727878D01*
X971758Y727841D01*
X971608Y727794D01*
X971448Y727738D01*
X971288Y727691D01*
X971147Y727644D01*
X971034Y727606D01*
X970987Y727587D01*
X970959Y727578D01*
X970940Y727568D01*
X970931D01*
X966317Y726027D01*
Y724740D01*
X972820D01*
Y725567D01*
X967285D01*
X972820Y727446D01*
Y728217D01*
X967379Y730115D01*
X972820D01*
Y730942D01*
D02*
G37*
G36*
X966204Y724263D02*
X915404D01*
Y722284D01*
X966204D01*
Y724263D01*
D02*
G37*
G36*
Y721294D02*
X915404D01*
Y719315D01*
X966204D01*
Y721294D01*
D02*
G37*
G36*
Y718325D02*
X915404D01*
Y717336D01*
X966204D01*
Y718325D01*
D02*
G37*
G36*
Y715357D02*
X915404D01*
Y714367D01*
X966204D01*
Y715357D01*
D02*
G37*
G36*
Y713377D02*
X915404D01*
Y712388D01*
X966204D01*
Y713377D01*
D02*
G37*
G36*
Y711398D02*
X915404D01*
Y709419D01*
X966204D01*
Y711398D01*
D02*
G37*
G36*
Y708429D02*
X915404D01*
Y706450D01*
X966204D01*
Y708429D01*
D02*
G37*
G36*
X972820Y711892D02*
X966317D01*
Y710736D01*
X970846Y709176D01*
X971091Y709092D01*
X971298Y709026D01*
X971476Y708960D01*
X971627Y708913D01*
X971739Y708876D01*
X971824Y708847D01*
X971871Y708838D01*
X971890Y708829D01*
X971758Y708791D01*
X971608Y708744D01*
X971448Y708688D01*
X971288Y708641D01*
X971147Y708594D01*
X971034Y708556D01*
X970987Y708537D01*
X970959Y708528D01*
X970940Y708518D01*
X970931D01*
X966317Y706977D01*
Y705690D01*
X972820D01*
Y706517D01*
X967285D01*
X972820Y708396D01*
Y709167D01*
X967379Y711065D01*
X972820D01*
Y711892D01*
D02*
G37*
G36*
X966204Y705460D02*
X915404D01*
Y704471D01*
X966204D01*
Y705460D01*
D02*
G37*
G36*
Y703481D02*
X915404D01*
Y701502D01*
X966204D01*
Y703481D01*
D02*
G37*
G36*
Y699523D02*
X915404D01*
Y697543D01*
X966204D01*
Y699523D01*
D02*
G37*
G36*
Y696554D02*
X915404D01*
Y695564D01*
X966204D01*
Y696554D01*
D02*
G37*
G36*
Y694575D02*
X915404D01*
Y693585D01*
X966204D01*
Y694575D01*
D02*
G37*
G36*
Y692595D02*
X915404D01*
Y691606D01*
X966204D01*
Y692595D01*
D02*
G37*
G36*
Y690616D02*
X915404D01*
Y688637D01*
X966204D01*
Y690616D01*
D02*
G37*
G36*
X970884Y691320D02*
X966317D01*
Y690455D01*
X970997D01*
X971166Y690436D01*
X971307Y690427D01*
X971420Y690408D01*
X971504Y690389D01*
X971570Y690380D01*
X971608Y690361D01*
X971617D01*
X971711Y690324D01*
X971786Y690277D01*
X971852Y690220D01*
X971918Y690173D01*
X971955Y690117D01*
X971993Y690079D01*
X972012Y690051D01*
X972021Y690042D01*
X972068Y689948D01*
X972106Y689854D01*
X972125Y689760D01*
X972143Y689675D01*
X972153Y689591D01*
X972162Y689534D01*
Y689478D01*
X972153Y689327D01*
X972115Y689186D01*
X972078Y689074D01*
X972021Y688970D01*
X971974Y688895D01*
X971927Y688839D01*
X971899Y688801D01*
X971890Y688792D01*
X971833Y688745D01*
X971768Y688707D01*
X971617Y688651D01*
X971448Y688594D01*
X971279Y688566D01*
X971119Y688538D01*
X971053D01*
X970997Y688529D01*
X970940Y688519D01*
X970875D01*
X970987Y687739D01*
X971166D01*
X971326Y687748D01*
X971486Y687777D01*
X971627Y687795D01*
X971758Y687833D01*
X971871Y687871D01*
X971984Y687908D01*
X972078Y687946D01*
X972162Y687993D01*
X972237Y688030D01*
X972303Y688068D01*
X972350Y688106D01*
X972388Y688134D01*
X972425Y688153D01*
X972435Y688162D01*
X972444Y688171D01*
X972529Y688265D01*
X972604Y688359D01*
X972670Y688463D01*
X972726Y688576D01*
X972811Y688792D01*
X972867Y688998D01*
X972905Y689196D01*
X972914Y689271D01*
X972924Y689346D01*
X972933Y689403D01*
Y689487D01*
X972924Y689694D01*
X972895Y689882D01*
X972858Y690051D01*
X972811Y690201D01*
X972773Y690324D01*
X972736Y690408D01*
X972707Y690465D01*
X972698Y690483D01*
X972604Y690634D01*
X972491Y690765D01*
X972378Y690869D01*
X972275Y690963D01*
X972172Y691028D01*
X972096Y691075D01*
X972040Y691104D01*
X972031Y691113D01*
X972021D01*
X971833Y691179D01*
X971636Y691235D01*
X971420Y691273D01*
X971213Y691292D01*
X971034Y691310D01*
X970959D01*
X970884Y691320D01*
D02*
G37*
G36*
X966204Y687647D02*
X915404D01*
Y685668D01*
X966204D01*
Y687647D01*
D02*
G37*
G36*
Y684679D02*
X915404D01*
Y683689D01*
X966204D01*
Y684679D01*
D02*
G37*
G36*
Y681710D02*
X915404D01*
Y680720D01*
X966204D01*
Y681710D01*
D02*
G37*
G36*
X966091Y669290D02*
X915291D01*
Y668300D01*
X966091D01*
Y669290D01*
D02*
G37*
G36*
Y667311D02*
X915291D01*
Y665332D01*
X966091D01*
Y667311D01*
D02*
G37*
G36*
Y664342D02*
X915291D01*
Y662363D01*
X966091D01*
Y664342D01*
D02*
G37*
G36*
Y661373D02*
X915291D01*
Y660384D01*
X966091D01*
Y661373D01*
D02*
G37*
G36*
Y658404D02*
X915291D01*
Y657415D01*
X966091D01*
Y658404D01*
D02*
G37*
G36*
X972820Y662362D02*
X966317D01*
Y661206D01*
X970846Y659646D01*
X971091Y659562D01*
X971298Y659496D01*
X971476Y659430D01*
X971627Y659383D01*
X971739Y659345D01*
X971824Y659317D01*
X971871Y659308D01*
X971890Y659298D01*
X971758Y659261D01*
X971608Y659214D01*
X971448Y659157D01*
X971288Y659110D01*
X971147Y659064D01*
X971034Y659026D01*
X970987Y659007D01*
X970959Y658998D01*
X970940Y658988D01*
X970931D01*
X966317Y657447D01*
Y656160D01*
X972820D01*
Y656987D01*
X967285D01*
X972820Y658866D01*
Y659637D01*
X967379Y661535D01*
X972820D01*
Y662362D01*
D02*
G37*
G36*
X966091Y656425D02*
X915291D01*
Y655435D01*
X966091D01*
Y656425D01*
D02*
G37*
G36*
Y653456D02*
X915291D01*
Y652467D01*
X966091D01*
Y653456D01*
D02*
G37*
G36*
Y651477D02*
X915291D01*
Y650488D01*
X966091D01*
Y651477D01*
D02*
G37*
G36*
Y649498D02*
X915291D01*
Y647519D01*
X966091D01*
Y649498D01*
D02*
G37*
G36*
Y646529D02*
X915291D01*
Y644550D01*
X966091D01*
Y646529D01*
D02*
G37*
G36*
Y643560D02*
X915291D01*
Y642571D01*
X966091D01*
Y643560D01*
D02*
G37*
G36*
Y641581D02*
X915291D01*
Y640591D01*
X966091D01*
Y641581D01*
D02*
G37*
G36*
Y639602D02*
X915291D01*
Y637622D01*
X966091D01*
Y639602D01*
D02*
G37*
G36*
X966317Y643176D02*
Y642170D01*
X968234Y640920D01*
X968469Y640770D01*
X968685Y640629D01*
X968882Y640507D01*
X969052Y640404D01*
X969193Y640319D01*
X969249Y640281D01*
X969296Y640253D01*
X969333Y640225D01*
X969362Y640206D01*
X969380Y640197D01*
X969390D01*
X969183Y640084D01*
X968986Y639962D01*
X968798Y639859D01*
X968629Y639755D01*
X968488Y639661D01*
X968431Y639623D01*
X968384Y639595D01*
X968347Y639567D01*
X968318Y639548D01*
X968300Y639530D01*
X968290D01*
X966317Y638251D01*
Y637208D01*
X970067Y639717D01*
X972820D01*
Y640582D01*
X970067D01*
X966317Y643176D01*
D02*
G37*
G36*
X966091Y636633D02*
X915291D01*
Y635643D01*
X966091D01*
Y636633D01*
D02*
G37*
G36*
Y633664D02*
X915291D01*
Y631685D01*
X966091D01*
Y633664D01*
D02*
G37*
G36*
Y630695D02*
X915291D01*
Y629706D01*
X966091D01*
Y630695D01*
D02*
G37*
G36*
Y628716D02*
X915291D01*
Y627727D01*
X966091D01*
Y628716D01*
D02*
G37*
G36*
Y625747D02*
X915291D01*
Y624758D01*
X966091D01*
Y625747D01*
D02*
G37*
G36*
Y623768D02*
X915291D01*
Y621789D01*
X966091D01*
Y623768D01*
D02*
G37*
G36*
X970771Y624093D02*
X970762D01*
X970546Y623228D01*
X970696Y623191D01*
X970837Y623144D01*
X970969Y623097D01*
X971091Y623050D01*
X971204Y622994D01*
X971298Y622937D01*
X971392Y622871D01*
X971476Y622815D01*
X971551Y622768D01*
X971608Y622712D01*
X971664Y622665D01*
X971711Y622627D01*
X971739Y622589D01*
X971768Y622561D01*
X971777Y622552D01*
X971786Y622542D01*
X971861Y622448D01*
X971918Y622345D01*
X972021Y622138D01*
X972096Y621941D01*
X972143Y621744D01*
X972181Y621574D01*
X972190Y621509D01*
Y621443D01*
X972200Y621386D01*
Y621321D01*
X972190Y621105D01*
X972153Y620898D01*
X972106Y620710D01*
X972049Y620541D01*
X971993Y620409D01*
X971965Y620353D01*
X971946Y620306D01*
X971927Y620268D01*
X971908Y620240D01*
X971899Y620221D01*
Y620212D01*
X971768Y620033D01*
X971627Y619883D01*
X971467Y619751D01*
X971316Y619648D01*
X971185Y619563D01*
X971072Y619507D01*
X971025Y619488D01*
X970997Y619469D01*
X970978Y619460D01*
X970969D01*
X970724Y619385D01*
X970480Y619328D01*
X970236Y619281D01*
X970010Y619253D01*
X969907Y619244D01*
X969813Y619234D01*
X969728D01*
X969662Y619225D01*
X969521D01*
X969277Y619234D01*
X969052Y619253D01*
X968845Y619291D01*
X968657Y619328D01*
X968497Y619356D01*
X968431Y619375D01*
X968375Y619394D01*
X968328Y619403D01*
X968300Y619413D01*
X968281Y619422D01*
X968271D01*
X968055Y619516D01*
X967858Y619620D01*
X967698Y619732D01*
X967557Y619855D01*
X967445Y619958D01*
X967369Y620042D01*
X967322Y620108D01*
X967303Y620118D01*
Y620127D01*
X967181Y620325D01*
X967087Y620541D01*
X967022Y620747D01*
X966984Y620945D01*
X966956Y621123D01*
X966946Y621199D01*
Y621264D01*
X966937Y621311D01*
Y621386D01*
X966946Y621621D01*
X966984Y621838D01*
X967040Y622016D01*
X967097Y622176D01*
X967162Y622298D01*
X967209Y622392D01*
X967247Y622448D01*
X967266Y622467D01*
X967407Y622618D01*
X967567Y622759D01*
X967736Y622871D01*
X967905Y622965D01*
X968055Y623041D01*
X968130Y623069D01*
X968187Y623088D01*
X968234Y623106D01*
X968271Y623125D01*
X968290Y623134D01*
X968300D01*
X968102Y623980D01*
X967933Y623924D01*
X967783Y623867D01*
X967642Y623792D01*
X967501Y623727D01*
X967379Y623651D01*
X967266Y623567D01*
X967153Y623492D01*
X967059Y623416D01*
X966984Y623341D01*
X966909Y623275D01*
X966843Y623210D01*
X966796Y623163D01*
X966749Y623116D01*
X966721Y623078D01*
X966711Y623059D01*
X966702Y623050D01*
X966617Y622918D01*
X966533Y622787D01*
X966467Y622655D01*
X966411Y622514D01*
X966326Y622232D01*
X966270Y621978D01*
X966242Y621856D01*
X966232Y621753D01*
X966223Y621650D01*
X966213Y621565D01*
X966204Y621499D01*
Y621405D01*
X966223Y621095D01*
X966270Y620794D01*
X966326Y620531D01*
X966364Y620409D01*
X966401Y620296D01*
X966439Y620193D01*
X966477Y620099D01*
X966505Y620024D01*
X966533Y619949D01*
X966561Y619902D01*
X966580Y619864D01*
X966589Y619836D01*
X966599Y619826D01*
X966758Y619573D01*
X966946Y619356D01*
X967134Y619169D01*
X967322Y619009D01*
X967492Y618887D01*
X967567Y618840D01*
X967632Y618802D01*
X967679Y618764D01*
X967717Y618746D01*
X967745Y618736D01*
X967755Y618727D01*
X968046Y618595D01*
X968347Y618501D01*
X968647Y618436D01*
X968920Y618388D01*
X969042Y618370D01*
X969164Y618360D01*
X969258Y618351D01*
X969352D01*
X969418Y618341D01*
X969521D01*
X969860Y618360D01*
X970189Y618398D01*
X970480Y618445D01*
X970621Y618483D01*
X970743Y618511D01*
X970856Y618539D01*
X970959Y618577D01*
X971053Y618605D01*
X971128Y618624D01*
X971185Y618652D01*
X971232Y618661D01*
X971260Y618680D01*
X971270D01*
X971551Y618821D01*
X971805Y618981D01*
X972021Y619150D01*
X972106Y619234D01*
X972190Y619310D01*
X972266Y619385D01*
X972331Y619460D01*
X972388Y619526D01*
X972425Y619582D01*
X972463Y619620D01*
X972491Y619657D01*
X972501Y619676D01*
X972510Y619685D01*
X972585Y619817D01*
X972651Y619949D01*
X972754Y620230D01*
X972830Y620512D01*
X972877Y620785D01*
X972895Y620917D01*
X972914Y621029D01*
X972924Y621133D01*
Y621217D01*
X972933Y621292D01*
Y621396D01*
X972924Y621584D01*
X972905Y621762D01*
X972886Y621931D01*
X972848Y622091D01*
X972801Y622242D01*
X972754Y622383D01*
X972707Y622514D01*
X972651Y622636D01*
X972604Y622740D01*
X972557Y622843D01*
X972510Y622918D01*
X972463Y622994D01*
X972425Y623041D01*
X972407Y623088D01*
X972388Y623106D01*
X972378Y623116D01*
X972266Y623247D01*
X972153Y623360D01*
X972021Y623463D01*
X971890Y623567D01*
X971627Y623736D01*
X971363Y623867D01*
X971241Y623924D01*
X971128Y623971D01*
X971025Y624008D01*
X970940Y624037D01*
X970865Y624065D01*
X970809Y624084D01*
X970771Y624093D01*
D02*
G37*
G36*
X966091Y620799D02*
X915291D01*
Y618820D01*
X966091D01*
Y620799D01*
D02*
G37*
G36*
Y617830D02*
X915291D01*
Y615851D01*
X966091D01*
Y617830D01*
D02*
G37*
G36*
Y613872D02*
X915291D01*
Y612882D01*
X966091D01*
Y613872D01*
D02*
G37*
G36*
Y611893D02*
X915291D01*
Y610903D01*
X966091D01*
Y611893D01*
D02*
G37*
G36*
Y609913D02*
X915291D01*
Y607934D01*
X966091D01*
Y609913D01*
D02*
G37*
G36*
Y606945D02*
X915291D01*
Y605955D01*
X966091D01*
Y606945D01*
D02*
G37*
G36*
Y604965D02*
X915291D01*
Y603976D01*
X966091D01*
Y604965D01*
D02*
G37*
G36*
Y602986D02*
X915291D01*
Y601007D01*
X966091D01*
Y602986D01*
D02*
G37*
G36*
X972820Y604329D02*
X972049D01*
Y601124D01*
X966317D01*
Y600260D01*
X972820D01*
Y604329D01*
D02*
G37*
G36*
X966091Y600017D02*
X915291D01*
Y598038D01*
X966091D01*
Y600017D01*
D02*
G37*
G36*
Y597049D02*
X915291D01*
Y596059D01*
X966091D01*
Y597049D01*
D02*
G37*
G36*
Y594080D02*
X915291D01*
Y593090D01*
X966091D01*
Y594080D01*
D02*
G37*
G36*
X964823Y501929D02*
X962145Y500914D01*
X962131D01*
X962088Y500900D01*
X962018Y500871D01*
X961933Y500843D01*
X961835Y500801D01*
X961708Y500759D01*
X961567Y500716D01*
X961426Y500660D01*
X961102Y500547D01*
X960763Y500434D01*
X960425Y500322D01*
X960101Y500223D01*
X960115D01*
X960143Y500209D01*
X960200D01*
X960256Y500181D01*
X960355Y500167D01*
X960453Y500138D01*
X960693Y500082D01*
X960975Y500011D01*
X961285Y499913D01*
X961623Y499814D01*
X961976Y499687D01*
X964823Y498630D01*
Y501929D01*
D02*
G37*
G36*
X962286Y493907D02*
X962272D01*
X962244D01*
X962187D01*
X962117Y493893D01*
X962018D01*
X961919Y493879D01*
X961694Y493837D01*
X961426Y493781D01*
X961144Y493682D01*
X960876Y493541D01*
X960637Y493358D01*
X960622D01*
X960608Y493330D01*
X960538Y493259D01*
X960439Y493146D01*
X960326Y492991D01*
X960228Y492794D01*
X960129Y492568D01*
X960059Y492314D01*
X960030Y492174D01*
Y491948D01*
X960044Y491892D01*
X960059Y491736D01*
X960115Y491553D01*
X960185Y491328D01*
X960312Y491088D01*
X960467Y490848D01*
X960580Y490736D01*
X960693Y490623D01*
X960707D01*
X960721Y490595D01*
X960763Y490566D01*
X960806Y490538D01*
X960947Y490440D01*
X961144Y490341D01*
X961384Y490228D01*
X961680Y490129D01*
X962018Y490073D01*
X962384Y490045D01*
X962399D01*
X962427D01*
X962469D01*
X962540Y490059D01*
X962624D01*
X962709Y490073D01*
X962920Y490115D01*
X963160Y490186D01*
X963414Y490270D01*
X963667Y490411D01*
X963893Y490595D01*
X963921Y490623D01*
X963978Y490693D01*
X964076Y490820D01*
X964175Y490975D01*
X964288Y491187D01*
X964386Y491426D01*
X964443Y491694D01*
X964471Y491990D01*
Y492075D01*
X964457Y492131D01*
X964443Y492286D01*
X964400Y492470D01*
X964330Y492695D01*
X964231Y492921D01*
X964090Y493146D01*
X963893Y493358D01*
X963865Y493386D01*
X963780Y493442D01*
X963653Y493527D01*
X963470Y493640D01*
X963244Y493738D01*
X962977Y493823D01*
X962652Y493879D01*
X962286Y493907D01*
D02*
G37*
G36*
X964823Y472367D02*
X962145Y471352D01*
X962131D01*
X962088Y471338D01*
X962018Y471310D01*
X961933Y471282D01*
X961835Y471240D01*
X961708Y471197D01*
X961567Y471155D01*
X961426Y471099D01*
X961102Y470986D01*
X960763Y470873D01*
X960425Y470760D01*
X960101Y470662D01*
X960115D01*
X960143Y470647D01*
X960200D01*
X960256Y470619D01*
X960355Y470605D01*
X960453Y470577D01*
X960693Y470521D01*
X960975Y470450D01*
X961285Y470351D01*
X961623Y470253D01*
X961976Y470126D01*
X964823Y469068D01*
Y472367D01*
D02*
G37*
%LPD*%
D10*
X881533Y487680D02*
G03*
X881533Y487680I-43815J0D01*
G01*
X487833D02*
G03*
X487833Y487680I-43815J0D01*
G01*
X685045Y488042D02*
G03*
X685045Y488042I-43815J0D01*
G01*
X218802Y662178D02*
X288802D01*
X218802Y752178D02*
X288802D01*
Y662178D02*
Y752178D01*
X218802Y662178D02*
Y752178D01*
Y391668D02*
X288802D01*
X218802Y481668D02*
X288802D01*
Y391668D02*
Y481668D01*
X218802Y391668D02*
Y481668D01*
X747013Y526620D02*
X749554Y524080D01*
X745743Y525350D02*
X747013Y526620D01*
X745743Y525350D02*
Y527890D01*
X748283D01*
X745743Y525350D02*
X748283Y527890D01*
X747013Y516460D02*
X749554Y513920D01*
X745743Y515190D02*
X747013Y516460D01*
X745743Y515190D02*
Y517730D01*
X748283D01*
X745743Y515190D02*
X748283Y517730D01*
X707822Y526620D02*
X710362Y524080D01*
X706552Y525350D02*
X707822Y526620D01*
X706552Y525350D02*
Y527890D01*
X709092D01*
X706552Y525350D02*
X709092Y527890D01*
X707822Y516460D02*
X710362Y513920D01*
X706552Y515190D02*
X707822Y516460D01*
X706552Y515190D02*
Y517730D01*
X709092D01*
X706552Y515190D02*
X709092Y517730D01*
X870103Y481330D02*
Y494030D01*
X863753Y487680D02*
X876453D01*
X581622Y224849D02*
X591782D01*
X581622Y184849D02*
X591782D01*
X509702Y515190D02*
X512242Y517730D01*
X509702D02*
X512242D01*
X509702Y515190D02*
Y517730D01*
Y515190D02*
X510972Y516460D01*
X513512Y513920D01*
X509702Y525350D02*
X512242Y527890D01*
X509702D02*
X512242D01*
X509702Y525350D02*
Y527890D01*
Y525350D02*
X510972Y526620D01*
X513512Y524080D01*
X732078Y583300D02*
X833078D01*
X732078Y788300D02*
X833078D01*
X744478Y601980D02*
Y655320D01*
X820678Y601980D02*
Y655320D01*
X744478D02*
X820678D01*
X744478Y601980D02*
X820678D01*
X833078Y583300D02*
Y788300D01*
X859078Y583300D02*
Y788300D01*
X833078D02*
X859078D01*
X833078Y583300D02*
X859078D01*
X706078D02*
Y788300D01*
X732078Y583300D02*
Y788300D01*
X706078D02*
X732078D01*
X706078Y583300D02*
X732078D01*
X535228D02*
X636228D01*
X535228Y788300D02*
X636228D01*
X547628Y601980D02*
Y655320D01*
X623828Y601980D02*
Y655320D01*
X547628D02*
X623828D01*
X547628Y601980D02*
X623828D01*
X636228Y583300D02*
Y788300D01*
X662228Y583300D02*
Y788300D01*
X636228D02*
X662228D01*
X636228Y583300D02*
X662228D01*
X509228D02*
Y788300D01*
X535228Y583300D02*
Y788300D01*
X509228D02*
X535228D01*
X509228Y583300D02*
X535228D01*
X338378D02*
X439378D01*
X338378Y788300D02*
X439378D01*
X350778Y601980D02*
Y655320D01*
X426978Y601980D02*
Y655320D01*
X350778D02*
X426978D01*
X350778Y601980D02*
X426978D01*
X439378Y583300D02*
Y788300D01*
X465378Y583300D02*
Y788300D01*
X439378D02*
X465378D01*
X439378Y583300D02*
X465378D01*
X312378D02*
Y788300D01*
X338378Y583300D02*
Y788300D01*
X312378D02*
X338378D01*
X312378Y583300D02*
X338378D01*
X80370Y588920D02*
X125370D01*
X80370Y543920D02*
X125370D01*
X80370Y558420D02*
Y574420D01*
X125370Y558420D02*
Y574420D01*
X80370Y304180D02*
Y320180D01*
X125370Y304180D02*
Y320180D01*
X80370Y334680D02*
X125370D01*
X80370Y289680D02*
X125370D01*
X557530Y560070D02*
Y563880D01*
X470053Y487680D02*
X482753D01*
X476403Y481330D02*
Y494030D01*
X898260Y28740D02*
X976260D01*
X898260Y128740D02*
X976260D01*
X898260Y28740D02*
Y128740D01*
X976260Y28740D02*
Y128740D01*
X963930Y53340D02*
X971550Y53403D01*
X963930Y53340D02*
X969010Y50800D01*
X963930Y53340D02*
X969010Y55880D01*
X963930Y104140D02*
X971550Y104110D01*
X963930Y104140D02*
X969010Y101600D01*
X963930Y104140D02*
X969010Y106680D01*
X184399Y530039D02*
X192905D01*
Y503649D02*
Y530039D01*
Y347413D02*
Y373804D01*
X-64651Y347413D02*
X3755D01*
X184399D02*
X192905D01*
X-64651Y530039D02*
X3755D01*
X-64651Y347413D02*
Y530039D01*
X667265Y488042D02*
X679965D01*
X673615Y481692D02*
Y494392D01*
X755896Y225291D02*
X758157D01*
X736567Y258819D02*
X738827D01*
X755896D02*
X758157D01*
Y225291D02*
Y258819D01*
X736567Y225291D02*
X738827D01*
X736567D02*
Y258819D01*
X747362Y234435D02*
Y250945D01*
X742282Y238245D02*
X752442D01*
X747362D02*
X752442Y245865D01*
X742282D02*
X752442D01*
X742282D02*
X747362Y238245D01*
X731520Y307770D02*
X734060Y305230D01*
X730250Y306500D02*
X731520Y307770D01*
X730250Y306500D02*
Y309040D01*
X732790D01*
X730250Y306500D02*
X732790Y309040D01*
X731520Y297610D02*
X734060Y295070D01*
X730250Y296340D02*
X731520Y297610D01*
X730250Y296340D02*
Y298880D01*
X732790D01*
X730250Y296340D02*
X732790Y298880D01*
X353313Y526620D02*
X355854Y524080D01*
X352043Y525350D02*
X353313Y526620D01*
X352043Y525350D02*
Y527890D01*
X354584D01*
X352043Y525350D02*
X354584Y527890D01*
X353313Y516460D02*
X355854Y513920D01*
X352043Y515190D02*
X353313Y516460D01*
X352043Y515190D02*
Y517730D01*
X354584D01*
X352043Y515190D02*
X354584Y517730D01*
X550163Y526620D02*
X552704Y524080D01*
X548894Y525350D02*
X550163Y526620D01*
X548894Y525350D02*
Y527890D01*
X551433D01*
X548894Y525350D02*
X551433Y527890D01*
X550163Y516460D02*
X552704Y513920D01*
X548894Y515190D02*
X550163Y516460D01*
X548894Y515190D02*
Y517730D01*
X551433D01*
X548894Y515190D02*
X551433Y517730D01*
X314122Y526620D02*
X316662Y524080D01*
X312852Y525350D02*
X314122Y526620D01*
X312852Y525350D02*
Y527890D01*
X315392D01*
X312852Y525350D02*
X315392Y527890D01*
X314122Y516460D02*
X316662Y513920D01*
X312852Y515190D02*
X314122Y516460D01*
X312852Y515190D02*
Y517730D01*
X315392D01*
X312852Y515190D02*
X315392Y517730D01*
X201602Y158562D02*
X204142Y161102D01*
X201602Y158562D02*
X202872Y157292D01*
X200332D02*
X202872D01*
X200332D02*
Y159832D01*
X202872Y157292D01*
X211762Y158562D02*
X214302Y161102D01*
X211762Y158562D02*
X213032Y157292D01*
X210492D02*
X213032D01*
X210492D02*
Y159832D01*
X213032Y157292D01*
X201602Y127828D02*
X204142Y130368D01*
X201602Y127828D02*
X202872Y126558D01*
X200332D02*
X202872D01*
X200332D02*
Y129098D01*
X202872Y126558D01*
X211762Y127828D02*
X214302Y130368D01*
X211762Y127828D02*
X213032Y126558D01*
X210492D02*
X213032D01*
X210492D02*
Y129098D01*
X213032Y126558D01*
X963930Y424983D02*
X969010Y427523D01*
X963930Y424983D02*
X969010Y422444D01*
X963930Y424983D02*
X971550Y424954D01*
X963930Y374184D02*
X969010Y376724D01*
X963930Y374184D02*
X969010Y371643D01*
X963930Y374184D02*
X971550Y374246D01*
X976260Y349584D02*
Y449584D01*
X898260Y349584D02*
Y449584D01*
X976260D01*
X898260Y349584D02*
X976260D01*
X12700Y762000D02*
X16510Y767080D01*
X12700Y772160D02*
X16510Y767080D01*
X5080D02*
X16510D01*
X557530Y558800D02*
X661670D01*
X557530D02*
Y560070D01*
X754380Y558800D02*
Y563880D01*
X360680Y558800D02*
X471170D01*
X754380D02*
Y563880D01*
Y558800D02*
Y563880D01*
Y558800D02*
Y563880D01*
Y558800D02*
X871220D01*
X360680D02*
Y563880D01*
D11*
X110470Y200660D02*
G03*
X110470Y200660I-1250J0D01*
G01*
D12*
X782328Y337192D02*
G03*
X782328Y337192I-1250J0D01*
G01*
X509462Y472132D02*
G03*
X509462Y472132I-1250J0D01*
G01*
X706312D02*
G03*
X706312Y472132I-1250J0D01*
G01*
X548653D02*
G03*
X548653Y472132I-1250J0D01*
G01*
X745503D02*
G03*
X745503Y472132I-1250J0D01*
G01*
X330180Y266888D02*
G03*
X330180Y266888I-1250J0D01*
G01*
X759654Y149165D02*
G03*
X759654Y149165I-1250J0D01*
G01*
X829451Y366358D02*
G03*
X829451Y366358I-1250J0D01*
G01*
X204001Y248280D02*
G03*
X204001Y248280I-1250J0D01*
G01*
X234728Y203490D02*
G03*
X234728Y203490I-1250J0D01*
G01*
X312612Y472132D02*
G03*
X312612Y472132I-1250J0D01*
G01*
X351804D02*
G03*
X351804Y472132I-1250J0D01*
G01*
X532800Y284090D02*
G03*
X532800Y284090I-1250J0D01*
G01*
X139400Y112461D02*
Y116017D01*
X149560Y112461D02*
Y116017D01*
X164292Y112715D02*
Y116271D01*
X154132Y112715D02*
Y116271D01*
X755254Y518269D02*
Y522269D01*
X769254Y518269D02*
Y522269D01*
X716063Y518269D02*
Y522269D01*
X730063Y518269D02*
Y522269D01*
X533213Y518269D02*
Y522269D01*
X519213Y518269D02*
Y522269D01*
X795278Y609380D02*
X802678Y601980D01*
X769878Y609380D02*
X777278Y601980D01*
X795278D02*
Y655320D01*
X744478Y609380D02*
X751878Y601980D01*
X769878D02*
Y655320D01*
X598428Y609380D02*
X605828Y601980D01*
X573028Y609380D02*
X580428Y601980D01*
X598428D02*
Y655320D01*
X547628Y609380D02*
X555028Y601980D01*
X573028D02*
Y655320D01*
X401578Y609380D02*
X408978Y601980D01*
X376178Y609380D02*
X383578Y601980D01*
X401578D02*
Y655320D01*
X350778Y609380D02*
X358178Y601980D01*
X376178D02*
Y655320D01*
X118190Y168650D02*
X128190D01*
X118190Y199650D02*
X128190D01*
X968248Y323850D02*
X968248Y162814D01*
X767080Y323850D02*
X968248D01*
X767080Y162814D02*
Y323850D01*
Y162814D02*
X968248Y162814D01*
X119380Y126900D02*
Y146900D01*
X99060Y126900D02*
Y146900D01*
X104140Y161760D02*
X114300D01*
X783578Y348692D02*
Y353692D01*
X792078D01*
X814578Y348692D02*
Y353692D01*
X806078D02*
X814578D01*
X533212Y488632D02*
X541712D01*
Y483632D02*
Y488632D01*
X510712D02*
X519212D01*
X510712Y483632D02*
Y488632D01*
X730062D02*
X738562D01*
Y483632D02*
Y488632D01*
X707562D02*
X716062D01*
X707562Y483632D02*
Y488632D01*
X572403D02*
X580904D01*
Y483632D02*
Y488632D01*
X549903D02*
X558404D01*
X549903Y483632D02*
Y488632D01*
X746753Y483632D02*
Y488632D01*
X755254D01*
X777754Y483632D02*
Y488632D01*
X769253D02*
X777754D01*
X342671Y564472D02*
X346227D01*
X342671Y574632D02*
X346227D01*
X539521Y564472D02*
X543077D01*
X539521Y574632D02*
X543077D01*
X736371Y564472D02*
X739927D01*
X736371Y574632D02*
X739927D01*
X375107D02*
X378662D01*
X375107Y564472D02*
X378662D01*
X571956Y574632D02*
X575513D01*
X571956Y564472D02*
X575513D01*
X768807Y574632D02*
X772363D01*
X768807Y564472D02*
X772363D01*
X765477Y347286D02*
Y350842D01*
X775637Y347286D02*
Y350842D01*
X406616Y149292D02*
Y152848D01*
X416776Y149292D02*
Y152848D01*
X307196Y149037D02*
Y152593D01*
X317356Y149037D02*
Y152593D01*
X401748Y178375D02*
X405304D01*
X401748Y168215D02*
X405304D01*
X302624Y179135D02*
X306180D01*
X302624Y168975D02*
X306180D01*
X391207Y149292D02*
Y152848D01*
X401367Y149292D02*
Y152848D01*
X292083Y149037D02*
Y152593D01*
X302243Y149037D02*
Y152593D01*
X454831Y149292D02*
Y152848D01*
X464991Y149292D02*
Y152848D01*
X355771Y149292D02*
Y152848D01*
X365931Y149292D02*
Y152848D01*
X450259Y178609D02*
X453815D01*
X450259Y168449D02*
X453815D01*
X351199Y178375D02*
X354755D01*
X351199Y168215D02*
X354755D01*
X439718Y149292D02*
Y152848D01*
X449878Y149292D02*
Y152848D01*
X340658Y149292D02*
Y152848D01*
X350818Y149292D02*
Y152848D01*
X531292Y446772D02*
Y450328D01*
X521132Y446772D02*
Y450328D01*
X717982Y446772D02*
Y450328D01*
X728142Y446772D02*
Y450328D01*
X560323Y446772D02*
Y450328D01*
X570484Y446772D02*
Y450328D01*
X757173Y446772D02*
Y450328D01*
X767334Y446772D02*
Y450328D01*
X538810Y544908D02*
X542366D01*
X538810Y555068D02*
X542366D01*
X735660D02*
X739216D01*
X735660Y544908D02*
X739216D01*
X571499Y544527D02*
X575056D01*
X571499Y554687D02*
X575056D01*
X768350D02*
X771906D01*
X768350Y544527D02*
X771906D01*
X318800Y267678D02*
Y334678D01*
X290800Y267678D02*
Y334678D01*
Y267678D02*
X318800D01*
X290800Y334678D02*
X318800D01*
X597872Y253238D02*
Y256794D01*
X608032Y253238D02*
Y256794D01*
X519728Y286565D02*
Y290121D01*
X509568Y286565D02*
Y290121D01*
X516636Y306070D02*
X520192D01*
X516636Y316230D02*
X520192D01*
X361802Y319098D02*
X365358D01*
X361802Y329258D02*
X365358D01*
X350372Y291272D02*
Y294828D01*
X360532Y291272D02*
Y294828D01*
X595049Y301611D02*
X599049D01*
X595049Y287611D02*
X599049D01*
X504996Y239602D02*
Y243158D01*
X494836Y239602D02*
Y243158D01*
X199402Y711732D02*
X202958D01*
X199402Y701572D02*
X202958D01*
X18093Y316015D02*
X21649D01*
X18093Y305855D02*
X21649D01*
X18093Y331582D02*
X21649D01*
X18093Y321422D02*
X21649D01*
X48065Y316239D02*
X51621D01*
X48065Y306079D02*
X51621D01*
X47693Y546340D02*
X51249D01*
X47693Y556500D02*
X51249D01*
X149955Y142433D02*
Y145989D01*
X139795Y142433D02*
Y145989D01*
X135223Y142433D02*
Y145989D01*
X125063Y142433D02*
Y145989D01*
X168120Y183708D02*
X171676D01*
X168120Y173548D02*
X171676D01*
X168120Y168087D02*
X171676D01*
X168120Y157927D02*
X171676D01*
X462049Y25432D02*
Y124432D01*
X519549D01*
Y25432D02*
Y124432D01*
X462049Y25432D02*
X519549D01*
X534519D02*
X592019D01*
Y124432D01*
X534519D02*
X592019D01*
X534519Y25432D02*
Y124432D01*
X606989Y25732D02*
X664489D01*
Y124732D01*
X606989D02*
X664489D01*
X606989Y25732D02*
Y124732D01*
X713404Y-835D02*
Y143165D01*
Y-835D02*
X803404D01*
X713404Y143165D02*
X734404D01*
X803404Y-835D02*
Y84665D01*
Y127665D02*
Y143165D01*
X782404D02*
X803404D01*
X830701Y377858D02*
Y382858D01*
X839201D01*
X861701Y377858D02*
Y382858D01*
X853201D02*
X861701D01*
X219251Y214780D02*
Y223280D01*
X214251Y214780D02*
X219251D01*
Y237280D02*
Y245780D01*
X214251D02*
X219251D01*
X258478Y219990D02*
X266978D01*
Y214990D02*
Y219990D01*
X235978D02*
X244478D01*
X235978Y214990D02*
Y219990D01*
X828929Y342935D02*
Y346491D01*
X818769Y342935D02*
Y346491D01*
X752209Y336853D02*
Y340409D01*
X742049Y336853D02*
Y340409D01*
X844550Y346202D02*
X848106D01*
X844550Y356362D02*
X848106D01*
X559673Y289531D02*
X563229D01*
X559673Y299691D02*
X563229D01*
X494836Y287072D02*
Y290628D01*
X504996Y287072D02*
Y290628D01*
X519728Y239818D02*
Y243374D01*
X509568Y239818D02*
Y243374D01*
X504777Y269155D02*
X508333D01*
X504777Y258995D02*
X508333D01*
X48065Y321422D02*
X51621D01*
X48065Y331582D02*
X51621D01*
X48319Y291314D02*
X51875D01*
X48319Y301474D02*
X51875D01*
X244639Y25432D02*
Y124432D01*
X302139D01*
Y25432D02*
Y124432D01*
X244639Y25432D02*
X302139D01*
X317109D02*
Y124432D01*
X374609D01*
Y25432D02*
Y124432D01*
X317109Y25432D02*
X374609D01*
X389579D02*
Y124432D01*
X447079D01*
Y25432D02*
Y124432D01*
X389579Y25432D02*
X447079D01*
X844550Y331505D02*
X848106D01*
X844550Y341665D02*
X848106D01*
X739761Y299419D02*
Y303419D01*
X753761Y299419D02*
Y303419D01*
X361554Y518269D02*
Y522269D01*
X375554Y518269D02*
Y522269D01*
X558404Y518269D02*
Y522269D01*
X572404Y518269D02*
Y522269D01*
X322363Y518269D02*
Y522269D01*
X336363Y518269D02*
Y522269D01*
X205953Y166803D02*
X209953D01*
X205953Y180803D02*
X209953D01*
X205953Y136069D02*
X209953D01*
X205953Y150069D02*
X209953D01*
X313862Y483632D02*
Y488632D01*
X322362D01*
X344862Y483632D02*
Y488632D01*
X336362D02*
X344862D01*
X375554D02*
X384053D01*
Y483632D02*
Y488632D01*
X353054D02*
X361553D01*
X353054Y483632D02*
Y488632D01*
X324282Y446772D02*
Y450328D01*
X334442Y446772D02*
Y450328D01*
X363474Y446772D02*
Y450328D01*
X373633Y446772D02*
Y450328D01*
X341960Y555068D02*
X345516D01*
X341960Y544908D02*
X345516D01*
X374650Y554687D02*
X378205D01*
X374650Y544527D02*
X378205D01*
X178054Y256540D02*
X181610D01*
X178054Y246380D02*
X181610D01*
X208847Y208570D02*
X212403D01*
X208847Y198410D02*
X212403D01*
X211653Y520192D02*
X215209D01*
X211653Y530352D02*
X215209D01*
X47947Y576263D02*
X51503D01*
X47947Y586423D02*
X51503D01*
X243385Y178882D02*
X246941D01*
X243385Y168722D02*
X246941D01*
X243639Y148148D02*
X247195D01*
X243639Y137988D02*
X247195D01*
X43942Y123698D02*
Y127254D01*
X54102Y123698D02*
Y127254D01*
X39370Y123698D02*
Y127254D01*
X29210Y123698D02*
Y127254D01*
X542800Y231540D02*
X574800D01*
X542800Y281540D02*
X574800D01*
Y231540D02*
Y281540D01*
X542800Y231540D02*
Y281540D01*
X156220Y224780D02*
X161798D01*
X156220Y219202D02*
Y224780D01*
X189220Y219202D02*
Y224780D01*
X183642D02*
X189220D01*
X183642Y191780D02*
X189220D01*
Y197358D01*
X156220Y191780D02*
Y197358D01*
Y191780D02*
X161798D01*
X324080Y805640D02*
Y863140D01*
Y805640D02*
X448080D01*
Y863140D01*
X324080D02*
X448080D01*
X520930D02*
X644930D01*
Y805640D02*
Y863140D01*
X520930Y805640D02*
X644930D01*
X520930D02*
Y863140D01*
X717780Y805640D02*
Y863140D01*
Y805640D02*
X841780D01*
Y863140D01*
X717780D02*
X841780D01*
X844550D02*
X877570D01*
Y862330D02*
Y863140D01*
X844550Y805640D02*
X876760D01*
X877570Y806450D01*
Y862330D01*
X647700Y863140D02*
X680720D01*
Y862330D02*
Y863140D01*
X647700Y805640D02*
X679910D01*
X680720Y806450D01*
Y862330D01*
X483870Y806450D02*
Y862330D01*
X483060Y805640D02*
X483870Y806450D01*
X450850Y805640D02*
X483060D01*
X483870Y862330D02*
Y863140D01*
X450850D02*
X483870D01*
X150113Y78743D02*
X142495D01*
Y82552D01*
X143765Y83822D01*
X146304D01*
X147574Y82552D01*
Y78743D01*
Y81283D02*
X150113Y83822D01*
X143765Y86361D02*
X142495Y87630D01*
Y90170D01*
X143765Y91439D01*
X145034D01*
X146304Y90170D01*
Y88900D01*
Y90170D01*
X147574Y91439D01*
X148843D01*
X150113Y90170D01*
Y87630D01*
X148843Y86361D01*
X142495Y93978D02*
Y99057D01*
X143765D01*
X148843Y93978D01*
X150113D01*
X163067Y78489D02*
X155449D01*
Y82298D01*
X156719Y83568D01*
X159258D01*
X160528Y82298D01*
Y78489D01*
Y81028D02*
X163067Y83568D01*
X156719Y86107D02*
X155449Y87376D01*
Y89916D01*
X156719Y91185D01*
X157988D01*
X159258Y89916D01*
Y88646D01*
Y89916D01*
X160528Y91185D01*
X161797D01*
X163067Y89916D01*
Y87376D01*
X161797Y86107D01*
X156719Y93724D02*
X155449Y94994D01*
Y97533D01*
X156719Y98803D01*
X157988D01*
X159258Y97533D01*
X160528Y98803D01*
X161797D01*
X163067Y97533D01*
Y94994D01*
X161797Y93724D01*
X160528D01*
X159258Y94994D01*
X157988Y93724D01*
X156719D01*
X159258Y94994D02*
Y97533D01*
X749301Y495300D02*
Y500378D01*
X746762Y497839D02*
X751841D01*
X709931Y495300D02*
Y500378D01*
X707392Y497839D02*
X712470D01*
X892048Y487258D02*
X883584D01*
X887816Y483026D02*
Y491490D01*
X509271Y504190D02*
Y509268D01*
X506732Y506729D02*
X511810D01*
X752098Y591185D02*
Y598803D01*
X754637Y596264D01*
X757176Y598803D01*
Y591185D01*
X759715Y597533D02*
X760985Y598803D01*
X763524D01*
X764794Y597533D01*
Y596264D01*
X763524Y594994D01*
X762255D01*
X763524D01*
X764794Y593724D01*
Y592455D01*
X763524Y591185D01*
X760985D01*
X759715Y592455D01*
X802898Y590550D02*
Y598168D01*
X805437Y595629D01*
X807976Y598168D01*
Y590550D01*
X810515D02*
X813055D01*
X811785D01*
Y598168D01*
X810515Y596898D01*
X777498Y591185D02*
Y598803D01*
X780037Y596264D01*
X782576Y598803D01*
Y591185D01*
X790194D02*
X785115D01*
X790194Y596264D01*
Y597533D01*
X788924Y598803D01*
X786385D01*
X785115Y597533D01*
X787658Y777238D02*
Y773853D01*
X789351Y772160D01*
X791043Y773853D01*
Y777238D01*
X792736Y772160D02*
Y777238D01*
X794429Y775546D01*
X796122Y777238D01*
Y772160D01*
X800354Y777238D02*
X798661D01*
X797815Y776392D01*
Y773007D01*
X798661Y772160D01*
X800354D01*
X801200Y773007D01*
Y776392D01*
X800354Y777238D01*
X802893D02*
X806279D01*
X804586D01*
Y772160D01*
X810510Y777238D02*
X808818D01*
X807971Y776392D01*
Y773007D01*
X808818Y772160D01*
X810510D01*
X811357Y773007D01*
Y776392D01*
X810510Y777238D01*
X813050Y772160D02*
Y777238D01*
X815589D01*
X816435Y776392D01*
Y774699D01*
X815589Y773853D01*
X813050D01*
X814742D02*
X816435Y772160D01*
X823206Y773007D02*
X824053Y772160D01*
X825745D01*
X826592Y773007D01*
Y776392D01*
X825745Y777238D01*
X824053D01*
X823206Y776392D01*
Y775546D01*
X824053Y774699D01*
X826592D01*
X738128Y772160D02*
X739821D01*
X738974D01*
Y777238D01*
X738128Y776392D01*
X750824Y777238D02*
X747438D01*
Y772160D01*
X750824D01*
X747438Y774699D02*
X749131D01*
X752516Y772160D02*
Y777238D01*
X755902Y772160D01*
Y777238D01*
X555248Y591185D02*
Y598803D01*
X557787Y596264D01*
X560326Y598803D01*
Y591185D01*
X562865Y597533D02*
X564135Y598803D01*
X566674D01*
X567944Y597533D01*
Y596264D01*
X566674Y594994D01*
X565405D01*
X566674D01*
X567944Y593724D01*
Y592455D01*
X566674Y591185D01*
X564135D01*
X562865Y592455D01*
X606048Y590550D02*
Y598168D01*
X608587Y595629D01*
X611126Y598168D01*
Y590550D01*
X613665D02*
X616205D01*
X614935D01*
Y598168D01*
X613665Y596898D01*
X580648Y591185D02*
Y598803D01*
X583187Y596264D01*
X585726Y598803D01*
Y591185D01*
X593344D02*
X588265D01*
X593344Y596264D01*
Y597533D01*
X592074Y598803D01*
X589535D01*
X588265Y597533D01*
X590808Y777238D02*
Y773853D01*
X592501Y772160D01*
X594193Y773853D01*
Y777238D01*
X595886Y772160D02*
Y777238D01*
X597579Y775546D01*
X599272Y777238D01*
Y772160D01*
X603504Y777238D02*
X601811D01*
X600965Y776392D01*
Y773007D01*
X601811Y772160D01*
X603504D01*
X604350Y773007D01*
Y776392D01*
X603504Y777238D01*
X606043D02*
X609428D01*
X607736D01*
Y772160D01*
X613660Y777238D02*
X611968D01*
X611121Y776392D01*
Y773007D01*
X611968Y772160D01*
X613660D01*
X614507Y773007D01*
Y776392D01*
X613660Y777238D01*
X616200Y772160D02*
Y777238D01*
X618739D01*
X619585Y776392D01*
Y774699D01*
X618739Y773853D01*
X616200D01*
X617892D02*
X619585Y772160D01*
X626356Y773007D02*
X627203Y772160D01*
X628895D01*
X629742Y773007D01*
Y776392D01*
X628895Y777238D01*
X627203D01*
X626356Y776392D01*
Y775546D01*
X627203Y774699D01*
X629742D01*
X541278Y772160D02*
X542971D01*
X542124D01*
Y777238D01*
X541278Y776392D01*
X553974Y777238D02*
X550588D01*
Y772160D01*
X553974D01*
X550588Y774699D02*
X552281D01*
X555667Y772160D02*
Y777238D01*
X559052Y772160D01*
Y777238D01*
X358398Y591185D02*
Y598803D01*
X360937Y596264D01*
X363476Y598803D01*
Y591185D01*
X366015Y597533D02*
X367285Y598803D01*
X369824D01*
X371094Y597533D01*
Y596264D01*
X369824Y594994D01*
X368555D01*
X369824D01*
X371094Y593724D01*
Y592455D01*
X369824Y591185D01*
X367285D01*
X366015Y592455D01*
X409198Y590550D02*
Y598168D01*
X411737Y595629D01*
X414276Y598168D01*
Y590550D01*
X416815D02*
X419355D01*
X418085D01*
Y598168D01*
X416815Y596898D01*
X383798Y591185D02*
Y598803D01*
X386337Y596264D01*
X388876Y598803D01*
Y591185D01*
X396494D02*
X391415D01*
X396494Y596264D01*
Y597533D01*
X395224Y598803D01*
X392685D01*
X391415Y597533D01*
X393958Y777238D02*
Y773853D01*
X395651Y772160D01*
X397343Y773853D01*
Y777238D01*
X399036Y772160D02*
Y777238D01*
X400729Y775546D01*
X402422Y777238D01*
Y772160D01*
X406654Y777238D02*
X404961D01*
X404115Y776392D01*
Y773007D01*
X404961Y772160D01*
X406654D01*
X407500Y773007D01*
Y776392D01*
X406654Y777238D01*
X409193D02*
X412579D01*
X410886D01*
Y772160D01*
X416810Y777238D02*
X415118D01*
X414271Y776392D01*
Y773007D01*
X415118Y772160D01*
X416810D01*
X417657Y773007D01*
Y776392D01*
X416810Y777238D01*
X419350Y772160D02*
Y777238D01*
X421889D01*
X422735Y776392D01*
Y774699D01*
X421889Y773853D01*
X419350D01*
X421042D02*
X422735Y772160D01*
X429506Y773007D02*
X430353Y772160D01*
X432046D01*
X432892Y773007D01*
Y776392D01*
X432046Y777238D01*
X430353D01*
X429506Y776392D01*
Y775546D01*
X430353Y774699D01*
X432892D01*
X344428Y772160D02*
X346121D01*
X345274D01*
Y777238D01*
X344428Y776392D01*
X357124Y777238D02*
X353738D01*
Y772160D01*
X357124D01*
X353738Y774699D02*
X355431D01*
X358816Y772160D02*
Y777238D01*
X362202Y772160D01*
Y777238D01*
X647699Y570228D02*
X642620D01*
Y566419D01*
X645159D01*
X642620D01*
Y562610D01*
X650238Y570228D02*
X652777D01*
X651507D01*
Y562610D01*
X650238D01*
X652777D01*
X656586Y570228D02*
X661664Y562610D01*
Y570228D02*
X656586Y562610D01*
X486410Y456778D02*
X477946D01*
X482178Y452546D02*
Y461010D01*
X8892Y361950D02*
X13971Y367029D01*
Y361950D02*
X8892Y367029D01*
X11431Y361950D02*
Y367029D01*
X13971Y364489D02*
X8892D01*
Y336550D02*
X13971Y341628D01*
Y336550D02*
X8892Y341628D01*
X11431Y336550D02*
Y341628D01*
X13971Y339089D02*
X8892D01*
X685800Y516468D02*
X677336D01*
X681568Y512236D02*
Y520700D01*
X749809Y272718D02*
Y277796D01*
X747270Y275257D02*
X752348D01*
X356871Y495300D02*
Y500378D01*
X354332Y497839D02*
X359411D01*
X553721Y495300D02*
Y500378D01*
X551182Y497839D02*
X556260D01*
X314123Y502920D02*
Y507999D01*
X311584Y505459D02*
X316663D01*
X224790Y158751D02*
X219712D01*
X222251Y156212D02*
Y161290D01*
X223622Y127829D02*
X218544D01*
X221083Y125290D02*
Y130368D01*
X454659Y570228D02*
X449580D01*
Y566419D01*
X452119D01*
X449580D01*
Y562610D01*
X457198Y570228D02*
X459737D01*
X458467D01*
Y562610D01*
X457198D01*
X459737D01*
X463546Y570228D02*
X468624Y562610D01*
Y570228D02*
X463546Y562610D01*
X854708Y570228D02*
X849630D01*
Y566419D01*
X852169D01*
X849630D01*
Y562610D01*
X857248Y570228D02*
X859787D01*
X858517D01*
Y562610D01*
X857248D01*
X859787D01*
X863596Y570228D02*
X868674Y562610D01*
Y570228D02*
X863596Y562610D01*
X760729Y164471D02*
X753112D01*
Y168280D01*
X754381Y169550D01*
X756920D01*
X758190Y168280D01*
Y164471D01*
Y167011D02*
X760729Y169550D01*
Y175898D02*
Y173359D01*
X759460Y172089D01*
X756920D01*
X755651Y173359D01*
Y175898D01*
X756920Y177167D01*
X758190D01*
Y172089D01*
X760729Y179707D02*
Y182246D01*
Y180976D01*
X753112D01*
Y179707D01*
X755651Y187324D02*
Y189863D01*
X756920Y191133D01*
X760729D01*
Y187324D01*
X759460Y186054D01*
X758190Y187324D01*
Y191133D01*
X755651Y193672D02*
X759460D01*
X760729Y194942D01*
Y198750D01*
X761999D01*
X763269Y197481D01*
Y196211D01*
X760729Y198750D02*
X755651D01*
X760729Y201290D02*
Y203829D01*
Y202559D01*
X753112D01*
X754381Y201290D01*
X87631Y130812D02*
X95249D01*
Y134621D01*
X93979Y135891D01*
X88901D01*
X87631Y134621D01*
Y130812D01*
Y138430D02*
Y143508D01*
X88901D01*
X93979Y138430D01*
X95249D01*
X614681Y200662D02*
X622299D01*
Y205740D01*
Y208279D02*
Y210819D01*
Y209549D01*
X614681D01*
X615951Y208279D01*
X439424Y438784D02*
X438155Y440054D01*
X435616D01*
X434346Y438784D01*
Y433706D01*
X435616Y432436D01*
X438155D01*
X439424Y433706D01*
X441963D02*
X443233Y432436D01*
X445772D01*
X447042Y433706D01*
Y438784D01*
X445772Y440054D01*
X443233D01*
X441963Y438784D01*
Y437514D01*
X443233Y436245D01*
X447042D01*
X449581Y431167D02*
X454659D01*
X457198Y440054D02*
Y432436D01*
X461007D01*
X462277Y433706D01*
Y438784D01*
X461007Y440054D01*
X457198D01*
X464816Y437514D02*
X469894Y432436D01*
X467355Y434975D01*
X469894Y437514D01*
X464816Y432436D01*
X575952Y434976D02*
Y442593D01*
X579761D01*
X581030Y441324D01*
Y438784D01*
X579761Y437515D01*
X575952D01*
X578491D02*
X581030Y434976D01*
X583569D02*
X586109D01*
X584839D01*
Y442593D01*
X583569Y441324D01*
X589917D02*
X591187Y442593D01*
X593726D01*
X594996Y441324D01*
Y436245D01*
X593726Y434976D01*
X591187D01*
X589917Y436245D01*
Y441324D01*
X597535Y433706D02*
X602613D01*
X605153Y442593D02*
Y434976D01*
X608961D01*
X610231Y436245D01*
Y441324D01*
X608961Y442593D01*
X605153D01*
X612770Y440054D02*
Y436245D01*
X614040Y434976D01*
X617848D01*
Y433706D01*
X616579Y432437D01*
X615309D01*
X617848Y434976D02*
Y440054D01*
X778134Y692792D02*
X785752D01*
Y696601D01*
X784482Y697870D01*
X779404D01*
X778134Y696601D01*
Y692792D01*
X780673Y700409D02*
X785752D01*
X783213D01*
X781943Y701679D01*
X780673Y702949D01*
Y704218D01*
X785752Y708027D02*
Y710566D01*
Y709297D01*
X778134D01*
X779404Y708027D01*
X787021Y714375D02*
Y719453D01*
X778134Y721992D02*
X785752D01*
Y725801D01*
X784482Y727071D01*
X779404D01*
X778134Y725801D01*
Y721992D01*
X780673Y729610D02*
Y734688D01*
X785752Y729610D01*
Y734688D01*
X476249Y141675D02*
X468631D01*
Y145484D01*
X469901Y146754D01*
X472440D01*
X473710Y145484D01*
Y141675D01*
Y144215D02*
X476249Y146754D01*
Y154371D02*
Y149293D01*
X471171Y154371D01*
X469901D01*
X468631Y153102D01*
Y150563D01*
X469901Y149293D01*
Y156910D02*
X468631Y158180D01*
Y160719D01*
X469901Y161989D01*
X471171D01*
X472440Y160719D01*
Y159450D01*
Y160719D01*
X473710Y161989D01*
X474979D01*
X476249Y160719D01*
Y158180D01*
X474979Y156910D01*
X376216Y141675D02*
X368599D01*
Y145484D01*
X369869Y146754D01*
X372408D01*
X373677Y145484D01*
Y141675D01*
Y144215D02*
X376216Y146754D01*
Y154371D02*
Y149293D01*
X371138Y154371D01*
X369869D01*
X368599Y153102D01*
Y150563D01*
X369869Y149293D01*
X376216Y160719D02*
X368599D01*
X372408Y156910D01*
Y161989D01*
X426719Y142310D02*
X419101D01*
Y146119D01*
X420371Y147389D01*
X422910D01*
X424180Y146119D01*
Y142310D01*
Y144849D02*
X426719Y147389D01*
Y149928D02*
Y152467D01*
Y151197D01*
X419101D01*
X420371Y149928D01*
X419101Y161354D02*
X420371Y158815D01*
X422910Y156276D01*
X425449D01*
X426719Y157545D01*
Y160084D01*
X425449Y161354D01*
X424180D01*
X422910Y160084D01*
Y156276D01*
X394338Y181611D02*
Y189229D01*
X398147D01*
X399417Y187959D01*
Y185420D01*
X398147Y184151D01*
X394338D01*
X396877D02*
X399417Y181611D01*
X401956D02*
X404495D01*
X403225D01*
Y189229D01*
X401956Y187959D01*
X408304D02*
X409573Y189229D01*
X412113D01*
X413382Y187959D01*
Y186690D01*
X412113Y185420D01*
X413382Y184151D01*
Y182881D01*
X412113Y181611D01*
X409573D01*
X408304Y182881D01*
Y184151D01*
X409573Y185420D01*
X408304Y186690D01*
Y187959D01*
X409573Y185420D02*
X412113D01*
X338053Y141675D02*
X330436D01*
Y145484D01*
X331706Y146754D01*
X334245D01*
X335514Y145484D01*
Y141675D01*
Y144215D02*
X338053Y146754D01*
X331706Y149293D02*
X330436Y150563D01*
Y153102D01*
X331706Y154371D01*
X332975D01*
X334245Y153102D01*
Y151832D01*
Y153102D01*
X335514Y154371D01*
X336784D01*
X338053Y153102D01*
Y150563D01*
X336784Y149293D01*
X331706Y156910D02*
X330436Y158180D01*
Y160719D01*
X331706Y161989D01*
X336784D01*
X338053Y160719D01*
Y158180D01*
X336784Y156910D01*
X331706D01*
X328072Y142310D02*
X320455D01*
Y146119D01*
X321724Y147389D01*
X324263D01*
X325533Y146119D01*
Y142310D01*
Y144849D02*
X328072Y147389D01*
Y149928D02*
Y152467D01*
Y151197D01*
X320455D01*
X321724Y149928D01*
X320455Y156276D02*
Y161354D01*
X321724D01*
X326803Y156276D01*
X328072D01*
X295636Y182438D02*
Y190056D01*
X299444D01*
X300714Y188786D01*
Y186247D01*
X299444Y184977D01*
X295636D01*
X298175D02*
X300714Y182438D01*
X303253D02*
X305792D01*
X304523D01*
Y190056D01*
X303253Y188786D01*
X309601Y183708D02*
X310871Y182438D01*
X313410D01*
X314680Y183708D01*
Y188786D01*
X313410Y190056D01*
X310871D01*
X309601Y188786D01*
Y187516D01*
X310871Y186247D01*
X314680D01*
X387396Y142945D02*
X379779D01*
Y146754D01*
X381048Y148023D01*
X383587D01*
X384857Y146754D01*
Y142945D01*
Y145484D02*
X387396Y148023D01*
Y155641D02*
Y150563D01*
X382318Y155641D01*
X381048D01*
X379779Y154371D01*
Y151832D01*
X381048Y150563D01*
X387396Y158180D02*
Y160719D01*
Y159450D01*
X379779D01*
X381048Y158180D01*
X440483Y183691D02*
Y191308D01*
X444292D01*
X445561Y190039D01*
Y187499D01*
X444292Y186230D01*
X440483D01*
X443022D02*
X445561Y183691D01*
X453179D02*
X448101D01*
X453179Y188769D01*
Y190039D01*
X451909Y191308D01*
X449370D01*
X448101Y190039D01*
X460796Y191308D02*
X455718D01*
Y187499D01*
X458257Y188769D01*
X459527D01*
X460796Y187499D01*
Y184960D01*
X459527Y183691D01*
X456988D01*
X455718Y184960D01*
X342249Y181287D02*
Y188905D01*
X346058D01*
X347327Y187635D01*
Y185096D01*
X346058Y183826D01*
X342249D01*
X344788D02*
X347327Y181287D01*
X354945D02*
X349866D01*
X354945Y186366D01*
Y187635D01*
X353675Y188905D01*
X351136D01*
X349866Y187635D01*
X362562Y188905D02*
X360023Y187635D01*
X357484Y185096D01*
Y182557D01*
X358754Y181287D01*
X361293D01*
X362562Y182557D01*
Y183826D01*
X361293Y185096D01*
X357484D01*
X288702Y141675D02*
X281085D01*
Y145484D01*
X282354Y146754D01*
X284893D01*
X286163Y145484D01*
Y141675D01*
Y144215D02*
X288702Y146754D01*
Y154371D02*
Y149293D01*
X283624Y154371D01*
X282354D01*
X281085Y153102D01*
Y150563D01*
X282354Y149293D01*
X288702Y161989D02*
Y156910D01*
X283624Y161989D01*
X282354D01*
X281085Y160719D01*
Y158180D01*
X282354Y156910D01*
X436879Y141675D02*
X429261D01*
Y145484D01*
X430531Y146754D01*
X433070D01*
X434340Y145484D01*
Y141675D01*
Y144215D02*
X436879Y146754D01*
Y154371D02*
Y149293D01*
X431800Y154371D01*
X430531D01*
X429261Y153102D01*
Y150563D01*
X430531Y149293D01*
X435609Y156910D02*
X436879Y158180D01*
Y160719D01*
X435609Y161989D01*
X430531D01*
X429261Y160719D01*
Y158180D01*
X430531Y156910D01*
X431800D01*
X433070Y158180D01*
Y161989D01*
X774699Y365762D02*
X767081D01*
Y369571D01*
X768351Y370840D01*
X770890D01*
X772160Y369571D01*
Y365762D01*
Y368301D02*
X774699Y370840D01*
Y373379D02*
Y375919D01*
Y374649D01*
X767081D01*
X768351Y373379D01*
X798830Y365761D02*
Y370839D01*
X797561Y372109D01*
X795021D01*
X793752Y370839D01*
Y365761D01*
X795021Y364491D01*
X797561D01*
X796291Y367031D02*
X798830Y364491D01*
X797561D02*
X798830Y365761D01*
X801369Y364491D02*
X803908D01*
X802639D01*
Y372109D01*
X801369Y370839D01*
X905510Y139699D02*
X902971D01*
X904241D01*
Y133351D01*
X902971Y132081D01*
X901702D01*
X900432Y133351D01*
X913128Y132081D02*
X908050D01*
X913128Y137160D01*
Y138429D01*
X911859Y139699D01*
X909319D01*
X908050Y138429D01*
X393072Y565786D02*
Y573404D01*
X396881D01*
X398150Y572134D01*
Y569595D01*
X396881Y568325D01*
X393072D01*
X395611D02*
X398150Y565786D01*
X400689D02*
X403229D01*
X401959D01*
Y573404D01*
X400689Y572134D01*
X410846Y565786D02*
Y573404D01*
X407037Y569595D01*
X412116D01*
X414655Y564517D02*
X419733D01*
X422272Y573404D02*
Y565786D01*
X426081D01*
X427351Y567056D01*
Y572134D01*
X426081Y573404D01*
X422272D01*
X429890Y570864D02*
X434968Y565786D01*
X432429Y568325D01*
X434968Y570864D01*
X429890Y565786D01*
X286392Y567056D02*
Y574674D01*
X290201D01*
X291470Y573404D01*
Y570865D01*
X290201Y569595D01*
X286392D01*
X288931D02*
X291470Y567056D01*
X294009D02*
X296549D01*
X295279D01*
Y574674D01*
X294009Y573404D01*
X300357D02*
X301627Y574674D01*
X304166D01*
X305436Y573404D01*
Y572135D01*
X304166Y570865D01*
X302897D01*
X304166D01*
X305436Y569595D01*
Y568326D01*
X304166Y567056D01*
X301627D01*
X300357Y568326D01*
X307975Y565787D02*
X313053D01*
X315592Y574674D02*
Y567056D01*
X319401D01*
X320671Y568326D01*
Y573404D01*
X319401Y574674D01*
X315592D01*
X323210Y572135D02*
X328288Y567056D01*
X325749Y569595D01*
X328288Y572135D01*
X323210Y567056D01*
X678822D02*
Y574674D01*
X682631D01*
X683900Y573404D01*
Y570865D01*
X682631Y569595D01*
X678822D01*
X681361D02*
X683900Y567056D01*
X686439D02*
X688979D01*
X687709D01*
Y574674D01*
X686439Y573404D01*
X692787D02*
X694057Y574674D01*
X696596D01*
X697866Y573404D01*
Y572135D01*
X696596Y570865D01*
X695327D01*
X696596D01*
X697866Y569595D01*
Y568326D01*
X696596Y567056D01*
X694057D01*
X692787Y568326D01*
X700405Y565787D02*
X705483D01*
X708023Y574674D02*
Y567056D01*
X711831D01*
X713101Y568326D01*
Y573404D01*
X711831Y574674D01*
X708023D01*
X715640Y572135D02*
X720718D01*
X715640Y567056D01*
X720718D01*
X786772Y565786D02*
Y573404D01*
X790581D01*
X791850Y572134D01*
Y569595D01*
X790581Y568325D01*
X786772D01*
X789311D02*
X791850Y565786D01*
X794389D02*
X796929D01*
X795659D01*
Y573404D01*
X794389Y572134D01*
X804546Y565786D02*
Y573404D01*
X800737Y569595D01*
X805816D01*
X808355Y564517D02*
X813433D01*
X815973Y573404D02*
Y565786D01*
X819781D01*
X821051Y567056D01*
Y572134D01*
X819781Y573404D01*
X815973D01*
X823590Y570864D02*
X828668D01*
X823590Y565786D01*
X828668D01*
X483242Y567691D02*
Y575308D01*
X487051D01*
X488320Y574039D01*
Y571500D01*
X487051Y570230D01*
X483242D01*
X485781D02*
X488320Y567691D01*
X490859D02*
X493399D01*
X492129D01*
Y575308D01*
X490859Y574039D01*
X497207D02*
X498477Y575308D01*
X501016D01*
X502286Y574039D01*
Y572769D01*
X501016Y571500D01*
X499747D01*
X501016D01*
X502286Y570230D01*
Y568961D01*
X501016Y567691D01*
X498477D01*
X497207Y568961D01*
X504825Y566421D02*
X509903D01*
X512443Y575308D02*
Y567691D01*
X516251D01*
X517521Y568961D01*
Y574039D01*
X516251Y575308D01*
X512443D01*
X520060Y572769D02*
Y568961D01*
X521330Y567691D01*
X525138D01*
Y566421D01*
X523869Y565152D01*
X522599D01*
X525138Y567691D02*
Y572769D01*
X591192Y566421D02*
Y574039D01*
X595001D01*
X596270Y572769D01*
Y570230D01*
X595001Y568960D01*
X591192D01*
X593731D02*
X596270Y566421D01*
X598809D02*
X601349D01*
X600079D01*
Y574039D01*
X598809Y572769D01*
X608966Y566421D02*
Y574039D01*
X605157Y570230D01*
X610236D01*
X612775Y565151D02*
X617853D01*
X620392Y574039D02*
Y566421D01*
X624201D01*
X625471Y567691D01*
Y572769D01*
X624201Y574039D01*
X620392D01*
X628010Y571499D02*
Y567691D01*
X629280Y566421D01*
X633088D01*
Y565151D01*
X631819Y563882D01*
X630549D01*
X633088Y566421D02*
Y571499D01*
X118112Y210819D02*
Y204471D01*
X119382Y203201D01*
X121921D01*
X123190Y204471D01*
Y210819D01*
X129538Y203201D02*
Y210819D01*
X125730Y207010D01*
X130808D01*
X264160Y349248D02*
Y342900D01*
X265430Y341630D01*
X267969D01*
X269238Y342900D01*
Y349248D01*
X271778Y341630D02*
X274317D01*
X273047D01*
Y349248D01*
X271778Y347978D01*
X581284Y692792D02*
X588902D01*
Y696601D01*
X587632Y697870D01*
X582554D01*
X581284Y696601D01*
Y692792D01*
X583824Y700409D02*
X588902D01*
X586363D01*
X585093Y701679D01*
X583824Y702949D01*
Y704218D01*
X588902Y708027D02*
Y710566D01*
Y709297D01*
X581284D01*
X582554Y708027D01*
X590171Y714375D02*
Y719453D01*
X581284Y721992D02*
X588902D01*
Y725801D01*
X587632Y727071D01*
X582554D01*
X581284Y725801D01*
Y721992D01*
X583824Y729610D02*
X587632D01*
X588902Y730880D01*
Y734688D01*
X590171D01*
X591441Y733419D01*
Y732149D01*
X588902Y734688D02*
X583824D01*
X384434Y692792D02*
X392052D01*
Y696601D01*
X390782Y697870D01*
X385704D01*
X384434Y696601D01*
Y692792D01*
X386973Y700409D02*
X392052D01*
X389513D01*
X388243Y701679D01*
X386973Y702949D01*
Y704218D01*
X392052Y708027D02*
Y710566D01*
Y709297D01*
X384434D01*
X385704Y708027D01*
X393321Y714375D02*
Y719453D01*
X384434Y721992D02*
X392052D01*
Y725801D01*
X390782Y727071D01*
X385704D01*
X384434Y725801D01*
Y721992D01*
X386973Y729610D02*
X392052Y734688D01*
X389513Y732149D01*
X386973Y734688D01*
X392052Y729610D01*
X786772Y545466D02*
Y553084D01*
X790581D01*
X791850Y551814D01*
Y549275D01*
X790581Y548005D01*
X786772D01*
X789311D02*
X791850Y545466D01*
X794389D02*
X796929D01*
X795659D01*
Y553084D01*
X794389Y551814D01*
X805816Y545466D02*
X800737D01*
X805816Y550545D01*
Y551814D01*
X804546Y553084D01*
X802007D01*
X800737Y551814D01*
X808355Y544197D02*
X813433D01*
X815973Y553084D02*
Y545466D01*
X819781D01*
X821051Y546736D01*
Y551814D01*
X819781Y553084D01*
X815973D01*
X823590Y550545D02*
X828668D01*
X823590Y545466D01*
X828668D01*
X589922Y546736D02*
Y554353D01*
X593731D01*
X595000Y553084D01*
Y550545D01*
X593731Y549275D01*
X589922D01*
X592461D02*
X595000Y546736D01*
X597539D02*
X600079D01*
X598809D01*
Y554353D01*
X597539Y553084D01*
X608966Y546736D02*
X603887D01*
X608966Y551814D01*
Y553084D01*
X607696Y554353D01*
X605157D01*
X603887Y553084D01*
X611505Y545466D02*
X616583D01*
X619123Y554353D02*
Y546736D01*
X622931D01*
X624201Y548005D01*
Y553084D01*
X622931Y554353D01*
X619123D01*
X626740Y551814D02*
Y548005D01*
X628010Y546736D01*
X631818D01*
Y545466D01*
X630549Y544197D01*
X629279D01*
X631818Y546736D02*
Y551814D01*
X679457Y548006D02*
Y555624D01*
X683266D01*
X684535Y554354D01*
Y551815D01*
X683266Y550545D01*
X679457D01*
X681996D02*
X684535Y548006D01*
X687074D02*
X689613D01*
X688344D01*
Y555624D01*
X687074Y554354D01*
X693422Y548006D02*
X695961D01*
X694692D01*
Y555624D01*
X693422Y554354D01*
X699770Y546737D02*
X704848D01*
X707388Y555624D02*
Y548006D01*
X711196D01*
X712466Y549276D01*
Y554354D01*
X711196Y555624D01*
X707388D01*
X715005Y553084D02*
X720083D01*
X715005Y548006D01*
X720083D01*
X482607Y549276D02*
Y556893D01*
X486415D01*
X487685Y555624D01*
Y553084D01*
X486415Y551815D01*
X482607D01*
X485146D02*
X487685Y549276D01*
X490224D02*
X492763D01*
X491494D01*
Y556893D01*
X490224Y555624D01*
X496572Y549276D02*
X499111D01*
X497842D01*
Y556893D01*
X496572Y555624D01*
X502920Y548006D02*
X507999D01*
X510538Y556893D02*
Y549276D01*
X514346D01*
X515616Y550545D01*
Y555624D01*
X514346Y556893D01*
X510538D01*
X518155Y554354D02*
Y550545D01*
X519425Y549276D01*
X523233D01*
Y548006D01*
X521964Y546737D01*
X520694D01*
X523233Y549276D02*
Y554354D01*
X772802Y433706D02*
Y441324D01*
X776611D01*
X777880Y440054D01*
Y437515D01*
X776611Y436245D01*
X772802D01*
X775341D02*
X777880Y433706D01*
X780419D02*
X782959D01*
X781689D01*
Y441324D01*
X780419Y440054D01*
X786767D02*
X788037Y441324D01*
X790576D01*
X791846Y440054D01*
Y434976D01*
X790576Y433706D01*
X788037D01*
X786767Y434976D01*
Y440054D01*
X794385Y432437D02*
X799463D01*
X802002Y441324D02*
Y433706D01*
X805811D01*
X807081Y434976D01*
Y440054D01*
X805811Y441324D01*
X802002D01*
X809620Y438784D02*
X814698D01*
X809620Y433706D01*
X814698D01*
X739774Y424186D02*
X732157D01*
Y427995D01*
X733426Y429264D01*
X735965D01*
X737235Y427995D01*
Y424186D01*
Y426725D02*
X739774Y429264D01*
X738504Y431803D02*
X739774Y433073D01*
Y435612D01*
X738504Y436882D01*
X733426D01*
X732157Y435612D01*
Y433073D01*
X733426Y431803D01*
X734696D01*
X735965Y433073D01*
Y436882D01*
X741044Y439421D02*
Y444499D01*
X732157Y447038D02*
X739774D01*
Y450847D01*
X738504Y452117D01*
X733426D01*
X732157Y450847D01*
Y447038D01*
X734696Y454656D02*
Y459734D01*
X739774Y454656D01*
Y459734D01*
X542924Y424186D02*
X535307D01*
Y427995D01*
X536576Y429264D01*
X539115D01*
X540385Y427995D01*
Y424186D01*
Y426725D02*
X542924Y429264D01*
X541655Y431803D02*
X542924Y433073D01*
Y435612D01*
X541655Y436882D01*
X536576D01*
X535307Y435612D01*
Y433073D01*
X536576Y431803D01*
X537846D01*
X539115Y433073D01*
Y436882D01*
X544194Y439421D02*
Y444499D01*
X535307Y447038D02*
X542924D01*
Y450847D01*
X541655Y452117D01*
X536576D01*
X535307Y450847D01*
Y447038D01*
X537846Y454656D02*
X541655D01*
X542924Y455926D01*
Y459734D01*
X544194D01*
X545463Y458465D01*
Y457195D01*
X542924Y459734D02*
X537846D01*
X788035Y462284D02*
X782956D01*
X781686Y461015D01*
Y458475D01*
X782956Y457206D01*
X788035D01*
X789304Y458475D01*
Y461015D01*
X786765Y459745D02*
X789304Y462284D01*
Y461015D02*
X788035Y462284D01*
X789304Y468632D02*
X781686D01*
X785495Y464823D01*
Y469902D01*
X790574Y472441D02*
Y477519D01*
X781686Y480059D02*
X789304D01*
Y483867D01*
X788035Y485137D01*
X782956D01*
X781686Y483867D01*
Y480059D01*
X784226Y487676D02*
Y492754D01*
X789304Y487676D01*
Y492754D01*
X590550Y462284D02*
X585471D01*
X584202Y461015D01*
Y458475D01*
X585471Y457206D01*
X590550D01*
X591819Y458475D01*
Y461015D01*
X589280Y459745D02*
X591819Y462284D01*
Y461015D02*
X590550Y462284D01*
X591819Y468632D02*
X584202D01*
X588010Y464823D01*
Y469902D01*
X593089Y472441D02*
Y477519D01*
X584202Y480059D02*
X591819D01*
Y483867D01*
X590550Y485137D01*
X585471D01*
X584202Y483867D01*
Y480059D01*
X586741Y487676D02*
X590550D01*
X591819Y488946D01*
Y492754D01*
X593089D01*
X594358Y491485D01*
Y490215D01*
X591819Y492754D02*
X586741D01*
X696594Y462284D02*
X691516D01*
X690247Y461015D01*
Y458475D01*
X691516Y457206D01*
X696594D01*
X697864Y458475D01*
Y461015D01*
X695325Y459745D02*
X697864Y462284D01*
Y461015D02*
X696594Y462284D01*
X691516Y464823D02*
X690247Y466093D01*
Y468632D01*
X691516Y469902D01*
X692786D01*
X694055Y468632D01*
Y467363D01*
Y468632D01*
X695325Y469902D01*
X696594D01*
X697864Y468632D01*
Y466093D01*
X696594Y464823D01*
X699134Y472441D02*
Y477519D01*
X690247Y480059D02*
X697864D01*
Y483867D01*
X696594Y485137D01*
X691516D01*
X690247Y483867D01*
Y480059D01*
X692786Y487676D02*
Y492754D01*
X697864Y487676D01*
Y492754D01*
X500380Y466094D02*
X495301D01*
X494032Y464825D01*
Y462285D01*
X495301Y461016D01*
X500380D01*
X501649Y462285D01*
Y464825D01*
X499110Y463555D02*
X501649Y466094D01*
Y464825D02*
X500380Y466094D01*
X495301Y468633D02*
X494032Y469903D01*
Y472442D01*
X495301Y473712D01*
X496571D01*
X497840Y472442D01*
Y471173D01*
Y472442D01*
X499110Y473712D01*
X500380D01*
X501649Y472442D01*
Y469903D01*
X500380Y468633D01*
X502919Y476251D02*
Y481329D01*
X494032Y483868D02*
X501649D01*
Y487677D01*
X500380Y488947D01*
X495301D01*
X494032Y487677D01*
Y483868D01*
X496571Y491486D02*
X500380D01*
X501649Y492756D01*
Y496564D01*
X502919D01*
X504188Y495295D01*
Y494025D01*
X501649Y496564D02*
X496571D01*
X705803Y826413D02*
Y823873D01*
Y825143D01*
X712151D01*
X713420Y823873D01*
Y822604D01*
X712151Y821334D01*
X713420Y832760D02*
X705803D01*
X709612Y828952D01*
Y834030D01*
X714690Y836569D02*
Y841648D01*
X705803Y844187D02*
X713420D01*
Y847996D01*
X712151Y849265D01*
X707072D01*
X705803Y847996D01*
Y844187D01*
X708342Y851804D02*
Y856883D01*
X713420Y851804D01*
Y856883D01*
X508953Y826413D02*
Y823873D01*
Y825143D01*
X515301D01*
X516570Y823873D01*
Y822604D01*
X515301Y821334D01*
X516570Y832760D02*
X508953D01*
X512761Y828952D01*
Y834030D01*
X517840Y836569D02*
Y841648D01*
X508953Y844187D02*
X516570D01*
Y847996D01*
X515301Y849265D01*
X510222D01*
X508953Y847996D01*
Y844187D01*
X511492Y851804D02*
X515301D01*
X516570Y853074D01*
Y856883D01*
X517840D01*
X519109Y855613D01*
Y854344D01*
X516570Y856883D02*
X511492D01*
X694056Y500386D02*
X701674D01*
Y504195D01*
X700405Y505464D01*
X695326D01*
X694056Y504195D01*
Y500386D01*
X701674Y511812D02*
X694056D01*
X697865Y508003D01*
Y513082D01*
X702944Y515621D02*
Y520699D01*
X694056Y523238D02*
X701674D01*
Y527047D01*
X700405Y528317D01*
X695326D01*
X694056Y527047D01*
Y523238D01*
X696596Y530856D02*
Y535934D01*
X701674Y530856D01*
Y535934D01*
X492762Y501656D02*
X500379D01*
Y505465D01*
X499110Y506734D01*
X494031D01*
X492762Y505465D01*
Y501656D01*
X500379Y513082D02*
X492762D01*
X496571Y509273D01*
Y514352D01*
X501649Y516891D02*
Y521969D01*
X492762Y524509D02*
X500379D01*
Y528317D01*
X499110Y529587D01*
X494031D01*
X492762Y528317D01*
Y524509D01*
X495301Y532126D02*
X499110D01*
X500379Y533396D01*
Y537204D01*
X501649D01*
X502919Y535935D01*
Y534665D01*
X500379Y537204D02*
X495301D01*
X774499Y501656D02*
X782116D01*
Y505465D01*
X780846Y506734D01*
X775768D01*
X774499Y505465D01*
Y501656D01*
X775768Y509273D02*
X774499Y510543D01*
Y513082D01*
X775768Y514352D01*
X777038D01*
X778307Y513082D01*
Y511813D01*
Y513082D01*
X779577Y514352D01*
X780846D01*
X782116Y513082D01*
Y510543D01*
X780846Y509273D01*
X783386Y516891D02*
Y521969D01*
X774499Y524509D02*
X782116D01*
Y528317D01*
X780846Y529587D01*
X775768D01*
X774499Y528317D01*
Y524509D01*
X777038Y532126D02*
Y537205D01*
X782116Y532126D01*
Y537205D01*
X577649Y501656D02*
X585266D01*
Y505465D01*
X583997Y506734D01*
X578918D01*
X577649Y505465D01*
Y501656D01*
X578918Y509273D02*
X577649Y510543D01*
Y513082D01*
X578918Y514352D01*
X580188D01*
X581457Y513082D01*
Y511813D01*
Y513082D01*
X582727Y514352D01*
X583997D01*
X585266Y513082D01*
Y510543D01*
X583997Y509273D01*
X586536Y516891D02*
Y521969D01*
X577649Y524509D02*
X585266D01*
Y528317D01*
X583997Y529587D01*
X578918D01*
X577649Y528317D01*
Y524509D01*
X580188Y532126D02*
X583997D01*
X585266Y533396D01*
Y537205D01*
X586536D01*
X587805Y535935D01*
Y534665D01*
X585266Y537205D02*
X580188D01*
X844554Y440054D02*
X843285Y441324D01*
X840745D01*
X839476Y440054D01*
Y434976D01*
X840745Y433706D01*
X843285D01*
X844554Y434976D01*
X847093D02*
X848363Y433706D01*
X850902D01*
X852172Y434976D01*
Y440054D01*
X850902Y441324D01*
X848363D01*
X847093Y440054D01*
Y438784D01*
X848363Y437515D01*
X852172D01*
X854711Y432437D02*
X859789D01*
X862328Y441324D02*
Y433706D01*
X866137D01*
X867407Y434976D01*
Y440054D01*
X866137Y441324D01*
X862328D01*
X869946Y438784D02*
X875024D01*
X869946Y433706D01*
X875024D01*
X645164Y439419D02*
X643895Y440689D01*
X641356D01*
X640086Y439419D01*
Y434341D01*
X641356Y433071D01*
X643895D01*
X645164Y434341D01*
X647703D02*
X648973Y433071D01*
X651512D01*
X652782Y434341D01*
Y439419D01*
X651512Y440689D01*
X648973D01*
X647703Y439419D01*
Y438149D01*
X648973Y436880D01*
X652782D01*
X655321Y431801D02*
X660399D01*
X662939Y440689D02*
Y433071D01*
X666747D01*
X668017Y434341D01*
Y439419D01*
X666747Y440689D01*
X662939D01*
X670556Y438149D02*
Y434341D01*
X671826Y433071D01*
X675634D01*
Y431801D01*
X674365Y430532D01*
X673095D01*
X675634Y433071D02*
Y438149D01*
X201932Y113029D02*
Y105411D01*
X205741D01*
X207010Y106681D01*
Y111759D01*
X205741Y113029D01*
X201932D01*
X214628D02*
X212089Y111759D01*
X209550Y109220D01*
Y106681D01*
X210819Y105411D01*
X213358D01*
X214628Y106681D01*
Y107951D01*
X213358Y109220D01*
X209550D01*
X201932Y123189D02*
Y115571D01*
X205741D01*
X207010Y116841D01*
Y121919D01*
X205741Y123189D01*
X201932D01*
X214628D02*
X209550D01*
Y119380D01*
X212089Y120650D01*
X213358D01*
X214628Y119380D01*
Y116841D01*
X213358Y115571D01*
X210819D01*
X209550Y116841D01*
X393072Y545466D02*
Y553084D01*
X396881D01*
X398150Y551814D01*
Y549275D01*
X396881Y548005D01*
X393072D01*
X395611D02*
X398150Y545466D01*
X400689D02*
X403229D01*
X401959D01*
Y553084D01*
X400689Y551814D01*
X412116Y545466D02*
X407037D01*
X412116Y550545D01*
Y551814D01*
X410846Y553084D01*
X408307D01*
X407037Y551814D01*
X414655Y544197D02*
X419733D01*
X422272Y553084D02*
Y545466D01*
X426081D01*
X427351Y546736D01*
Y551814D01*
X426081Y553084D01*
X422272D01*
X429890Y550545D02*
X434968Y545466D01*
X432429Y548005D01*
X434968Y550545D01*
X429890Y545466D01*
X285757Y548006D02*
Y555624D01*
X289566D01*
X290835Y554354D01*
Y551815D01*
X289566Y550545D01*
X285757D01*
X288296D02*
X290835Y548006D01*
X293374D02*
X295913D01*
X294644D01*
Y555624D01*
X293374Y554354D01*
X299722Y548006D02*
X302261D01*
X300992D01*
Y555624D01*
X299722Y554354D01*
X306070Y546737D02*
X311148D01*
X313688Y555624D02*
Y548006D01*
X317496D01*
X318766Y549276D01*
Y554354D01*
X317496Y555624D01*
X313688D01*
X321305Y553084D02*
X326384Y548006D01*
X323844Y550545D01*
X326384Y553084D01*
X321305Y548006D01*
X379102Y433706D02*
Y441324D01*
X382911D01*
X384180Y440054D01*
Y437515D01*
X382911Y436245D01*
X379102D01*
X381641D02*
X384180Y433706D01*
X386719D02*
X389259D01*
X387989D01*
Y441324D01*
X386719Y440054D01*
X393067D02*
X394337Y441324D01*
X396876D01*
X398146Y440054D01*
Y434976D01*
X396876Y433706D01*
X394337D01*
X393067Y434976D01*
Y440054D01*
X400685Y432437D02*
X405763D01*
X408302Y441324D02*
Y433706D01*
X412111D01*
X413381Y434976D01*
Y440054D01*
X412111Y441324D01*
X408302D01*
X415920Y438784D02*
X420998Y433706D01*
X418459Y436245D01*
X420998Y438784D01*
X415920Y433706D01*
X346074Y424186D02*
X338456D01*
Y427995D01*
X339726Y429264D01*
X342265D01*
X343535Y427995D01*
Y424186D01*
Y426725D02*
X346074Y429264D01*
X344804Y431803D02*
X346074Y433073D01*
Y435612D01*
X344804Y436882D01*
X339726D01*
X338456Y435612D01*
Y433073D01*
X339726Y431803D01*
X340996D01*
X342265Y433073D01*
Y436882D01*
X347344Y439421D02*
Y444499D01*
X338456Y447038D02*
X346074D01*
Y450847D01*
X344804Y452117D01*
X339726D01*
X338456Y450847D01*
Y447038D01*
X340996Y454656D02*
X346074Y459734D01*
X343535Y457195D01*
X340996Y459734D01*
X346074Y454656D01*
X393064Y462284D02*
X387986D01*
X386716Y461015D01*
Y458475D01*
X387986Y457206D01*
X393064D01*
X394334Y458475D01*
Y461015D01*
X391795Y459745D02*
X394334Y462284D01*
Y461015D02*
X393064Y462284D01*
X394334Y468632D02*
X386716D01*
X390525Y464823D01*
Y469902D01*
X395604Y472441D02*
Y477519D01*
X386716Y480059D02*
X394334D01*
Y483867D01*
X393064Y485137D01*
X387986D01*
X386716Y483867D01*
Y480059D01*
X389256Y487676D02*
X394334Y492754D01*
X391795Y490215D01*
X389256Y492754D01*
X394334Y487676D01*
X304165Y461014D02*
X299086D01*
X297817Y459745D01*
Y457206D01*
X299086Y455936D01*
X304165D01*
X305434Y457206D01*
Y459745D01*
X302895Y458475D02*
X305434Y461014D01*
Y459745D02*
X304165Y461014D01*
X299086Y463553D02*
X297817Y464823D01*
Y467362D01*
X299086Y468632D01*
X300356D01*
X301625Y467362D01*
Y466093D01*
Y467362D01*
X302895Y468632D01*
X304165D01*
X305434Y467362D01*
Y464823D01*
X304165Y463553D01*
X306704Y471171D02*
Y476249D01*
X297817Y478788D02*
X305434D01*
Y482597D01*
X304165Y483867D01*
X299086D01*
X297817Y482597D01*
Y478788D01*
X300356Y486406D02*
X305434Y491484D01*
X302895Y488945D01*
X300356Y491484D01*
X305434Y486406D01*
X312103Y826413D02*
Y823873D01*
Y825143D01*
X318451D01*
X319720Y823873D01*
Y822604D01*
X318451Y821334D01*
X319720Y832760D02*
X312103D01*
X315912Y828952D01*
Y834030D01*
X320990Y836569D02*
Y841648D01*
X312103Y844187D02*
X319720D01*
Y847996D01*
X318451Y849265D01*
X313372D01*
X312103Y847996D01*
Y844187D01*
X314642Y851804D02*
X319720Y856883D01*
X317181Y854344D01*
X314642Y856883D01*
X319720Y851804D01*
X299086Y501656D02*
X306704D01*
Y505465D01*
X305434Y506734D01*
X300356D01*
X299086Y505465D01*
Y501656D01*
X306704Y513082D02*
X299086D01*
X302895Y509273D01*
Y514352D01*
X307974Y516891D02*
Y521969D01*
X299086Y524509D02*
X306704D01*
Y528317D01*
X305434Y529587D01*
X300356D01*
X299086Y528317D01*
Y524509D01*
X301626Y532126D02*
X306704Y537204D01*
X304165Y534665D01*
X301626Y537204D01*
X306704Y532126D01*
X380799Y501656D02*
X388416D01*
Y505465D01*
X387146Y506734D01*
X382068D01*
X380799Y505465D01*
Y501656D01*
X382068Y509273D02*
X380799Y510543D01*
Y513082D01*
X382068Y514352D01*
X383338D01*
X384607Y513082D01*
Y511813D01*
Y513082D01*
X385877Y514352D01*
X387146D01*
X388416Y513082D01*
Y510543D01*
X387146Y509273D01*
X389686Y516891D02*
Y521969D01*
X380799Y524509D02*
X388416D01*
Y528317D01*
X387146Y529587D01*
X382068D01*
X380799Y528317D01*
Y524509D01*
X383338Y532126D02*
X388416Y537205D01*
X385877Y534665D01*
X383338Y537205D01*
X388416Y532126D01*
X718821Y294642D02*
X726439D01*
Y298451D01*
X725169Y299721D01*
X720091D01*
X718821Y298451D01*
Y294642D01*
X726439Y307338D02*
Y302260D01*
X721360Y307338D01*
X720091D01*
X718821Y306068D01*
Y303529D01*
X720091Y302260D01*
X870058Y338447D02*
X868789Y339716D01*
X866249D01*
X864980Y338447D01*
Y333368D01*
X866249Y332099D01*
X868789D01*
X870058Y333368D01*
X872597Y332099D02*
X875136D01*
X873867D01*
Y339716D01*
X872597Y338447D01*
X723901Y236222D02*
X731519D01*
Y240031D01*
X730249Y241300D01*
X725171D01*
X723901Y240031D01*
Y236222D01*
X731519Y243839D02*
Y246378D01*
Y245109D01*
X723901D01*
X725171Y243839D01*
X969010Y346709D02*
X966471D01*
X967741D01*
Y340361D01*
X966471Y339091D01*
X965201D01*
X963932Y340361D01*
X971549Y339091D02*
X974089D01*
X972819D01*
Y346709D01*
X971549Y345439D01*
X141037Y209040D02*
X147385D01*
X148655Y210310D01*
Y212849D01*
X147385Y214118D01*
X141037D01*
X142307Y216658D02*
X141037Y217927D01*
Y220466D01*
X142307Y221736D01*
X143576D01*
X144846Y220466D01*
Y219197D01*
Y220466D01*
X146116Y221736D01*
X147385D01*
X148655Y220466D01*
Y217927D01*
X147385Y216658D01*
X541022Y227329D02*
Y220981D01*
X542292Y219711D01*
X544831D01*
X546101Y220981D01*
Y227329D01*
X553718Y219711D02*
X548640D01*
X553718Y224790D01*
Y226059D01*
X552449Y227329D01*
X549909D01*
X548640Y226059D01*
X87632Y598169D02*
X86362Y599439D01*
X83823D01*
X82553Y598169D01*
Y596900D01*
X83823Y595630D01*
X86362D01*
X87632Y594361D01*
Y593091D01*
X86362Y591821D01*
X83823D01*
X82553Y593091D01*
X90171Y599439D02*
Y591821D01*
X92710Y594361D01*
X95249Y591821D01*
Y599439D01*
X102867Y591821D02*
X97788D01*
X102867Y596900D01*
Y598169D01*
X101597Y599439D01*
X99058D01*
X97788Y598169D01*
X87631Y285749D02*
X86362Y287019D01*
X83823D01*
X82553Y285749D01*
Y284480D01*
X83823Y283210D01*
X86362D01*
X87631Y281941D01*
Y280671D01*
X86362Y279401D01*
X83823D01*
X82553Y280671D01*
X90170Y287019D02*
Y279401D01*
X92710Y281941D01*
X95249Y279401D01*
Y287019D01*
X97788Y279401D02*
X100327D01*
X99058D01*
Y287019D01*
X97788Y285749D01*
X25311Y114874D02*
X17694D01*
Y118683D01*
X18963Y119953D01*
X21502D01*
X22772Y118683D01*
Y114874D01*
Y117414D02*
X25311Y119953D01*
X18963Y122492D02*
X17694Y123762D01*
Y126301D01*
X18963Y127570D01*
X20233D01*
X21502Y126301D01*
Y125031D01*
Y126301D01*
X22772Y127570D01*
X24042D01*
X25311Y126301D01*
Y123762D01*
X24042Y122492D01*
X17694Y135188D02*
X18963Y132649D01*
X21502Y130110D01*
X24042D01*
X25311Y131379D01*
Y133918D01*
X24042Y135188D01*
X22772D01*
X21502Y133918D01*
Y130110D01*
X65620Y116144D02*
X58003D01*
Y119953D01*
X59272Y121223D01*
X61811D01*
X63081Y119953D01*
Y116144D01*
Y118684D02*
X65620Y121223D01*
X59272Y123762D02*
X58003Y125032D01*
Y127571D01*
X59272Y128840D01*
X60542D01*
X61811Y127571D01*
Y126301D01*
Y127571D01*
X63081Y128840D01*
X64351D01*
X65620Y127571D01*
Y125032D01*
X64351Y123762D01*
X58003Y136458D02*
Y131379D01*
X61811D01*
X60542Y133919D01*
Y135188D01*
X61811Y136458D01*
X64351D01*
X65620Y135188D01*
Y132649D01*
X64351Y131379D01*
X235454Y127494D02*
Y135112D01*
X239263D01*
X240532Y133842D01*
Y131303D01*
X239263Y130033D01*
X235454D01*
X237993D02*
X240532Y127494D01*
X243071Y133842D02*
X244341Y135112D01*
X246880D01*
X248150Y133842D01*
Y132572D01*
X246880Y131303D01*
X245610D01*
X246880D01*
X248150Y130033D01*
Y128764D01*
X246880Y127494D01*
X244341D01*
X243071Y128764D01*
X254498Y127494D02*
Y135112D01*
X250689Y131303D01*
X255767D01*
X235790Y158245D02*
Y165863D01*
X239599D01*
X240868Y164593D01*
Y162054D01*
X239599Y160784D01*
X235790D01*
X238329D02*
X240868Y158245D01*
X243407Y164593D02*
X244677Y165863D01*
X247216D01*
X248486Y164593D01*
Y163324D01*
X247216Y162054D01*
X245947D01*
X247216D01*
X248486Y160784D01*
Y159515D01*
X247216Y158245D01*
X244677D01*
X243407Y159515D01*
X251025Y164593D02*
X252295Y165863D01*
X254834D01*
X256103Y164593D01*
Y163324D01*
X254834Y162054D01*
X253564D01*
X254834D01*
X256103Y160784D01*
Y159515D01*
X254834Y158245D01*
X252295D01*
X251025Y159515D01*
X40643Y589281D02*
Y596899D01*
X44452D01*
X45721Y595629D01*
Y593090D01*
X44452Y591821D01*
X40643D01*
X43182D02*
X45721Y589281D01*
X48260Y595629D02*
X49530Y596899D01*
X52069D01*
X53339Y595629D01*
Y594360D01*
X52069Y593090D01*
X50800D01*
X52069D01*
X53339Y591821D01*
Y590551D01*
X52069Y589281D01*
X49530D01*
X48260Y590551D01*
X55878Y589281D02*
X58417D01*
X57148D01*
Y596899D01*
X55878Y595629D01*
X203203Y534671D02*
Y542289D01*
X207012D01*
X208282Y541019D01*
Y538480D01*
X207012Y537211D01*
X203203D01*
X205743D02*
X208282Y534671D01*
X215899D02*
X210821D01*
X215899Y539750D01*
Y541019D01*
X214630Y542289D01*
X212091D01*
X210821Y541019D01*
X218438Y542289D02*
X223517D01*
Y541019D01*
X218438Y535941D01*
Y534671D01*
X199393Y187961D02*
Y195579D01*
X203202D01*
X204472Y194309D01*
Y191770D01*
X203202Y190501D01*
X199393D01*
X201933D02*
X204472Y187961D01*
X207011Y194309D02*
X208281Y195579D01*
X210820D01*
X212089Y194309D01*
Y193040D01*
X210820Y191770D01*
X209550D01*
X210820D01*
X212089Y190501D01*
Y189231D01*
X210820Y187961D01*
X208281D01*
X207011Y189231D01*
X219707Y187961D02*
X214629D01*
X219707Y193040D01*
Y194309D01*
X218437Y195579D01*
X215898D01*
X214629Y194309D01*
X168489Y259488D02*
Y267105D01*
X172298D01*
X173567Y265836D01*
Y263297D01*
X172298Y262027D01*
X168489D01*
X171028D02*
X173567Y259488D01*
X181185D02*
X176107D01*
X181185Y264566D01*
Y265836D01*
X179915Y267105D01*
X177376D01*
X176107Y265836D01*
X183724D02*
X184994Y267105D01*
X187533D01*
X188803Y265836D01*
Y264566D01*
X187533Y263297D01*
X188803Y262027D01*
Y260757D01*
X187533Y259488D01*
X184994D01*
X183724Y260757D01*
Y262027D01*
X184994Y263297D01*
X183724Y264566D01*
Y265836D01*
X184994Y263297D02*
X187533D01*
X40643Y259081D02*
Y266699D01*
X44452D01*
X45722Y265429D01*
Y262890D01*
X44452Y261621D01*
X40643D01*
X43183D02*
X45722Y259081D01*
X53339D02*
X48261D01*
X53339Y264160D01*
Y265429D01*
X52070Y266699D01*
X49531D01*
X48261Y265429D01*
X55879D02*
X57148Y266699D01*
X59687D01*
X60957Y265429D01*
Y260351D01*
X59687Y259081D01*
X57148D01*
X55879Y260351D01*
Y265429D01*
X41278Y280671D02*
Y288289D01*
X45087D01*
X46357Y287019D01*
Y284480D01*
X45087Y283211D01*
X41278D01*
X43817D02*
X46357Y280671D01*
X48896D02*
X51435D01*
X50165D01*
Y288289D01*
X48896Y287019D01*
X60322Y288289D02*
X55244D01*
Y284480D01*
X57783Y285750D01*
X59053D01*
X60322Y284480D01*
Y281941D01*
X59053Y280671D01*
X56513D01*
X55244Y281941D01*
X473712Y261621D02*
Y269239D01*
X477521D01*
X478791Y267969D01*
Y265430D01*
X477521Y264161D01*
X473712D01*
X476251D02*
X478791Y261621D01*
X481330Y267969D02*
X482599Y269239D01*
X485139D01*
X486408Y267969D01*
Y266700D01*
X485139Y265430D01*
X486408Y264161D01*
Y262891D01*
X485139Y261621D01*
X482599D01*
X481330Y262891D01*
Y264161D01*
X482599Y265430D01*
X481330Y266700D01*
Y267969D01*
X482599Y265430D02*
X485139D01*
X518159Y208282D02*
X510541D01*
Y212091D01*
X511811Y213361D01*
X514350D01*
X515620Y212091D01*
Y208282D01*
Y210821D02*
X518159Y213361D01*
X510541Y215900D02*
Y220978D01*
X511811D01*
X516889Y215900D01*
X518159D01*
X491489Y281942D02*
X483871D01*
Y285751D01*
X485141Y287021D01*
X487680D01*
X488950Y285751D01*
Y281942D01*
Y284481D02*
X491489Y287021D01*
X483871Y294638D02*
X485141Y292099D01*
X487680Y289560D01*
X490219D01*
X491489Y290829D01*
Y293368D01*
X490219Y294638D01*
X488950D01*
X487680Y293368D01*
Y289560D01*
X554992Y303531D02*
Y311149D01*
X558801D01*
X560070Y309879D01*
Y307340D01*
X558801Y306071D01*
X554992D01*
X557531D02*
X560070Y303531D01*
X567688Y311149D02*
X562610D01*
Y307340D01*
X565149Y308610D01*
X566418D01*
X567688Y307340D01*
Y304801D01*
X566418Y303531D01*
X563879D01*
X562610Y304801D01*
X866142Y346711D02*
Y354329D01*
X869951D01*
X871220Y353059D01*
Y350520D01*
X869951Y349251D01*
X866142D01*
X868681D02*
X871220Y346711D01*
X873760Y353059D02*
X875029Y354329D01*
X877569D01*
X878838Y353059D01*
Y351790D01*
X877569Y350520D01*
X876299D01*
X877569D01*
X878838Y349251D01*
Y347981D01*
X877569Y346711D01*
X875029D01*
X873760Y347981D01*
X738471Y331913D02*
X730854D01*
Y335722D01*
X732123Y336991D01*
X734663D01*
X735932Y335722D01*
Y331913D01*
Y334452D02*
X738471Y336991D01*
Y343339D02*
X730854D01*
X734663Y339530D01*
Y344609D01*
X824229Y360682D02*
X816611D01*
Y364491D01*
X817881Y365760D01*
X820420D01*
X821690Y364491D01*
Y360682D01*
Y363221D02*
X824229Y365760D01*
Y373378D02*
Y368300D01*
X819150Y373378D01*
X817881D01*
X816611Y372108D01*
Y369569D01*
X817881Y368300D01*
X250777Y233393D02*
Y238471D01*
X249507Y239741D01*
X246968D01*
X245698Y238471D01*
Y233393D01*
X246968Y232123D01*
X249507D01*
X248237Y234662D02*
X250777Y232123D01*
X249507D02*
X250777Y233393D01*
X258394Y239741D02*
X255855Y238471D01*
X253316Y235932D01*
Y233393D01*
X254585Y232123D01*
X257125D01*
X258394Y233393D01*
Y234662D01*
X257125Y235932D01*
X253316D01*
X215900Y248921D02*
Y253999D01*
X214631Y255269D01*
X212092D01*
X210822Y253999D01*
Y248921D01*
X212092Y247651D01*
X214631D01*
X213361Y250191D02*
X215900Y247651D01*
X214631D02*
X215900Y248921D01*
X223518Y255269D02*
X218440D01*
Y251460D01*
X220979Y252730D01*
X222248D01*
X223518Y251460D01*
Y248921D01*
X222248Y247651D01*
X219709D01*
X218440Y248921D01*
X873761Y373381D02*
Y378459D01*
X872491Y379729D01*
X869952D01*
X868682Y378459D01*
Y373381D01*
X869952Y372111D01*
X872491D01*
X871221Y374651D02*
X873761Y372111D01*
X872491D02*
X873761Y373381D01*
X881378Y372111D02*
X876300D01*
X881378Y377190D01*
Y378459D01*
X880108Y379729D01*
X877569D01*
X876300Y378459D01*
X11113Y536191D02*
Y543809D01*
X13652Y541270D01*
X16191Y543809D01*
Y536191D01*
X18730Y543809D02*
Y536191D01*
X22539D01*
X23809Y537461D01*
Y542539D01*
X22539Y543809D01*
X18730D01*
X26348Y536191D02*
X28887D01*
X27617D01*
Y543809D01*
X26348Y542539D01*
X-5080Y250191D02*
X-3810D01*
X-2541Y251460D01*
Y257808D01*
X7616Y260348D02*
X2538D01*
Y256539D01*
X5077Y257808D01*
X6346D01*
X7616Y256539D01*
Y254000D01*
X6346Y252730D01*
X3807D01*
X2538Y254000D01*
X722630Y154939D02*
X720091D01*
X721361D01*
Y148591D01*
X720091Y147321D01*
X718822D01*
X717552Y148591D01*
X725170Y153669D02*
X726439Y154939D01*
X728979D01*
X730248Y153669D01*
Y152400D01*
X728979Y151130D01*
X727709D01*
X728979D01*
X730248Y149861D01*
Y148591D01*
X728979Y147321D01*
X726439D01*
X725170Y148591D01*
X612245Y136191D02*
X609706D01*
X610976D01*
Y129843D01*
X609706Y128573D01*
X608437D01*
X607167Y129843D01*
X614785Y128573D02*
X617324D01*
X616054D01*
Y136191D01*
X614785Y134921D01*
X621133Y128573D02*
X623672D01*
X622402D01*
Y136191D01*
X621133Y134921D01*
X539776Y136191D02*
X537237D01*
X538506D01*
Y129843D01*
X537237Y128573D01*
X535967D01*
X534697Y129843D01*
X542315Y128573D02*
X544854D01*
X543585D01*
Y136191D01*
X542315Y134921D01*
X548663D02*
X549933Y136191D01*
X552472D01*
X553741Y134921D01*
Y129843D01*
X552472Y128573D01*
X549933D01*
X548663Y129843D01*
Y134921D01*
X468630Y136191D02*
X466091D01*
X467361D01*
Y129843D01*
X466091Y128573D01*
X464822D01*
X463552Y129843D01*
X471170D02*
X472439Y128573D01*
X474978D01*
X476248Y129843D01*
Y134921D01*
X474978Y136191D01*
X472439D01*
X471170Y134921D01*
Y133652D01*
X472439Y132382D01*
X476248D01*
X394971Y136191D02*
X392431D01*
X393701D01*
Y129843D01*
X392431Y128573D01*
X391162D01*
X389892Y129843D01*
X397510Y134921D02*
X398779Y136191D01*
X401319D01*
X402588Y134921D01*
Y133652D01*
X401319Y132382D01*
X402588Y131113D01*
Y129843D01*
X401319Y128573D01*
X398779D01*
X397510Y129843D01*
Y131113D01*
X398779Y132382D01*
X397510Y133652D01*
Y134921D01*
X398779Y132382D02*
X401319D01*
X326390Y136191D02*
X323851D01*
X325121D01*
Y129843D01*
X323851Y128573D01*
X322582D01*
X321312Y129843D01*
X328930Y136191D02*
X334008D01*
Y134921D01*
X328930Y129843D01*
Y128573D01*
X232411Y118109D02*
X229871D01*
X231141D01*
Y111761D01*
X229871Y110491D01*
X228602D01*
X227332Y111761D01*
X240028Y118109D02*
X237489Y116839D01*
X234950Y114300D01*
Y111761D01*
X236219Y110491D01*
X238759D01*
X240028Y111761D01*
Y113031D01*
X238759Y114300D01*
X234950D01*
X101604Y783589D02*
X100334Y784859D01*
X97795D01*
X96525Y783589D01*
Y778511D01*
X97795Y777241D01*
X100334D01*
X101604Y778511D01*
X104143Y777241D02*
Y782320D01*
X106682Y784859D01*
X109221Y782320D01*
Y777241D01*
Y781050D01*
X104143D01*
X111761Y777241D02*
Y784859D01*
X115569D01*
X116839Y783589D01*
Y781050D01*
X115569Y779781D01*
X111761D01*
X114300D02*
X116839Y777241D01*
X119378Y784859D02*
Y777241D01*
X123187D01*
X124456Y778511D01*
Y783589D01*
X123187Y784859D01*
X119378D01*
X126996Y777241D02*
X129535D01*
X128265D01*
Y784859D01*
X126996Y783589D01*
X165754Y140969D02*
X164485Y142239D01*
X161945D01*
X160676Y140969D01*
Y135891D01*
X161945Y134621D01*
X164485D01*
X165754Y135891D01*
X168293Y134621D02*
X170833D01*
X169563D01*
Y142239D01*
X168293Y140969D01*
X174641D02*
X175911Y142239D01*
X178450D01*
X179720Y140969D01*
Y139700D01*
X178450Y138430D01*
X179720Y137161D01*
Y135891D01*
X178450Y134621D01*
X175911D01*
X174641Y135891D01*
Y137161D01*
X175911Y138430D01*
X174641Y139700D01*
Y140969D01*
X175911Y138430D02*
X178450D01*
X165754Y152399D02*
X164485Y153669D01*
X161945D01*
X160676Y152399D01*
Y147321D01*
X161945Y146051D01*
X164485D01*
X165754Y147321D01*
X168293Y146051D02*
X170833D01*
X169563D01*
Y153669D01*
X168293Y152399D01*
X174641Y153669D02*
X179720D01*
Y152399D01*
X174641Y147321D01*
Y146051D01*
X99079Y89229D02*
X97809Y87959D01*
Y85420D01*
X99079Y84150D01*
X104157D01*
X105427Y85420D01*
Y87959D01*
X104157Y89229D01*
X105427Y91768D02*
Y94307D01*
Y93038D01*
X97809D01*
X99079Y91768D01*
X97809Y103194D02*
X99079Y100655D01*
X101618Y98116D01*
X104157D01*
X105427Y99386D01*
Y101925D01*
X104157Y103194D01*
X102887D01*
X101618Y101925D01*
Y98116D01*
X113049Y88775D02*
X111779Y87505D01*
Y84966D01*
X113049Y83696D01*
X118127D01*
X119396Y84966D01*
Y87505D01*
X118127Y88775D01*
X119396Y91314D02*
Y93853D01*
Y92583D01*
X111779D01*
X113049Y91314D01*
X111779Y102740D02*
Y97662D01*
X115588D01*
X114318Y100201D01*
Y101470D01*
X115588Y102740D01*
X118127D01*
X119396Y101470D01*
Y98931D01*
X118127Y97662D01*
X43817Y566419D02*
X42547Y567689D01*
X40008D01*
X38738Y566419D01*
Y561341D01*
X40008Y560071D01*
X42547D01*
X43817Y561341D01*
X46356Y560071D02*
X48895D01*
X47625D01*
Y567689D01*
X46356Y566419D01*
X56512Y560071D02*
Y567689D01*
X52704Y563880D01*
X57782D01*
X46357Y276859D02*
X45087Y278129D01*
X42548D01*
X41278Y276859D01*
Y271781D01*
X42548Y270511D01*
X45087D01*
X46357Y271781D01*
X48896Y270511D02*
X51435D01*
X50165D01*
Y278129D01*
X48896Y276859D01*
X55244D02*
X56513Y278129D01*
X59053D01*
X60322Y276859D01*
Y275590D01*
X59053Y274320D01*
X57783D01*
X59053D01*
X60322Y273051D01*
Y271781D01*
X59053Y270511D01*
X56513D01*
X55244Y271781D01*
X15877Y300989D02*
X14607Y302259D01*
X12068D01*
X10798Y300989D01*
Y295911D01*
X12068Y294641D01*
X14607D01*
X15877Y295911D01*
X18416Y294641D02*
X20955D01*
X19685D01*
Y302259D01*
X18416Y300989D01*
X29842Y294641D02*
X24764D01*
X29842Y299720D01*
Y300989D01*
X28572Y302259D01*
X26033D01*
X24764Y300989D01*
X18416Y290829D02*
X17147Y292099D01*
X14607D01*
X13338Y290829D01*
Y285751D01*
X14607Y284481D01*
X17147D01*
X18416Y285751D01*
X20955Y284481D02*
X23495D01*
X22225D01*
Y292099D01*
X20955Y290829D01*
X27303Y284481D02*
X29843D01*
X28573D01*
Y292099D01*
X27303Y290829D01*
X197487Y697229D02*
X196217Y698499D01*
X193678D01*
X192408Y697229D01*
Y692151D01*
X193678Y690881D01*
X196217D01*
X197487Y692151D01*
X200026Y690881D02*
X202565D01*
X201295D01*
Y698499D01*
X200026Y697229D01*
X206374D02*
X207643Y698499D01*
X210182D01*
X211452Y697229D01*
Y692151D01*
X210182Y690881D01*
X207643D01*
X206374Y692151D01*
Y697229D01*
X483871Y241301D02*
X482601Y240031D01*
Y237492D01*
X483871Y236222D01*
X488949D01*
X490219Y237492D01*
Y240031D01*
X488949Y241301D01*
X483871Y243840D02*
X482601Y245109D01*
Y247649D01*
X483871Y248918D01*
X485140D01*
X486410Y247649D01*
X487680Y248918D01*
X488949D01*
X490219Y247649D01*
Y245109D01*
X488949Y243840D01*
X487680D01*
X486410Y245109D01*
X485140Y243840D01*
X483871D01*
X486410Y245109D02*
Y247649D01*
X595630Y313689D02*
X594361Y314959D01*
X591822D01*
X590552Y313689D01*
Y308611D01*
X591822Y307341D01*
X594361D01*
X595630Y308611D01*
X598170Y314959D02*
X603248D01*
Y313689D01*
X598170Y308611D01*
Y307341D01*
X367031Y291479D02*
X365761Y290209D01*
Y287670D01*
X367031Y286400D01*
X372109D01*
X373379Y287670D01*
Y290209D01*
X372109Y291479D01*
X365761Y299096D02*
X367031Y296557D01*
X369570Y294018D01*
X372109D01*
X373379Y295287D01*
Y297826D01*
X372109Y299096D01*
X370840D01*
X369570Y297826D01*
Y294018D01*
X382123Y324178D02*
X380853Y322909D01*
Y320369D01*
X382123Y319100D01*
X387201D01*
X388471Y320369D01*
Y322909D01*
X387201Y324178D01*
X380853Y331796D02*
Y326717D01*
X384662D01*
X383392Y329257D01*
Y330526D01*
X384662Y331796D01*
X387201D01*
X388471Y330526D01*
Y327987D01*
X387201Y326717D01*
X516890Y326389D02*
X515621Y327659D01*
X513082D01*
X511812Y326389D01*
Y321311D01*
X513082Y320041D01*
X515621D01*
X516890Y321311D01*
X523238Y320041D02*
Y327659D01*
X519430Y323850D01*
X524508D01*
X523241Y290831D02*
X521971Y289561D01*
Y287022D01*
X523241Y285752D01*
X528319D01*
X529589Y287022D01*
Y289561D01*
X528319Y290831D01*
X523241Y293370D02*
X521971Y294639D01*
Y297178D01*
X523241Y298448D01*
X524510D01*
X525780Y297178D01*
Y295909D01*
Y297178D01*
X527050Y298448D01*
X528319D01*
X529589Y297178D01*
Y294639D01*
X528319Y293370D01*
X614681Y254111D02*
X613411Y252841D01*
Y250302D01*
X614681Y249032D01*
X619759D01*
X621029Y250302D01*
Y252841D01*
X619759Y254111D01*
X621029Y261728D02*
Y256650D01*
X615951Y261728D01*
X614681D01*
X613411Y260459D01*
Y257919D01*
X614681Y256650D01*
D13*
X497049Y132432D02*
G03*
X497049Y132432I-1000J0D01*
G01*
X569519D02*
G03*
X569519Y132432I-1000J0D01*
G01*
X641989Y132732D02*
G03*
X641989Y132732I-1000J0D01*
G01*
X279639Y132432D02*
G03*
X279639Y132432I-1000J0D01*
G01*
X352109D02*
G03*
X352109Y132432I-1000J0D01*
G01*
X424579D02*
G03*
X424579Y132432I-1000J0D01*
G01*
X453120Y829310D02*
G03*
X453120Y829310I-1000J0D01*
G01*
X649970D02*
G03*
X649970Y829310I-1000J0D01*
G01*
X846820D02*
G03*
X846820Y829310I-1000J0D01*
G01*
X34675Y146410D02*
X47175D01*
X34675Y242210D02*
X47175D01*
X-5325Y146410D02*
X7475D01*
X-5325Y242210D02*
X7475D01*
D14*
X160520Y226780D02*
G03*
X160520Y226780I-500J0D01*
G01*
D15*
X771906Y500458D02*
Y540082D01*
X752856Y500458D02*
X771906D01*
X752856D02*
Y540082D01*
X771906D01*
X732714Y500458D02*
Y540082D01*
X713664Y500458D02*
X732714D01*
X713664D02*
Y540082D01*
X732714D01*
X516814D02*
X535864D01*
X516814Y500458D02*
Y540082D01*
Y500458D02*
X535864D01*
Y540082D01*
X756412Y281608D02*
Y321232D01*
X737362Y281608D02*
X756412D01*
X737362D02*
Y321232D01*
X756412D01*
X378205Y500458D02*
Y540082D01*
X359156Y500458D02*
X378205D01*
X359156D02*
Y540082D01*
X378205D01*
X575056Y500458D02*
Y540082D01*
X556006Y500458D02*
X575056D01*
X556006D02*
Y540082D01*
X575056D01*
X339014Y500458D02*
Y540082D01*
X319964Y500458D02*
X339014D01*
X319964D02*
Y540082D01*
X339014D01*
X188140Y183454D02*
X227764D01*
Y164404D02*
Y183454D01*
X188140Y164404D02*
X227764D01*
X188140D02*
Y183454D01*
Y152720D02*
X227764D01*
Y133670D02*
Y152720D01*
X188140Y133670D02*
X227764D01*
X188140D02*
Y152720D01*
X190938Y76950D02*
X199403D01*
X195170Y81182D02*
Y72718D01*
X203634Y81182D02*
X205750Y83298D01*
X209982D01*
X212098Y81182D01*
Y79066D01*
X209982Y76950D01*
X207866D01*
X209982D01*
X212098Y74834D01*
Y72718D01*
X209982Y70602D01*
X205750D01*
X203634Y72718D01*
X216330Y79066D02*
X220562Y70602D01*
X224794Y79066D01*
X229026Y81182D02*
X231142Y83298D01*
X235374D01*
X237490Y81182D01*
Y79066D01*
X235374Y76950D01*
X233258D01*
X235374D01*
X237490Y74834D01*
Y72718D01*
X235374Y70602D01*
X231142D01*
X229026Y72718D01*
X176127Y59851D02*
X174011Y61967D01*
X169779D01*
X167663Y59851D01*
Y57735D01*
X169779Y55619D01*
X174011D01*
X176127Y53503D01*
Y51387D01*
X174011Y49271D01*
X169779D01*
X167663Y51387D01*
X180359Y61967D02*
X184591D01*
X182475D01*
Y49271D01*
X180359D01*
X184591D01*
X199403Y59851D02*
X197286Y61967D01*
X193055D01*
X190938Y59851D01*
Y51387D01*
X193055Y49271D01*
X197286D01*
X199403Y51387D01*
Y55619D01*
X195170D01*
X203634Y49271D02*
Y61967D01*
X212098Y49271D01*
Y61967D01*
X216330Y49271D02*
Y57735D01*
X220562Y61967D01*
X224794Y57735D01*
Y49271D01*
Y55619D01*
X216330D01*
X229026Y61967D02*
Y49271D01*
X237490D01*
X212098Y38520D02*
X209982Y40636D01*
X205750D01*
X203634Y38520D01*
Y30056D01*
X205750Y27940D01*
X209982D01*
X212098Y30056D01*
Y34288D01*
X207866D01*
X216330Y27940D02*
Y40636D01*
X224794Y27940D01*
Y40636D01*
X229026D02*
Y27940D01*
X235374D01*
X237490Y30056D01*
Y38520D01*
X235374Y40636D01*
X229026D01*
X707390Y16510D02*
Y20742D01*
Y18626D01*
X694694D01*
X696810Y16510D01*
X707390Y35554D02*
Y27090D01*
X698926Y35554D01*
X696810D01*
X694694Y33438D01*
Y29206D01*
X696810Y27090D01*
X698926Y39786D02*
X707390Y44018D01*
X698926Y48250D01*
X880114Y12700D02*
X888578D01*
X892810Y16932D01*
X888578Y21164D01*
X880114D01*
X882230Y33860D02*
X880114Y31744D01*
Y27512D01*
X882230Y25396D01*
X890694D01*
X892810Y27512D01*
Y31744D01*
X890694Y33860D01*
X882230Y46556D02*
X880114Y44440D01*
Y40208D01*
X882230Y38092D01*
X890694D01*
X892810Y40208D01*
Y44440D01*
X890694Y46556D01*
X882230Y71948D02*
X880114Y69832D01*
Y65600D01*
X882230Y63484D01*
X884346D01*
X886462Y65600D01*
Y69832D01*
X888578Y71948D01*
X890694D01*
X892810Y69832D01*
Y65600D01*
X890694Y63484D01*
X892810Y76180D02*
X880114D01*
Y82528D01*
X882230Y84643D01*
X886462D01*
X888578Y82528D01*
Y76180D01*
X880114Y88875D02*
Y93107D01*
Y90991D01*
X892810D01*
Y88875D01*
Y93107D01*
Y99455D02*
X880114D01*
X892810Y107919D01*
X880114D01*
Y112151D02*
X892810D01*
Y118499D01*
X890694Y120615D01*
X882230D01*
X880114Y118499D01*
Y112151D01*
Y124847D02*
X892810D01*
Y133311D01*
X880114Y146007D02*
Y137543D01*
X892810D01*
Y146007D01*
X886462Y137543D02*
Y141775D01*
D16*
X935995Y457200D02*
X951230D01*
Y467357D01*
Y472435D02*
X941073D01*
X935995Y477514D01*
X941073Y482592D01*
X951230D01*
X943613D01*
Y472435D01*
X938534Y497827D02*
X935995Y495288D01*
Y490210D01*
X938534Y487670D01*
X941073D01*
X943613Y490210D01*
Y495288D01*
X946152Y497827D01*
X948691D01*
X951230Y495288D01*
Y490210D01*
X948691Y487670D01*
X935995Y513062D02*
Y502905D01*
X951230D01*
Y513062D01*
X943613Y502905D02*
Y507984D01*
X951230Y518140D02*
X935995D01*
Y525758D01*
X938534Y528297D01*
X943613D01*
X946152Y525758D01*
Y518140D01*
Y523219D02*
X951230Y528297D01*
X914404Y467357D02*
X911865Y464818D01*
Y459739D01*
X914404Y457200D01*
X916943D01*
X919483Y459739D01*
Y464818D01*
X922022Y467357D01*
X924561D01*
X927100Y464818D01*
Y459739D01*
X924561Y457200D01*
X927100Y472435D02*
X911865D01*
Y480053D01*
X914404Y482592D01*
X919483D01*
X922022Y480053D01*
Y472435D01*
X911865Y487670D02*
Y492749D01*
Y490210D01*
X927100D01*
Y487670D01*
Y492749D01*
Y500366D02*
X911865D01*
X927100Y510523D01*
X911865D01*
Y515601D02*
X927100D01*
Y523219D01*
X924561Y525758D01*
X914404D01*
X911865Y523219D01*
Y515601D01*
Y530836D02*
X927100D01*
Y540993D01*
X911865Y556228D02*
Y546071D01*
X927100D01*
Y556228D01*
X919483Y546071D02*
Y551150D01*
X979600Y425118D02*
X993142D01*
X986371Y431889D02*
Y418347D01*
X985949Y368347D02*
Y381889D01*
X986790Y46969D02*
Y60511D01*
X980440Y103740D02*
X993982D01*
X987211Y110511D02*
Y96969D01*
X146050Y305054D02*
Y322828D01*
X154937D01*
X157900Y319866D01*
Y313941D01*
X154937Y310979D01*
X146050D01*
X151975D02*
X157900Y305054D01*
X175674Y322828D02*
X163824D01*
Y305054D01*
X175674D01*
X163824Y313941D02*
X169749D01*
X193448Y319866D02*
X190486Y322828D01*
X184561D01*
X181598Y319866D01*
Y316903D01*
X184561Y313941D01*
X190486D01*
X193448Y310979D01*
Y308016D01*
X190486Y305054D01*
X184561D01*
X181598Y308016D01*
X211222Y322828D02*
X199373D01*
Y305054D01*
X211222D01*
X199373Y313941D02*
X205298D01*
X217147Y322828D02*
X228997D01*
X223072D01*
Y305054D01*
X146050Y577844D02*
Y560070D01*
X154937D01*
X157900Y563032D01*
Y565995D01*
X154937Y568957D01*
X146050D01*
X154937D01*
X157900Y571920D01*
Y574882D01*
X154937Y577844D01*
X146050D01*
X172711D02*
X166787D01*
X163824Y574882D01*
Y563032D01*
X166787Y560070D01*
X172711D01*
X175674Y563032D01*
Y574882D01*
X172711Y577844D01*
X190486D02*
X184561D01*
X181598Y574882D01*
Y563032D01*
X184561Y560070D01*
X190486D01*
X193448Y563032D01*
Y574882D01*
X190486Y577844D01*
X199373D02*
X211222D01*
X205298D01*
Y560070D01*
X265350Y19748D02*
X273813Y7052D01*
Y19748D02*
X265350Y7052D01*
X278045Y13400D02*
X286509D01*
X282277Y17632D02*
Y9168D01*
X555229Y19748D02*
X563693D01*
Y17632D01*
X555229Y9168D01*
Y7052D01*
X563693D01*
X567925Y13400D02*
X576389D01*
X572157Y17632D02*
Y9168D01*
X482760Y19748D02*
Y17632D01*
X486992Y13400D01*
X491223Y17632D01*
Y19748D01*
X486992Y13400D02*
Y7052D01*
X495455Y13400D02*
X503919D01*
X337820Y19748D02*
X346283Y7052D01*
Y19748D02*
X337820Y7052D01*
X350515Y13400D02*
X358979D01*
X410289Y19748D02*
Y17632D01*
X414521Y13400D01*
X418754Y17632D01*
Y19748D01*
X414521Y13400D02*
Y7052D01*
X422985Y13400D02*
X431449D01*
X427217Y17632D02*
Y9168D01*
X627700Y19748D02*
X636163D01*
Y17632D01*
X627700Y9168D01*
Y7052D01*
X636163D01*
X640395Y13400D02*
X648859D01*
M02*
